<svg width="18" height="18" viewBox="0 0 18 18" fill="none" xmlns="http://www.w3.org/2000/svg">
<path fill-rule="evenodd" clip-rule="evenodd" d="M13.4158 0.631925C13.1436 0.678317 12.9036 0.860986 12.7776 1.11762L12.7092 1.25695L12.7025 3.58905L12.6959 5.92116L12.7683 5.99356C12.8237 6.04893 12.8628 6.06578 12.9348 6.06516C12.9866 6.06474 13.0463 6.05089 13.0676 6.03441C13.0888 6.01793 13.3478 5.73879 13.6431 5.41409L14.18 4.82373L15.72 4.81125C17.1142 4.79996 17.2702 4.79467 17.3687 4.75549C17.5871 4.66861 17.7932 4.4626 17.8806 4.24382C17.9204 4.14412 17.9241 4.01485 17.9241 2.70774V1.28051L17.8433 1.11659C17.7452 0.917193 17.5721 0.75349 17.3756 0.674062L17.2353 0.617387L15.3904 0.613599C14.3757 0.611532 13.4872 0.619773 13.4158 0.631925ZM17.2857 1.22005C17.4206 1.34454 17.4198 1.33561 17.4198 2.712C17.4198 3.94625 17.4183 3.98725 17.3691 4.08882C17.3323 4.16483 17.2898 4.20739 17.2137 4.24419C17.1114 4.29373 17.0741 4.29486 15.5329 4.29486H13.9568L13.6191 4.66494C13.4334 4.86847 13.269 5.03082 13.2536 5.0257C13.2332 5.01889 13.2257 4.52813 13.2257 3.18589C13.2257 1.39352 13.2268 1.35399 13.2749 1.28998C13.389 1.13838 13.2672 1.1465 15.3331 1.1528L17.2191 1.15855L17.2857 1.22005ZM15.7512 1.51506C15.6415 1.54101 15.5339 1.64853 15.5082 1.75799L15.4871 1.84731L15.2374 1.85961C15.0021 1.8712 14.9834 1.87609 14.9118 1.94467C14.87 1.98472 14.8233 2.05942 14.8079 2.11071L14.7799 2.20399H14.2293H13.6786L13.6159 2.26671C13.5431 2.3395 13.5508 2.43371 13.6354 2.50532C13.6805 2.54352 13.7482 2.54837 14.235 2.54837H14.7838L14.7998 2.62101C14.8086 2.66095 14.8381 2.72206 14.8654 2.75679C14.95 2.86436 15.0363 2.89275 15.2785 2.89275C15.4881 2.89275 15.5011 2.89575 15.5011 2.9443C15.5011 3.03185 15.5814 3.1375 15.6867 3.18844C15.7789 3.23307 15.8397 3.23712 16.419 3.23712H17.0508V3.06538V2.89363L16.4543 2.88704L15.8578 2.88045L15.8511 2.38855C15.8434 1.82333 15.839 1.83501 16.0593 1.83501H16.1899V2.04521C16.1899 2.2356 16.1955 2.26111 16.2502 2.31579C16.3268 2.39241 16.3972 2.39241 16.4738 2.31579C16.5286 2.26111 16.5342 2.2356 16.5342 2.04521V1.83501H16.7925H17.0508V1.66282V1.49063L16.442 1.49314C16.1071 1.49454 15.7963 1.50438 15.7512 1.51506ZM15.5011 2.37618V2.54837H15.3553C15.1831 2.54837 15.1321 2.51105 15.1321 2.38511C15.1321 2.23046 15.1628 2.20399 15.3421 2.20399H15.5011V2.37618ZM13.7573 3.16569C13.6257 3.36181 13.561 3.50092 13.5589 3.59218C13.5569 3.68194 13.6551 3.84375 13.7391 3.88896C13.8714 3.96022 14.0389 3.92962 14.1439 3.81502C14.2236 3.72804 14.2269 3.71689 14.2175 3.56876C14.2085 3.42793 14.1941 3.39305 14.0611 3.19162C13.9804 3.06953 13.909 2.96932 13.9022 2.96893C13.8954 2.96853 13.8303 3.05709 13.7573 3.16569Z" fill="#1F1D66"/>
<path fill-rule="evenodd" clip-rule="evenodd" d="M6.46938 0.297965C6.05279 0.328257 5.34999 0.438949 5.04242 0.522773C4.60219 0.642719 4.16819 0.859902 4.04437 1.02221C3.71453 1.45466 3.46441 2.59969 3.38878 4.02355C3.36477 4.4757 3.35123 4.54468 3.26883 4.63511C2.78889 5.16186 2.82839 6.46945 3.33716 6.89758C3.41051 6.9593 3.51158 7.02849 3.56169 7.05136C3.61991 7.07786 3.72562 7.2418 3.85425 7.50501C4.50956 8.84578 5.72386 9.87568 6.89609 10.085C7.54515 10.2008 8.20424 10.0273 8.94724 9.54504C9.63255 9.10023 10.3913 8.19676 10.7512 7.39701C10.8692 7.13482 10.9121 7.08059 11.0667 6.9986C11.4257 6.80812 11.6064 6.38407 11.6064 5.73216C11.6064 5.28438 11.5161 4.9216 11.3504 4.70442C11.281 4.61338 11.2418 4.49665 11.2243 4.32856C11.0611 2.76538 11.0284 2.53625 10.8883 1.97379C10.7698 1.49788 10.6229 1.15084 10.4729 0.992528C10.2322 0.73857 9.56564 0.494885 8.78603 0.375836C8.37593 0.313213 6.92882 0.264574 6.46938 0.297965ZM7.96928 3.61858C8.7409 3.70334 9.71731 3.97345 10.0323 4.18925C10.2156 4.31486 10.3791 4.55968 10.434 4.79073C10.4731 4.95528 10.5063 5.00322 10.626 5.06732C10.8063 5.16394 10.8672 5.3278 10.8703 5.7249C10.8735 6.13692 10.8 6.29858 10.5455 6.4392C10.3996 6.51976 10.3119 6.60619 10.2337 6.74632L10.1248 6.94132L9.75119 6.81114C8.9072 6.51711 8.09139 6.40821 6.97967 6.44119C6.12744 6.46647 5.51316 6.56827 4.82606 6.79814C4.39956 6.94079 4.40266 6.94055 4.36963 6.8365C4.32699 6.70204 4.14556 6.51226 3.97811 6.4268C3.75282 6.31187 3.697 6.17566 3.697 5.7406C3.697 5.29873 3.73394 5.18869 3.91879 5.07963C3.99662 5.03368 4.07095 4.95618 4.08395 4.90733C4.20141 4.46583 4.33237 4.27861 4.62865 4.12866C5.06362 3.90846 6.05332 3.6563 6.69362 3.60248C7.06712 3.57113 7.59819 3.57781 7.96928 3.61858ZM4.55318 10.507C4.36168 10.6586 3.83766 10.9516 3.5327 11.0775C3.36521 11.1467 2.89791 11.3046 2.49428 11.4285C1.53993 11.7214 1.22967 11.8709 0.909987 12.1915C0.414342 12.6885 0.166214 13.4423 0.0689362 14.7461C0.00476377 15.6063 0.013774 15.8741 0.113947 16.0809C0.383438 16.6376 1.62428 17.1072 3.58917 17.3959C5.62205 17.6947 8.09021 17.7318 10.1999 17.4955C11.9053 17.3045 13.3512 16.9378 13.9734 16.5386C14.2156 16.3832 14.449 16.1306 14.4857 15.9843C14.5008 15.9242 14.5016 15.5247 14.4874 15.0966C14.4252 13.2149 14.0233 12.2682 13.086 11.7963C12.9285 11.7169 12.4931 11.5586 12.1185 11.4445C11.0331 11.1138 10.6399 10.9458 10.1441 10.601C10.0013 10.5018 9.88039 10.426 9.87542 10.4327C9.74279 10.6109 7.76119 13.0183 7.65922 13.1252C7.57393 13.2145 7.45884 13.288 7.38146 13.3025C7.07552 13.3599 7.04241 13.3288 5.81522 11.8288C5.18328 11.0564 4.66375 10.4249 4.66069 10.4254C4.65759 10.4259 4.60924 10.4626 4.55318 10.507Z" fill="#1F1D66"/>
<path d="M10.7803 13.4922V15.3294" stroke="white" stroke-width="0.687219" stroke-linecap="round" stroke-linejoin="round"/>
<path d="M11.7177 14.4102H9.84384" stroke="white" stroke-width="0.687219" stroke-linecap="round" stroke-linejoin="round"/>
</svg>
