<svg width="17" height="16" viewBox="0 0 17 16" fill="none" xmlns="http://www.w3.org/2000/svg">
<path fill-rule="evenodd" clip-rule="evenodd" d="M11.6244 1.73731L11.6251 2.26829C13.5763 2.42122 14.8652 3.7508 14.8673 5.78978L14.875 11.758C14.8778 13.9811 13.4812 15.3489 11.2425 15.3524L5.77425 15.3595C3.5496 15.3624 2.1355 13.962 2.1327 11.7326L2.125 5.83438C2.12221 3.78195 3.36566 2.45591 5.31687 2.27679L5.31617 1.7458C5.31547 1.43429 5.54626 1.19995 5.85398 1.19995C6.16169 1.19924 6.39248 1.43288 6.39318 1.74439L6.39388 2.23997L10.5481 2.23431L10.5474 1.73872C10.5467 1.42721 10.7775 1.19358 11.0852 1.19287C11.3859 1.19216 11.6237 1.4258 11.6244 1.73731ZM3.20262 6.0531L13.7909 6.03894V5.79115C13.7608 4.26899 12.9971 3.47039 11.6264 3.35145L11.6271 3.8966C11.6271 4.20103 11.39 4.44245 11.0893 4.44245C10.7816 4.44316 10.5501 4.20244 10.5501 3.89801L10.5494 3.32455L6.39519 3.33021L6.39589 3.90297C6.39589 4.20811 6.1658 4.44882 5.85808 4.44882C5.55036 4.44953 5.31888 4.20952 5.31888 3.90439L5.31818 3.35924C3.95443 3.49588 3.19982 4.29731 3.20192 5.83292L3.20262 6.0531Z" fill="#1F1D66"/>
<path d="M6.33643 9.71851L7.77918 11.1607L10.6635 8.27637" stroke="white" stroke-width="0.911596" stroke-linecap="round" stroke-linejoin="round"/>
</svg>
