<svg width="13" height="17" viewBox="0 0 13 17" fill="none" xmlns="http://www.w3.org/2000/svg">
<path fill-rule="evenodd" clip-rule="evenodd" d="M0.487454 0.387382C0.372664 0.438569 0.268636 0.548461 0.224405 0.665247C0.180204 0.781909 0.177709 14.4399 0.221847 14.5988C0.244992 14.6821 0.439885 14.895 1.0405 15.4932C2.10527 16.5537 2.0077 16.543 2.85708 15.6919L3.41752 15.1303L3.99621 15.7039C4.82182 16.5223 4.79234 16.5224 5.62647 15.6965L6.18014 15.1482L6.73382 15.6965C7.56794 16.5224 7.53847 16.5223 8.36408 15.7039L8.94277 15.1303L9.50321 15.6919C10.3526 16.543 10.255 16.5537 11.32 15.493C11.9404 14.8753 12.115 14.6836 12.139 14.5945C12.1587 14.5218 12.1667 12.0057 12.1616 7.57062L12.1536 0.660007L12.0893 0.573852C12.0539 0.526471 11.9862 0.458782 11.9388 0.423409L11.8527 0.35909L6.21686 0.352383C1.5676 0.346831 0.564656 0.352976 0.487454 0.387382Z" fill="#1F1D66"/>
<path d="M6.60118 2.79907C6.45452 2.60287 6.23263 2.51483 6.01851 2.58124L6.01851 2.58124C5.88628 2.62226 5.79086 2.69624 5.73087 2.81919C5.67271 2.9384 5.65005 3.09937 5.65005 3.31067V3.57428M6.60118 2.79907L6.55885 2.83071L6.60117 2.79906C6.60117 2.79907 6.60118 2.79907 6.60118 2.79907ZM6.60118 2.79907C6.66669 2.88668 6.67784 2.97482 6.68645 3.25217L6.69537 3.54002M6.69537 3.54002L6.64621 3.538L6.64403 3.59084M6.69537 3.54002L6.98758 3.55206C7.17393 3.55975 7.29525 3.57085 7.38692 3.60916C7.4831 3.64936 7.54166 3.71705 7.61044 3.81811C7.76016 4.03808 7.68615 4.35725 7.4584 4.50678L7.45839 4.50678C7.40878 4.53933 7.35104 4.55449 7.22136 4.56467C7.09125 4.57487 6.87927 4.58046 6.51414 4.58731L5.69907 4.60262M6.69537 3.54002L6.6969 3.58921L6.64403 3.59084M6.64403 3.59084L6.63358 3.25381C6.62485 2.97235 6.61253 2.90257 6.55881 2.83074C6.42297 2.64901 6.22305 2.57318 6.03418 2.63176C5.79378 2.70634 5.70294 2.89253 5.70294 3.31067V3.61736M6.64403 3.59084L6.98541 3.60491C7.3614 3.62042 7.43196 3.64989 7.56672 3.84787C7.69847 4.04146 7.63443 4.32793 7.42937 4.46256C7.35382 4.51212 7.24459 4.5207 6.51315 4.53443L5.6827 4.55002M5.70294 3.61736L5.69224 3.56556L5.65005 3.57428M5.70294 3.61736L5.52206 3.65473M5.70294 3.61736L5.52206 3.65473M5.65005 3.57428L5.51136 3.60293M5.65005 3.57428L5.51136 3.60293M5.51136 3.60293L5.51136 3.60293L5.52206 3.65473M5.51136 3.60293C4.75233 3.75968 4.21432 4.53024 4.33234 5.2928L4.33234 5.2928C4.42996 5.92336 4.91096 6.43722 5.52759 6.56788L5.5276 6.56788C5.65962 6.59585 5.92896 6.61398 6.19772 6.61432C6.5953 6.6148 6.64822 6.62399 6.73387 6.67211M5.52206 3.65473C4.7904 3.80583 4.27094 4.55024 4.38461 5.28471C4.47894 5.89397 4.94383 6.39012 5.53856 6.51614C5.66492 6.5429 5.92965 6.56109 6.19779 6.56143C6.59128 6.5619 6.65969 6.56976 6.75979 6.626C7.06095 6.79528 7.123 7.16925 6.89485 7.44038C6.75115 7.61116 6.68552 7.62252 5.84122 7.62252C4.98978 7.62252 4.92269 7.63521 4.78993 7.82131C4.69286 7.95744 4.69286 8.22338 4.78993 8.35951C4.90144 8.51582 5.02924 8.5583 5.38793 8.5583H5.65005V8.6112M5.65005 8.6112H5.38793C5.20806 8.6112 5.079 8.60077 4.97955 8.56771C4.8764 8.53342 4.80794 8.47583 4.74687 8.39023L4.74686 8.39022C4.68985 8.31027 4.66423 8.1977 4.66423 8.09041C4.66423 7.98312 4.68985 7.87055 4.74686 7.7906L4.74687 7.79059C4.78072 7.74314 4.81397 7.70141 4.8597 7.66871C4.90607 7.63556 4.96142 7.6143 5.03624 7.60016C5.18215 7.57256 5.41798 7.56962 5.84122 7.56962C6.26563 7.56962 6.48745 7.56659 6.62175 7.54337C6.68722 7.53205 6.72808 7.51646 6.76 7.49622C6.79241 7.47567 6.8192 7.44814 6.85438 7.40633C7.06226 7.15928 7.00467 6.82432 6.73387 6.67211M5.65005 8.6112H5.70294V8.87332C5.70294 9.232 5.74543 9.3598 5.90174 9.47132C5.97423 9.523 6.04332 9.54088 6.17084 9.54088C6.29835 9.54088 6.36744 9.523 6.43994 9.47132C6.59615 9.35986 6.63873 9.23194 6.63873 8.87391V8.55949M5.65005 8.6112V8.87332C5.65005 9.05319 5.66047 9.18225 5.69353 9.28169C5.72782 9.38485 5.78542 9.45331 5.87102 9.51437L5.87103 9.51438C5.9556 9.57468 6.03688 9.59377 6.17084 9.59377C6.30479 9.59377 6.38607 9.57468 6.47064 9.51438L6.47066 9.51437C6.55621 9.45333 6.6138 9.38487 6.6481 9.28178C6.68117 9.18239 6.69162 9.05347 6.69162 8.87391V8.6024M6.73387 6.67211C6.73387 6.67211 6.73388 6.67211 6.73388 6.67211L6.75947 6.62657L6.73387 6.67211ZM6.69162 8.6024L6.73541 8.59319C7.33 8.46804 7.73141 8.13753 7.93015 7.60357C8.23907 6.77365 7.75179 5.84907 6.88634 5.61753L6.88634 5.61753C6.83322 5.60332 6.74441 5.5925 6.63607 5.58496C6.52646 5.57732 6.39319 5.57282 6.24901 5.57229C5.75951 5.57046 5.62279 5.53884 5.51329 5.44145L5.51328 5.44144C5.47837 5.41041 5.43725 5.3472 5.4044 5.27379C5.37155 5.20041 5.3517 5.12742 5.3517 5.0803C5.3517 4.94132 5.44817 4.76871 5.5792 4.68197L5.69907 4.60262M6.69162 8.6024L6.64963 8.61125L6.63873 8.55949M6.69162 8.6024V8.55949H6.63873M5.69907 4.60262L5.68369 4.60291L5.6827 4.55002M5.69907 4.60262L5.7119 4.59413L5.6827 4.55002M5.6827 4.55002L5.55001 4.63786C5.40577 4.73334 5.29881 4.92175 5.29881 5.0803C5.29881 5.19637 5.39186 5.40427 5.47814 5.48097C5.60497 5.59377 5.76318 5.62337 6.24882 5.62518C6.53539 5.62624 6.77716 5.64308 6.87267 5.66863C7.70877 5.89231 8.17834 6.78518 7.88058 7.58512C7.68871 8.10061 7.30295 8.41968 6.72451 8.54143L6.63873 8.55949M3.5536 11.0933L3.55357 11.0933C3.42662 11.1246 3.32833 11.1797 3.2628 11.2679C3.19764 11.3557 3.17022 11.4692 3.17022 11.6069C3.17022 11.6958 3.17124 11.7566 3.19084 11.8087C3.21105 11.8623 3.2492 11.9022 3.30321 11.9562C3.30321 11.9562 3.30321 11.9562 3.30322 11.9562L3.42068 12.0737L3.43618 12.0892H3.45809H6.16884H8.87959H8.90046L8.91571 12.0749L8.99914 11.997C8.99914 11.997 8.99915 11.997 8.99915 11.997C9.06891 11.9318 9.11929 11.8652 9.14947 11.7905C9.17978 11.7155 9.18823 11.636 9.17973 11.5473L9.17972 11.5473C9.16245 11.3676 9.08148 11.2378 8.9278 11.1438L8.90021 11.1889L8.92779 11.1438C8.89714 11.1251 8.86367 11.1131 8.79528 11.1045C8.72847 11.0962 8.62383 11.0905 8.44829 11.0864C8.09642 11.0782 7.45106 11.0761 6.23333 11.0738C5.52553 11.0724 4.87149 11.0737 4.38791 11.077C4.14614 11.0786 3.94684 11.0807 3.8047 11.0833C3.73366 11.0845 3.67666 11.0859 3.63569 11.0873C3.61524 11.088 3.59846 11.0888 3.58579 11.0896C3.57535 11.0902 3.56238 11.0912 3.5536 11.0933Z" fill="white" stroke="white" stroke-width="0.105787"/>
</svg>
