<svg width="30" height="29" viewBox="0 0 30 29" fill="none" xmlns="http://www.w3.org/2000/svg">
<path fill-rule="evenodd" clip-rule="evenodd" d="M15.4034 4.51868V5.47877H14.1019H12.8005V6.75889V8.03901H12.1604H11.5203V9.31912V10.5992H8.44806H5.37578V17.3625V24.1258H4.67172H3.96765V24.7659V25.4059H14.8913H25.815V24.7659V24.1258H25.1109H24.4069V19.9228V15.7197H22.4867H20.5665V11.8794V8.03901H19.9265H19.2864V6.75889V5.47877H17.9849H16.6835V4.51868V3.55859H16.0434H15.4034V4.51868ZM18.0063 8.03901V9.31912H18.6463H19.2864V12.5194V15.7197H17.3449H15.4034V19.9228V24.1258H14.1019H12.8005V16.7225V9.31912H13.4405H14.0806V8.03901V6.75889H16.0434H18.0063V8.03901ZM15.4034 8.67906V9.31912H16.0434H16.6835V8.67906V8.03901H16.0434H15.4034V8.67906ZM14.1233 11.2393V11.8794H14.7633H15.4034V11.2393V10.5992H14.7633H14.1233V11.2393ZM16.6835 11.2393V11.8794H17.3235H17.9636V11.2393V10.5992H17.3235H16.6835V11.2393ZM11.5098 18.0133L11.5206 24.1258H9.08825H6.6559V18.0022V11.8786L9.07746 11.8897L11.499 11.9007L11.5098 18.0133ZM8.40539 13.7995V14.4396H9.04545H9.68551V13.7995V13.1595H9.04545H8.40539V13.7995ZM14.1233 13.7995V14.4396H14.7633H15.4034V13.7995V13.1595H14.7633H14.1233V13.7995ZM16.6835 13.7995V14.4396H17.3235H17.9636V13.7995V13.1595H17.3235H16.6835V13.7995ZM8.40539 16.5305V17.1705H9.04545H9.68551V16.5305V15.8904H9.04545H8.40539V16.5305ZM23.1267 20.5628V24.1258H22.4867H21.8466V21.2882V18.4506H21.2066H20.5665V21.2882V24.1258H19.9265H19.2864V21.2882V18.4506H18.6463H18.0063V21.2882V24.1258H17.3449H16.6835V20.5628V16.9998H19.9051H23.1267V20.5628ZM8.40539 19.3052V19.9464L9.03478 19.9346L9.66418 19.9228L9.67599 19.2934L9.68777 18.664H9.0466H8.40539V19.3052ZM8.40539 22.035V22.675H9.04545H9.68551V22.035V21.3949H9.04545H8.40539V22.035Z" fill="#130F26"/>
</svg>
