<svg width="17" height="17" viewBox="0 0 17 17" fill="none" xmlns="http://www.w3.org/2000/svg">
<path fill-rule="evenodd" clip-rule="evenodd" d="M11.305 2.52541L11.3056 3.0364C13.1834 3.18357 14.4238 4.4631 14.4258 6.42531L14.4332 12.1689C14.4359 14.3082 13.0918 15.6246 10.9375 15.628L5.67508 15.6348C3.53417 15.6375 2.17331 14.2899 2.17062 12.1444L2.16321 6.46824C2.16052 4.49307 3.35717 3.21695 5.23491 3.04458L5.23424 2.53358C5.23357 2.2338 5.45567 2.00828 5.7518 2.00828C6.04793 2.0076 6.27003 2.23244 6.27071 2.53222L6.27138 3.00915L10.2692 3.0037L10.2685 2.52677C10.2678 2.22699 10.4899 2.00215 10.7861 2.00147C11.0755 2.00079 11.3043 2.22562 11.305 2.52541ZM3.20031 6.67878L13.39 6.66516V6.42669C13.361 4.96184 12.6261 4.19331 11.3069 4.07885L11.3076 4.60347C11.3076 4.89644 11.0795 5.12877 10.79 5.12877C10.4939 5.12945 10.2711 4.8978 10.2711 4.60483L10.2705 4.05296L6.27268 4.05841L6.27335 4.6096C6.27335 4.90325 6.05193 5.1349 5.7558 5.1349C5.45966 5.13558 5.23689 4.90461 5.23689 4.61096L5.23622 4.08634C3.92381 4.21784 3.19761 4.9891 3.19963 6.46689L3.20031 6.67878ZM10.5068 9.77542V9.78292C10.5135 10.0963 10.7693 10.3341 11.0795 10.3273C11.3824 10.3198 11.624 10.0602 11.6173 9.74681C11.6031 9.44702 11.3602 9.20243 11.058 9.20311C10.7484 9.20992 10.5061 9.46201 10.5068 9.77542ZM11.0626 12.8347C10.753 12.8279 10.5033 12.5697 10.5027 12.2563C10.4959 11.9429 10.7443 11.6833 11.0539 11.6758H11.0606C11.3769 11.6758 11.6334 11.934 11.6334 12.2543C11.634 12.5745 11.3783 12.8341 11.0626 12.8347ZM7.73384 9.7864C7.7473 10.0998 8.00373 10.3444 8.31332 10.3308C8.61618 10.3165 8.8578 10.0576 8.84434 9.74416C8.83694 9.43756 8.58791 9.1991 8.28505 9.19978C7.97546 9.21341 7.73317 9.47299 7.73384 9.7864ZM8.31606 12.8038C8.00647 12.8174 7.75072 12.5729 7.73659 12.2594C7.73659 11.946 7.9782 11.6871 8.2878 11.6728C8.59066 11.6721 8.84035 11.9106 8.84708 12.2165C8.86122 12.5306 8.61893 12.7895 8.31606 12.8038ZM4.96099 9.81003C4.97445 10.1234 5.23088 10.3687 5.54047 10.3544C5.84333 10.3408 6.08495 10.0812 6.07082 9.76779C6.06409 9.46119 5.81507 9.22273 5.51153 9.22341C5.20194 9.23704 4.96032 9.49662 4.96099 9.81003ZM5.5431 12.8074C5.23351 12.8217 4.97776 12.5765 4.96363 12.2631C4.96295 11.9497 5.20524 11.6901 5.51484 11.6764C5.8177 11.6758 6.06739 11.9142 6.07412 12.2208C6.08826 12.5342 5.84664 12.7938 5.5431 12.8074Z" fill="#1F1D66"/>
</svg>
