<svg width="33" height="34" viewBox="0 0 33 34" fill="none" xmlns="http://www.w3.org/2000/svg">
<circle cx="16.4381" cy="16.8632" r="16.3495" fill="#1F1D66"/>
<path fill-rule="evenodd" clip-rule="evenodd" d="M14.4132 9.96012C13.8839 10.0693 13.3734 10.4318 13.103 10.8905C13.0537 10.9741 12.9367 11.2677 12.8431 11.5429L12.6727 12.0432L11.3266 12.0607L9.98041 12.0781L9.75571 12.1648C9.14045 12.4019 8.73226 12.8185 8.52359 13.4222L8.44727 13.643V17.9425V22.242L8.53469 22.4667C8.79316 23.131 9.26243 23.5585 9.91695 23.7259C10.1688 23.7903 10.3094 23.7918 16.4296 23.7918C22.5498 23.7918 22.6904 23.7903 22.9423 23.7259C23.311 23.6316 23.5752 23.4807 23.8464 23.2095C24.1176 22.9383 24.2685 22.6741 24.3628 22.3054C24.4266 22.0558 24.4286 21.9218 24.4286 17.9258C24.4286 13.9298 24.4266 13.7958 24.3628 13.5462C24.1925 12.8804 23.7527 12.4076 23.0629 12.1486C22.8913 12.0842 22.788 12.0783 21.5327 12.0614L20.1865 12.0432L20.0162 11.5429C19.8223 10.9734 19.7345 10.8079 19.4819 10.5361C19.2801 10.319 19.0346 10.1595 18.7041 10.0309L18.4794 9.94346L16.5129 9.93802C15.4314 9.93506 14.4865 9.94499 14.4132 9.96012ZM18.3483 11.0424C18.5535 11.1035 18.7431 11.2577 18.8354 11.4382C18.8743 11.5143 19.0009 11.8597 19.1167 12.2058C19.2325 12.5518 19.3513 12.8718 19.3808 12.9168C19.4103 12.9618 19.497 13.0271 19.5735 13.0618C19.7031 13.1206 19.8116 13.125 21.1648 13.1257C22.8296 13.1265 22.8325 13.1269 23.0971 13.3914C23.3817 13.676 23.3621 13.3415 23.3621 17.9258C23.3621 22.5101 23.3817 22.1756 23.0971 22.4602C22.808 22.7492 23.4119 22.7252 16.4296 22.7252C9.44731 22.7252 10.0512 22.7492 9.76217 22.4602C9.47757 22.1756 9.49714 22.5101 9.49714 17.9258C9.49714 13.3415 9.47757 13.676 9.76217 13.3914C10.0267 13.1269 10.0296 13.1265 11.6945 13.1257C13.0382 13.125 13.1569 13.1203 13.2832 13.0629C13.4674 12.9793 13.5218 12.8773 13.7471 12.1932C13.9767 11.4961 14.0539 11.3335 14.2204 11.1956C14.4566 11 14.4764 10.9982 16.4152 10.9957C17.8804 10.9937 18.2122 11.0018 18.3483 11.0424ZM15.9797 13.6804C15.4154 13.7659 14.9918 13.9013 14.5447 14.1392C13.5054 14.692 12.7644 15.6826 12.5098 16.8593C12.4246 17.2529 12.4246 18.0655 12.5098 18.4591C12.8161 19.8747 13.8367 21.0174 15.185 21.4541C15.6448 21.6031 15.9029 21.642 16.4296 21.642C16.7073 21.642 17.0122 21.6224 17.1462 21.5958C18.7718 21.2738 19.9743 20.0951 20.3517 18.4537C20.4292 18.1168 20.4287 17.2077 20.351 16.8647C19.9859 15.2548 18.8172 14.087 17.2241 13.74C16.9868 13.6884 16.1819 13.6498 15.9797 13.6804ZM21.544 14.2398C21.2077 14.3863 21.1283 14.8333 21.3917 15.0968C21.608 15.3129 21.9166 15.3129 22.1329 15.0968C22.5465 14.6831 22.0811 14.0059 21.544 14.2398ZM17.1462 14.8192C18.2309 15.1162 18.992 15.8858 19.2821 16.9787C19.3734 17.3227 19.3683 18.0194 19.2719 18.3758C18.9836 19.441 18.2114 20.2132 17.1462 20.5015C16.7899 20.5979 16.0931 20.603 15.7492 20.5117C14.4618 20.1699 13.5905 19.1273 13.5063 17.8278C13.4528 17.0014 13.762 16.1967 14.3645 15.5941C14.8036 15.155 15.3029 14.8901 15.913 14.7726C16.2257 14.7123 16.8409 14.7356 17.1462 14.8192Z" fill="white" stroke="white" stroke-width="0.385004"/>
</svg>
