<svg width="25" height="25" viewBox="0 0 25 25" fill="none" xmlns="http://www.w3.org/2000/svg">
<circle cx="12.1493" cy="12.7089" r="12.0907" fill="#1F1D66"/>
<path fill-rule="evenodd" clip-rule="evenodd" d="M10.6519 7.60315C10.2605 7.6839 9.88293 7.95199 9.68299 8.29116C9.64654 8.35301 9.56002 8.5701 9.49076 8.77361L9.36481 9.14362L8.3693 9.15654L7.37379 9.16945L7.20762 9.23351C6.75262 9.4089 6.45077 9.71697 6.29645 10.1634L6.24001 10.3267V13.5062V16.6858L6.30466 16.8519C6.4958 17.3432 6.84283 17.6594 7.32686 17.7832C7.51312 17.8308 7.61709 17.8319 12.1431 17.8319C16.6691 17.8319 16.773 17.8308 16.9593 17.7832C17.2319 17.7134 17.4274 17.6018 17.6279 17.4013C17.8284 17.2007 17.94 17.0053 18.0098 16.7327C18.057 16.5481 18.0585 16.449 18.0585 13.4939C18.0585 10.5388 18.057 10.4397 18.0098 10.2551C17.8839 9.76277 17.5586 9.41307 17.0485 9.22158C16.9216 9.17391 16.8452 9.16958 15.9169 9.15706L14.9213 9.14362L14.7954 8.77361C14.652 8.35251 14.5871 8.23011 14.4003 8.02909C14.2511 7.86853 14.0695 7.75057 13.8251 7.65548L13.6589 7.59083L12.2047 7.58681C11.4049 7.58462 10.7061 7.59196 10.6519 7.60315ZM13.562 8.40348C13.7137 8.44874 13.8539 8.56271 13.9222 8.6962C13.951 8.75249 14.0446 9.00794 14.1302 9.26385C14.2158 9.51977 14.3037 9.75638 14.3255 9.78968C14.3474 9.82296 14.4115 9.87122 14.468 9.8969C14.5638 9.9404 14.6441 9.94363 15.6448 9.94412C16.876 9.94474 16.8781 9.94504 17.0738 10.1407C17.2842 10.3511 17.2698 10.1037 17.2698 13.4939C17.2698 16.8841 17.2842 16.6367 17.0738 16.8471C16.86 17.0609 17.3066 17.0431 12.1431 17.0431C6.97955 17.0431 7.42617 17.0609 7.2124 16.8471C7.00193 16.6367 7.0164 16.8841 7.0164 13.4939C7.0164 10.1037 7.00193 10.3511 7.2124 10.1407C7.40805 9.94504 7.41019 9.94474 8.64136 9.94412C9.63505 9.94363 9.72284 9.94016 9.81623 9.89774C9.95244 9.8359 9.99269 9.76043 10.1593 9.25454C10.3291 8.73906 10.3862 8.61878 10.5093 8.51679C10.684 8.37216 10.6986 8.37083 12.1324 8.36895C13.2159 8.36752 13.4613 8.37346 13.562 8.40348ZM11.8103 10.3544C11.3931 10.4176 11.0798 10.5177 10.7492 10.6936C9.98058 11.1025 9.43257 11.835 9.24429 12.7052C9.18129 12.9962 9.18129 13.5972 9.24429 13.8883C9.4708 14.9352 10.2256 15.7802 11.2227 16.1032C11.5627 16.2133 11.7536 16.2421 12.1431 16.2421C12.3484 16.2421 12.5739 16.2276 12.673 16.2079C13.8752 15.9698 14.7644 15.0981 15.0435 13.8843C15.1008 13.6352 15.1005 12.9628 15.043 12.7092C14.773 11.5187 13.9087 10.655 12.7306 10.3985C12.5551 10.3602 11.9599 10.3317 11.8103 10.3544ZM15.9252 10.7681C15.6766 10.8764 15.6178 11.2069 15.8126 11.4018C15.9725 11.5616 16.2008 11.5616 16.3607 11.4018C16.6666 11.0959 16.3225 10.595 15.9252 10.7681ZM12.673 11.1965C13.4751 11.4162 14.038 11.9853 14.2526 12.7935C14.3201 13.0479 14.3163 13.5631 14.245 13.8266C14.0318 14.6144 13.4608 15.1854 12.673 15.3986C12.4095 15.4699 11.8942 15.4737 11.6399 15.4062C10.6879 15.1535 10.0435 14.3824 9.98127 13.4214C9.94166 12.8103 10.1703 12.2152 10.6159 11.7696C10.9406 11.4449 11.3099 11.249 11.761 11.1621C11.9923 11.1175 12.4472 11.1347 12.673 11.1965Z" fill="white" stroke="white" stroke-width="0.245773"/>
</svg>
