<svg width="29" height="24" viewBox="0 0 29 24" fill="none" xmlns="http://www.w3.org/2000/svg">
<path opacity="0.75" fill-rule="evenodd" clip-rule="evenodd" d="M8.50176 4.3414C4.30358 5.86633 3.05723 6.3362 2.95775 6.43151C2.79752 6.58504 2.71903 6.83623 2.76111 7.06071C2.82635 7.40848 2.9033 7.44779 5.10944 8.25991L7.13811 9.00668L7.13847 11.2568C7.1387 12.4943 7.15221 13.5735 7.16853 13.6551C7.21025 13.8638 7.70642 14.3748 8.15516 14.6715C9.64958 15.6593 11.7077 16.109 14.4371 16.0443C16.4246 15.9972 17.8681 15.7093 19.1376 15.1071C19.8327 14.7773 20.4971 14.3028 20.7764 13.9368L20.9 13.7747L20.9227 11.4182L20.9454 9.06177L21.7389 8.77413C22.1753 8.61593 22.5476 8.48621 22.5663 8.48584C22.5851 8.48553 22.6003 9.75441 22.6003 11.3055V14.1259L21.6297 15.103C20.2563 16.4855 20.2565 16.3545 21.627 17.7348L22.5951 18.7098L22.6091 19.5794C22.6219 20.3806 22.6305 20.4591 22.7185 20.5769C23.0091 20.9665 23.5518 20.9665 23.8425 20.5769C23.9305 20.459 23.939 20.3812 23.9513 19.5794L23.9647 18.7098L24.8877 17.7803C25.3953 17.269 25.8433 16.7855 25.8832 16.7057C25.9753 16.521 25.9753 16.319 25.8832 16.1344C25.8433 16.0546 25.3943 15.5707 24.8853 15.0591L23.96 14.1288L23.9716 11.0484L23.9833 7.96786L24.5961 7.73916C25.3708 7.44993 25.4014 7.43143 25.51 7.18608C25.6286 6.91775 25.5894 6.66955 25.3952 6.46125C25.2656 6.32224 24.7642 6.13176 19.8029 4.33637C15.2888 2.7028 14.3155 2.36501 14.1352 2.36918C13.9697 2.37303 12.6178 2.84631 8.50176 4.3414ZM18.5196 5.31869C20.8762 6.1707 22.8187 6.87985 22.8362 6.89449C22.8538 6.90918 20.8775 7.6385 18.4447 8.51522L14.0213 10.1093L9.71695 8.51536C6.72133 7.40608 5.43726 6.911 5.49362 6.88701C5.83649 6.74097 14.0736 3.7759 14.1441 3.77309C14.194 3.77114 16.163 4.46663 18.5196 5.31869ZM11.1811 10.5127C13.2713 11.2905 13.8696 11.4963 14.0308 11.4926C14.1745 11.4894 15.017 11.2049 16.8798 10.5307C18.3346 10.0042 19.5334 9.57345 19.5436 9.57345C19.554 9.57345 19.5625 10.3983 19.5625 11.4065V13.2395L19.402 13.3717C18.6163 14.0194 17.056 14.5028 15.2605 14.6548C14.4805 14.7208 12.8683 14.6866 12.1718 14.5892C10.6559 14.3772 9.39226 13.95 8.72815 13.425L8.49913 13.244V11.3861C8.49913 10.3642 8.50733 9.52811 8.51731 9.52811C8.52733 9.52811 9.72607 9.97114 11.1811 10.5127ZM23.8022 15.9215L24.2996 16.4206L23.7901 16.9301L23.2805 17.4397L22.7709 16.9301L22.2613 16.4206L22.7588 15.9215C23.0324 15.6471 23.2671 15.4225 23.2805 15.4225C23.2938 15.4225 23.5285 15.6471 23.8022 15.9215Z" fill="#130F26"/>
</svg>
