<svg width="16" height="16" viewBox="0 0 16 16" fill="none" xmlns="http://www.w3.org/2000/svg">
<g id="Iconly/Light/Category">
<g id="Category">
<path id="Stroke 1" fill-rule="evenodd" clip-rule="evenodd" d="M2.05032 4.41212C2.05032 2.68364 2.06883 2.10767 4.35478 2.10767C6.64072 2.10767 6.65923 2.68364 6.65923 4.41212C6.65923 6.1406 6.66652 6.71657 4.35478 6.71657C2.04303 6.71657 2.05032 6.1406 2.05032 4.41212Z" fill="#1F1D66" stroke="#1F1D66" stroke-linecap="round" stroke-linejoin="round"/>
<path id="Stroke 3" fill-rule="evenodd" clip-rule="evenodd" d="M9.29289 4.41212C9.29289 2.68364 9.3114 2.10767 11.5973 2.10767C13.8833 2.10767 13.9018 2.68364 13.9018 4.41212C13.9018 6.1406 13.9091 6.71657 11.5973 6.71657C9.2856 6.71657 9.29289 6.1406 9.29289 4.41212Z" fill="#1F1D66" stroke="#1F1D66" stroke-linecap="round" stroke-linejoin="round"/>
<path id="Stroke 5" fill-rule="evenodd" clip-rule="evenodd" d="M2.05032 11.6548C2.05032 9.92631 2.06883 9.35034 4.35478 9.35034C6.64072 9.35034 6.65923 9.92631 6.65923 11.6548C6.65923 13.3833 6.66652 13.9592 4.35478 13.9592C2.04303 13.9592 2.05032 13.3833 2.05032 11.6548Z" fill="#1F1D66" stroke="#1F1D66" stroke-linecap="round" stroke-linejoin="round"/>
<path id="Stroke 7" fill-rule="evenodd" clip-rule="evenodd" d="M9.29289 11.6548C9.29289 9.92631 9.3114 9.35034 11.5973 9.35034C13.8833 9.35034 13.9018 9.92631 13.9018 11.6548C13.9018 13.3833 13.9091 13.9592 11.5973 13.9592C9.2856 13.9592 9.29289 13.3833 9.29289 11.6548Z" fill="#1F1D66" stroke="#1F1D66" stroke-linecap="round" stroke-linejoin="round"/>
</g>
</g>
</svg>
