<svg width="25" height="25" viewBox="0 0 25 25" fill="none" xmlns="http://www.w3.org/2000/svg">
<g id="Iconly/Light/Delete">
<g id="Delete">
<path id="Stroke 1" d="M19.4177 9.5791C19.4177 9.5791 18.8747 16.3141 18.5597 19.1511C18.4097 20.5061 17.5727 21.3001 16.2017 21.3251C13.5927 21.3721 10.9807 21.3751 8.37275 21.3201C7.05375 21.2931 6.23075 20.4891 6.08375 19.1581C5.76675 16.2961 5.22675 9.5791 5.22675 9.5791" stroke="#130F26" stroke-width="1.5" stroke-linecap="round" stroke-linejoin="round"/>
<path id="Stroke 3" d="M20.801 6.35059H3.84305" stroke="#130F26" stroke-width="1.5" stroke-linecap="round" stroke-linejoin="round"/>
<path id="Stroke 5" d="M17.5334 6.35033C16.7484 6.35033 16.0724 5.79533 15.9184 5.02633L15.6754 3.81033C15.5254 3.24933 15.0174 2.86133 14.4384 2.86133H10.2054C9.62644 2.86133 9.11844 3.24933 8.96844 3.81033L8.72544 5.02633C8.57144 5.79533 7.89544 6.35033 7.11044 6.35033" stroke="#130F26" stroke-width="1.5" stroke-linecap="round" stroke-linejoin="round"/>
</g>
</g>
</svg>
