<svg width="24" height="23" viewBox="0 0 24 23" fill="none" xmlns="http://www.w3.org/2000/svg">
<path d="M11.5279 2.91895H8.05133C5.19213 2.91895 3.39944 4.94317 3.39944 7.80887V15.5394C3.39944 18.4051 5.18376 20.4293 8.05133 20.4293H16.2561C19.1246 20.4293 20.9089 18.4051 20.9089 15.5394V11.7941" stroke="#130F26" stroke-width="1.39473" stroke-linecap="round" stroke-linejoin="round"/>
<path fill-rule="evenodd" clip-rule="evenodd" d="M9.05042 10.4799L15.999 3.53136C16.8646 2.66663 18.2677 2.66663 19.1334 3.53136L20.265 4.66295C21.1307 5.52862 21.1307 6.93265 20.265 7.79738L13.283 14.7794C12.9045 15.1578 12.3913 15.3708 11.8557 15.3708H8.37258L8.45999 11.856C8.473 11.3391 8.68407 10.8463 9.05042 10.4799Z" stroke="#130F26" stroke-width="1.39473" stroke-linecap="round" stroke-linejoin="round"/>
<path d="M14.9431 4.60547L19.1886 8.85103" stroke="#130F26" stroke-width="1.39473" stroke-linecap="round" stroke-linejoin="round"/>
</svg>
