<svg width="72" height="72" viewBox="0 0 72 72" fill="none" xmlns="http://www.w3.org/2000/svg">
<circle cx="35.9555" cy="35.9423" r="35.3803" fill="#FF4444" fill-opacity="0.05"/>
<circle cx="35.9555" cy="35.9423" r="34.4611" stroke="#AC1414" stroke-opacity="0.05" stroke-width="1.83841"/>
<mask id="mask0_1483_4323" style="mask-type:alpha" maskUnits="userSpaceOnUse" x="20" y="21" width="32" height="30">
<path fill-rule="evenodd" clip-rule="evenodd" d="M20.2944 21.8501H51.6369V50.3295H20.2944V21.8501Z" fill="white"/>
</mask>
<g mask="url(#mask0_1483_4323)">
<path fill-rule="evenodd" clip-rule="evenodd" d="M35.9744 24.1991C35.229 24.1991 34.565 24.5843 34.1923 25.2311L22.9198 44.9085C22.5534 45.5506 22.5565 46.3164 22.9276 46.9569C23.2988 47.5975 23.9628 47.9811 24.7035 47.9811H47.2281C47.9672 47.9811 48.6312 47.5975 49.0024 46.9569C49.3751 46.3164 49.3783 45.5506 49.0087 44.9085L37.7566 25.2311C37.3854 24.5843 36.7214 24.1991 35.9744 24.1991M47.228 50.3303H24.7035C23.1155 50.3303 21.692 49.5097 20.8948 48.1347C20.0977 46.7613 20.093 45.1185 20.8807 43.7419L32.1563 24.0629C32.9487 22.677 34.3754 21.8501 35.9743 21.8501H35.9759C37.5733 21.8501 39.0031 22.6785 39.7955 24.0661L51.0492 43.7419C51.8369 45.1185 51.8322 46.7613 51.0351 48.1347C50.2379 49.5097 48.8144 50.3303 47.228 50.3303" fill="#FF4444"/>
</g>
<path fill-rule="evenodd" clip-rule="evenodd" d="M35.9607 39.3332C35.3123 39.3332 34.7861 38.807 34.7861 38.1587V33.3039C34.7861 32.6556 35.3123 32.1294 35.9607 32.1294C36.609 32.1294 37.1352 32.6556 37.1352 33.3039V38.1587C37.1352 38.807 36.609 39.3332 35.9607 39.3332" fill="#FF4444"/>
<path fill-rule="evenodd" clip-rule="evenodd" d="M35.964 44.5564C35.098 44.5564 34.3901 43.8564 34.3901 42.9904C34.3901 42.1243 35.0839 41.4243 35.9484 41.4243H35.964C36.83 41.4243 37.5301 42.1243 37.5301 42.9904C37.5301 43.8564 36.83 44.5564 35.964 44.5564" fill="#FF4444"/>
</svg>
