<svg width="41" height="38" viewBox="0 0 41 38" fill="none" xmlns="http://www.w3.org/2000/svg">
<rect opacity="0.2" x="1.00559" y="1.35059" width="39.1717" height="35.6579" rx="7.5" stroke="#1F1D66"/>
<path fill-rule="evenodd" clip-rule="evenodd" d="M23.7529 19.2333C23.7529 20.9793 22.3369 22.3943 20.5909 22.3943C18.8449 22.3943 17.4299 20.9793 17.4299 19.2333C17.4299 17.4863 18.8449 16.0713 20.5909 16.0713C22.3369 16.0713 23.7529 17.4863 23.7529 19.2333Z" stroke="#130F26" stroke-width="1.5" stroke-linecap="round" stroke-linejoin="round"/>
<path fill-rule="evenodd" clip-rule="evenodd" d="M20.5894 26.5347C24.3974 26.5347 27.8804 23.7967 29.8414 19.2327C27.8804 14.6687 24.3974 11.9307 20.5894 11.9307H20.5934C16.7854 11.9307 13.3024 14.6687 11.3414 19.2327C13.3024 23.7967 16.7854 26.5347 20.5934 26.5347H20.5894Z" stroke="#130F26" stroke-width="1.5" stroke-linecap="round" stroke-linejoin="round"/>
</svg>
