<svg width="23" height="20" viewBox="0 0 23 20" fill="none" xmlns="http://www.w3.org/2000/svg">
<path d="M9.2575 12.4841C8.63228 11.86 8.25171 11.0119 8.25171 10.0604C8.25171 8.15433 9.78703 6.61792 11.6921 6.61792C12.6348 6.61792 13.5025 6.99958 14.1168 7.62371" stroke="#130F26" stroke-width="1.63101" stroke-linecap="round" stroke-linejoin="round"/>
<path d="M15.0684 10.6707C14.8161 12.0733 13.7114 13.1802 12.3098 13.4347" stroke="#130F26" stroke-width="1.63101" stroke-linecap="round" stroke-linejoin="round"/>
<path d="M5.8801 15.8607C4.15449 14.5059 2.6931 12.5269 1.63403 10.0598C2.70398 7.5817 4.17515 5.59186 5.91163 4.22616C7.63724 2.86046 9.62817 2.1189 11.6919 2.1189C13.7677 2.1189 15.7575 2.87134 17.494 4.24682" stroke="#130F26" stroke-width="1.63101" stroke-linecap="round" stroke-linejoin="round"/>
<path d="M19.7906 6.63867C20.5387 7.6325 21.1966 8.77965 21.75 10.0594C19.6112 15.0145 15.8316 17.9992 11.6921 17.9992C10.7537 17.9992 9.82841 17.847 8.93896 17.5501" stroke="#130F26" stroke-width="1.63101" stroke-linecap="round" stroke-linejoin="round"/>
<path d="M20.2682 1.4834L3.11646 18.6351" stroke="#130F26" stroke-width="1.63101" stroke-linecap="round" stroke-linejoin="round"/>
</svg>
