<svg width="102" height="51" viewBox="0 0 102 51" fill="none" xmlns="http://www.w3.org/2000/svg">
<path d="M1.26308 47.1035H2.61371V41.1561H2.65429L5.06572 47.1035H6.08014L8.49158 41.1561H8.53795V47.1035H9.88279V38.7389H8.15537L5.59322 45.1268H5.55264L2.9905 38.7389H1.26308V47.1035ZM14.1721 47.2252C15.9749 47.2252 17.1458 46.0253 17.1458 44.0313V44.0197C17.1458 42.0372 15.9575 40.8315 14.1663 40.8315C12.3809 40.8315 11.1984 42.0488 11.1984 44.0197V44.0313C11.1984 46.0195 12.3635 47.2252 14.1721 47.2252ZM14.1779 46.0601C13.2562 46.0601 12.6708 45.3239 12.6708 44.0313V44.0197C12.6708 42.7444 13.2678 42.0024 14.1663 42.0024C15.0822 42.0024 15.6735 42.7386 15.6735 44.0197V44.0313C15.6735 45.3181 15.088 46.0601 14.1779 46.0601ZM21.7424 47.2252C23.2959 47.2252 24.2814 46.0079 24.2814 44.0313V44.0255C24.2814 42.043 23.2901 40.8315 21.7482 40.8315C20.8787 40.8315 20.1773 41.2778 19.8295 42.014H19.7947V38.7389H18.3513V47.1035H19.7947V46.0601H19.8295C20.1773 46.7847 20.8555 47.2252 21.7424 47.2252ZM21.3076 46.0079C20.4149 46.0079 19.7947 45.237 19.7947 44.0313V44.0255C19.7947 42.8255 20.4207 42.0488 21.3076 42.0488C22.2293 42.0488 22.809 42.8024 22.809 44.0255V44.0313C22.809 45.2544 22.2351 46.0079 21.3076 46.0079ZM26.2114 40.0779C26.6636 40.0779 27.0114 39.7185 27.0114 39.2895C27.0114 38.849 26.6636 38.4954 26.2114 38.4954C25.7593 38.4954 25.4057 38.849 25.4057 39.2895C25.4057 39.7185 25.7593 40.0779 26.2114 40.0779ZM25.4868 47.1035H26.9302V40.959H25.4868V47.1035ZM28.4371 47.1035H29.8805V38.7389H28.4371V47.1035ZM34.0481 47.2252C35.6538 47.2252 36.5581 46.2746 36.7494 45.3297L36.7668 45.266H35.4161L35.4045 45.3065C35.2654 45.7181 34.7959 46.1007 34.0771 46.1007C33.138 46.1007 32.5468 45.463 32.5236 44.3849H36.8247V43.9211C36.8247 42.0662 35.735 40.8315 33.9786 40.8315C32.2222 40.8315 31.0918 42.1067 31.0918 44.0429V44.0486C31.0918 46.0021 32.2048 47.2252 34.0481 47.2252ZM33.9959 41.9618C34.7611 41.9618 35.3176 42.4488 35.4219 43.4226H32.541C32.6569 42.4777 33.2308 41.9618 33.9959 41.9618ZM40.1748 47.1035H41.7399L42.4471 44.9413H45.5599L46.2671 47.1035H47.838L44.8469 38.7389H43.1659L40.1748 47.1035ZM43.989 40.2286H44.0238L45.1831 43.7878H42.8239L43.989 40.2286ZM48.8232 47.1035H50.2666V43.5385C50.2666 42.6516 50.7941 42.0488 51.6231 42.0488C52.4462 42.0488 52.852 42.5415 52.852 43.4168V47.1035H54.2953V43.127C54.2953 41.701 53.5244 40.8315 52.1737 40.8315C51.2405 40.8315 50.6144 41.2604 50.2956 41.9213H50.2666V40.959H48.8232V47.1035ZM58.3934 47.2252C59.9991 47.2252 60.9034 46.2746 61.0946 45.3297L61.112 45.266H59.7614L59.7498 45.3065C59.6107 45.7181 59.1412 46.1007 58.4224 46.1007C57.4833 46.1007 56.892 45.463 56.8688 44.3849H61.17V43.9211C61.17 42.0662 60.0802 40.8315 58.3238 40.8315C56.5674 40.8315 55.4371 42.1067 55.4371 44.0429V44.0486C55.4371 46.0021 56.55 47.2252 58.3934 47.2252ZM58.3412 41.9618C59.1064 41.9618 59.6629 42.4488 59.7672 43.4226H56.8862C57.0022 42.4777 57.576 41.9618 58.3412 41.9618ZM64.7405 47.2252C66.2477 47.2252 67.3201 46.4485 67.3201 45.2891V45.2833C67.3201 44.3907 66.8274 43.8921 65.5579 43.6081L64.5319 43.382C63.8942 43.2371 63.6566 43.0052 63.6566 42.6516V42.6458C63.6566 42.1937 64.0565 41.8981 64.6942 41.8981C65.3666 41.8981 65.7608 42.2575 65.8245 42.7502L65.8303 42.7966H67.1752L67.1694 42.7328C67.1172 41.672 66.2245 40.8315 64.6942 40.8315C63.2102 40.8315 62.2306 41.5908 62.2306 42.7154V42.7212C62.2306 43.6313 62.8218 44.2052 63.9986 44.466L65.0188 44.6921C65.6564 44.837 65.8709 45.0457 65.8709 45.4167V45.4225C65.8709 45.8746 65.4477 46.1587 64.7463 46.1587C64.016 46.1587 63.616 45.8456 63.5058 45.3181L63.4943 45.266H62.0741L62.0799 45.3181C62.2074 46.4601 63.1291 47.2252 64.7405 47.2252ZM70.7631 47.2252C71.0529 47.2252 71.308 47.1963 71.4761 47.1731V46.0891C71.3776 46.0949 71.2674 46.1123 71.1283 46.1123C70.6008 46.1123 70.3341 45.921 70.3341 45.3181V42.072H71.4761V40.959H70.3341V39.3997H68.8676V40.959H67.9981V42.072H68.8676V45.4399C68.8676 46.7035 69.4762 47.2252 70.7631 47.2252ZM72.7453 47.1035H74.1887V43.5617C74.1887 42.669 74.722 42.0488 75.5394 42.0488C76.3683 42.0488 76.8436 42.6169 76.8436 43.5617V47.1035H78.287V43.2777C78.287 41.7937 77.4407 40.8315 76.119 40.8315C75.1974 40.8315 74.5423 41.2546 74.2235 41.9908H74.1887V38.7389H72.7453V47.1035ZM82.3908 47.2252C83.9965 47.2252 84.9008 46.2746 85.0921 45.3297L85.1095 45.266H83.7589L83.7473 45.3065C83.6081 45.7181 83.1386 46.1007 82.4198 46.1007C81.4808 46.1007 80.8895 45.463 80.8663 44.3849H85.1675V43.9211C85.1675 42.0662 84.0777 40.8315 82.3213 40.8315C80.5649 40.8315 79.4345 42.1067 79.4345 44.0429V44.0486C79.4345 46.0021 80.5475 47.2252 82.3908 47.2252ZM82.3387 41.9618C83.1038 41.9618 83.6603 42.4488 83.7647 43.4226H80.8837C80.9996 42.4777 81.5735 41.9618 82.3387 41.9618ZM88.738 47.2252C90.2452 47.2252 91.3175 46.4485 91.3175 45.2891V45.2833C91.3175 44.3907 90.8248 43.8921 89.5553 43.6081L88.5293 43.382C87.8917 43.2371 87.654 43.0052 87.654 42.6516V42.6458C87.654 42.1937 88.054 41.8981 88.6916 41.8981C89.3641 41.8981 89.7582 42.2575 89.822 42.7502L89.8278 42.7966H91.1726L91.1668 42.7328C91.1147 41.672 90.222 40.8315 88.6916 40.8315C87.2077 40.8315 86.228 41.5908 86.228 42.7154V42.7212C86.228 43.6313 86.8193 44.2052 87.996 44.466L89.0162 44.6921C89.6539 44.837 89.8684 45.0457 89.8684 45.4167V45.4225C89.8684 45.8746 89.4452 46.1587 88.7438 46.1587C88.0134 46.1587 87.6134 45.8456 87.5033 45.3181L87.4917 45.266H86.0715L86.0773 45.3181C86.2048 46.4601 87.1265 47.2252 88.738 47.2252ZM93.2418 40.0779C93.694 40.0779 94.0418 39.7185 94.0418 39.2895C94.0418 38.849 93.694 38.4954 93.2418 38.4954C92.7897 38.4954 92.4361 38.849 92.4361 39.2895C92.4361 39.7185 92.7897 40.0779 93.2418 40.0779ZM92.5172 47.1035H93.9606V40.959H92.5172V47.1035ZM97.2413 47.2079C98.0529 47.2079 98.7369 46.8021 99.0905 46.1587H99.1253V47.1035H100.569V42.8777C100.569 41.643 99.5774 40.8315 98.0413 40.8315C96.482 40.8315 95.5371 41.6488 95.4501 42.7386L95.4443 42.8082H96.7834L96.795 42.756C96.8877 42.3038 97.3051 41.985 97.9891 41.985C98.7195 41.985 99.1253 42.3618 99.1253 42.9821V43.4052L97.5196 43.5038C96.0298 43.5965 95.1835 44.2515 95.1835 45.3413V45.3529C95.1835 46.4485 96.0124 47.2079 97.2413 47.2079ZM96.6211 45.2949V45.2891C96.6211 44.8022 97.0095 44.495 97.7224 44.4486L99.1253 44.3617V44.8254C99.1253 45.5558 98.4992 46.1065 97.6703 46.1065C97.0384 46.1065 96.6211 45.7993 96.6211 45.2949Z" fill="white"/>
<path d="M19.907 3.4291C19.907 2.48855 20.6694 1.72607 21.61 1.72607H21.8063C22.7469 1.72607 23.5094 2.48855 23.5094 3.4291V4.32957H19.907V3.4291Z" fill="#E92126"/>
<path d="M20.2897 5.37795C20.6085 5.37927 20.9271 5.3817 21.2457 5.38192C22.0991 5.38192 22.9527 5.37971 23.8063 5.385C23.9164 5.385 23.9419 5.35373 23.9357 5.2518C23.9261 5.08777 23.9536 4.92154 23.9276 4.75839C23.9056 4.61396 23.8395 4.54813 23.6971 4.54394C23.0674 4.52479 22.4373 4.52941 21.8073 4.52985C21.7947 4.53628 21.7813 4.54123 21.7675 4.54461C21.4223 4.58864 21.085 4.6635 20.7829 4.84184C20.5682 4.96888 20.3848 5.13554 20.2897 5.37795Z" fill="#E92126"/>
<path d="M20.0591 2.73223C20.4317 1.95304 21.1855 1.61574 22.0717 1.75775C21.6406 1.92861 21.4356 2.28462 21.3018 2.69898C21.2091 2.70449 21.158 2.74786 21.171 2.84628C21.1791 2.90705 21.1576 2.93743 21.0942 2.92488C21.0074 2.90771 20.9616 2.95108 20.9193 3.02043C20.8451 3.14219 20.7588 3.2569 20.6842 3.37843C20.6492 3.43568 20.6087 3.46276 20.5426 3.45395C20.5097 3.45175 20.4767 3.45175 20.4438 3.45395C20.3117 3.45505 20.2897 3.47575 20.2897 3.60653V4.06889V4.33067H19.9946C19.9156 4.3331 19.9066 4.30205 19.9066 4.236C19.9088 3.9795 19.9081 3.723 19.9066 3.46672C19.905 3.21044 19.949 2.96341 20.0591 2.73223Z" fill="#C62327"/>
<path d="M20.2897 5.37814C20.3848 5.13595 20.5682 4.96906 20.7828 4.84202C21.0847 4.66368 21.4213 4.58816 21.7674 4.54479C21.7812 4.54141 21.7946 4.53646 21.8073 4.53004C21.1027 4.52784 20.4002 4.52365 19.6967 4.52453C19.5457 4.52453 19.4715 4.59917 19.449 4.75021C19.4204 4.9433 19.4429 5.13793 19.4354 5.3319C19.4334 5.38122 19.4625 5.38276 19.4984 5.38254C19.7621 5.38078 20.0259 5.37931 20.2897 5.37814Z" fill="#C62327"/>
<path d="M19.6193 2.69578C19.6558 2.6938 19.6756 2.68014 19.6853 2.65284C19.6983 2.61387 19.6767 2.58877 19.6466 2.57226C19.5473 2.51854 19.4466 2.46658 19.3465 2.4144C19.1915 2.33338 19.0362 2.25265 18.8808 2.17221C18.8368 2.14887 18.7852 2.12818 18.7577 2.18476C18.7331 2.23628 18.7813 2.26094 18.8211 2.28186L19.5662 2.67266C19.5856 2.68257 19.606 2.69005 19.6193 2.69578Z" fill="#E92126" stroke="#E92126" stroke-width="0.0649269"/>
<path d="M24.4205 2.14745C24.4109 2.15141 24.3902 2.15824 24.3706 2.16748C24.1417 2.27419 23.9127 2.3812 23.6834 2.48849C23.6699 2.49405 23.6568 2.5006 23.6442 2.50809C23.6141 2.52812 23.5958 2.55565 23.6121 2.59197C23.6315 2.63469 23.6665 2.63601 23.7041 2.61773L24.4456 2.26194C24.4785 2.2463 24.5007 2.22165 24.491 2.18422C24.4848 2.15824 24.4615 2.14415 24.4205 2.14745Z" fill="#E92126" stroke="#E92126" stroke-width="0.0649269"/>
<path d="M19.1719 3.35772H18.8749C18.8266 3.35772 18.7811 3.36741 18.7828 3.42575C18.7846 3.47859 18.8317 3.48498 18.8724 3.48542C19.0776 3.48674 19.2831 3.48542 19.4889 3.48542C19.5329 3.48542 19.5735 3.47661 19.5732 3.42201C19.5732 3.36036 19.5277 3.35596 19.4803 3.35596C19.3773 3.35838 19.2745 3.35772 19.1719 3.35772Z" fill="#E92126" stroke="#E92126" stroke-width="0.0649269"/>
<path d="M19.9903 1.11328C19.9264 1.12209 19.9192 1.16876 19.9438 1.2095C20.0594 1.39928 20.1799 1.58643 20.3003 1.77313C20.3043 1.78056 20.3099 1.78701 20.3167 1.79204C20.3235 1.79706 20.3313 1.80054 20.3396 1.80222C20.3478 1.8039 20.3564 1.80374 20.3646 1.80176C20.3728 1.79978 20.3805 1.79602 20.387 1.79075C20.4225 1.76323 20.4106 1.72294 20.391 1.69123C20.3071 1.55428 20.221 1.41888 20.1352 1.28303C20.1101 1.24296 20.0817 1.20487 20.0583 1.16392C20.043 1.13895 20.0186 1.12083 19.9903 1.11328Z" fill="#E92126" stroke="#E92126" stroke-width="0.0649269"/>
<path d="M21.6234 1.06611C21.6234 1.16101 21.6234 1.2559 21.6234 1.35101C21.6234 1.39505 21.6234 1.44679 21.6866 1.44481C21.739 1.44282 21.7456 1.39945 21.7454 1.35674C21.7454 1.16299 21.7454 0.969457 21.7454 0.775926C21.7454 0.730131 21.7315 0.689179 21.6857 0.687858C21.6261 0.684996 21.6228 0.736736 21.6225 0.782091C21.623 0.876104 21.6234 0.970998 21.6234 1.06611Z" fill="#E92126" stroke="#E92126" stroke-width="0.0649269"/>
<path d="M24.0324 3.38301C23.9593 3.38301 23.8864 3.38301 23.8135 3.38301C23.7724 3.38301 23.7279 3.38961 23.7255 3.44179C23.723 3.49397 23.766 3.50608 23.8076 3.50652C23.9571 3.50807 24.1066 3.50652 24.2558 3.50652C24.2999 3.50652 24.3411 3.4953 24.3391 3.44268C24.3371 3.39005 24.295 3.38279 24.251 3.38257C24.1781 3.38279 24.1053 3.38301 24.0324 3.38301Z" fill="#E92126" stroke="#E92126" stroke-width="0.0649269"/>
<path d="M23.237 1.18091C23.2226 1.18316 23.2089 1.18845 23.1968 1.19643C23.1847 1.2044 23.1745 1.21488 23.1667 1.22714C23.087 1.33547 23.0067 1.44357 22.9267 1.5519C22.899 1.58911 22.8765 1.63006 22.9254 1.6644C22.9743 1.69875 22.9985 1.65714 23.0221 1.62587C23.1029 1.51843 23.1829 1.41033 23.2621 1.30156C23.2962 1.25423 23.3076 1.20865 23.237 1.18091Z" fill="#E92126" stroke="#E92126" stroke-width="0.0649269"/>
<circle cx="21.6852" cy="0.419753" r="0.124343" fill="#E92126"/>
<circle cx="19.8083" cy="0.942459" r="0.124343" fill="#E92126"/>
<circle cx="18.5099" cy="3.44588" r="0.124343" fill="#E92126"/>
<circle cx="24.6185" cy="3.44588" r="0.124343" fill="#E92126"/>
<path d="M48.0552 5.38452V25.7584H45.3775V9.83768L38.7123 20.9269H38.363L31.6978 9.86678V25.7584H28.991V5.38452H32.0471L38.5377 16.1536L44.9991 5.38452H48.0552Z" fill="white"/>
<path fill-rule="evenodd" clip-rule="evenodd" d="M58.4662 4.10449L67.4931 27.1121C67.609 27.3309 67.6846 27.525 67.7445 27.6912C67.7661 27.751 67.784 27.802 67.8002 27.8482C67.8373 27.9539 67.8654 28.034 67.9075 28.134C68.0057 28.3673 68.1826 28.7043 68.6944 29.2919C68.8464 29.4664 68.9542 29.5123 69.0052 29.527C69.0566 29.5419 69.1339 29.5489 69.2631 29.5105C69.5659 29.4205 69.9722 29.1362 70.4342 28.6625C70.8744 28.2111 71.269 27.6893 71.5685 27.2743C71.6209 27.2017 71.6748 27.1262 71.7263 27.0539C71.8082 26.9391 71.8842 26.8326 71.9391 26.7591L71.9402 26.7577C71.9764 26.7093 72.0551 26.6039 72.1448 26.5168C72.1714 26.491 72.2221 26.4438 72.2916 26.3955C72.3369 26.3641 72.5117 26.2432 72.7721 26.2114C72.9117 26.1942 73.0979 26.2005 73.2948 26.28L82.3982 28.4265H99.5367V30.5213H82.1546L73.313 28.4365C73.2982 28.457 73.2829 28.4783 73.267 28.5003C72.9525 28.936 72.4852 29.5596 71.9339 30.125C71.4043 30.6681 70.6894 31.272 69.8597 31.5185C69.4226 31.6483 68.9308 31.6856 68.4251 31.5398C67.9189 31.394 67.4815 31.0885 67.115 30.6678C66.4863 29.9461 66.1773 29.4228 65.9769 28.9468C65.9078 28.7828 65.8496 28.6167 65.8068 28.4947C65.7946 28.4598 65.7836 28.4286 65.7741 28.402C65.7259 28.2686 65.6851 28.1695 65.626 28.0631L65.5921 28.002L59.1282 11.527L54.3638 35.5246L49.5734 29.4359L41.9488 31.9682L34.7858 29.6965H28.8378V27.6017H35.1101L41.9338 29.7659L50.3097 26.9841L53.1956 30.652L58.4662 4.10449Z" fill="url(#paint0_linear_1197_5085)"/>
<path d="M75.0498 5.17725C76.9164 5.17725 78.4656 5.80267 79.6972 7.05351C80.948 8.2851 81.5734 9.82459 81.5734 11.672C81.5734 13.5001 80.948 15.0396 79.6972 16.2905C78.4656 17.5413 76.9164 18.1667 75.0498 18.1667H70.4025V25.3831H67.718V5.17725H75.0498ZM75.0498 15.6554C76.1659 15.6554 77.0896 15.2802 77.8209 14.5297C78.5522 13.7599 78.9178 12.8074 78.9178 11.672C78.9178 10.5174 78.5522 9.56481 77.8209 8.8143C77.0896 8.0638 76.1659 7.68855 75.0498 7.68855H70.4025V15.6554H75.0498Z" fill="white"/>
<path d="M90.7039 25.7583C88.818 25.7583 87.2016 25.3157 85.8545 24.4305C84.5267 23.5453 83.5934 22.333 83.0546 20.7935L85.3638 19.4657C86.1528 21.9096 87.9521 23.1316 90.7617 23.1316C92.1472 23.1316 93.2056 22.8525 93.9369 22.2945C94.6681 21.7172 95.0337 20.957 95.0337 20.0141C95.0337 19.0519 94.6681 18.3303 93.9369 17.8492C93.2056 17.3681 91.9836 16.8581 90.2709 16.3193C89.4242 16.0499 88.7796 15.8382 88.337 15.6843C87.8944 15.5111 87.3363 15.2609 86.6628 14.9338C86.0085 14.5874 85.5178 14.241 85.1906 13.8946C84.8635 13.529 84.5652 13.0575 84.2958 12.4802C84.0456 11.9029 83.9205 11.2486 83.9205 10.5174C83.9205 8.76619 84.5363 7.38065 85.7679 6.36074C86.9995 5.32158 88.5005 4.802 90.2709 4.802C91.8682 4.802 93.2537 5.20612 94.4276 6.01435C95.6207 6.82259 96.5155 7.89061 97.1121 9.21842L94.8606 10.5174C93.9946 8.43905 92.4647 7.3999 90.2709 7.3999C89.1741 7.3999 88.2888 7.66931 87.6153 8.20813C86.9418 8.74695 86.605 9.47821 86.605 10.4019C86.605 11.2871 86.9225 11.9606 87.5576 12.4225C88.1926 12.8843 89.2895 13.3654 90.8483 13.8658C91.4063 14.039 91.8008 14.164 92.0317 14.241C92.2627 14.318 92.6187 14.4527 93.0998 14.6451C93.6001 14.8376 93.9657 14.9915 94.1966 15.107C94.4276 15.2224 94.7355 15.386 95.1203 15.5977C95.5245 15.8094 95.8227 16.0114 96.0152 16.2039C96.2076 16.3963 96.4289 16.6368 96.6791 16.9255C96.9485 17.1949 97.1409 17.4739 97.2564 17.7626C97.3718 18.0513 97.4681 18.388 97.545 18.7729C97.6413 19.1385 97.6894 19.533 97.6894 19.9564C97.6894 21.7268 97.0447 23.1412 95.7554 24.1996C94.4661 25.2388 92.7822 25.7583 90.7039 25.7583Z" fill="white"/>
<path fill-rule="evenodd" clip-rule="evenodd" d="M22.9554 20.8193H24.4439V22.2382H25.8355V23.7103H24.4439V25.1289H22.9554V23.7103H21.5638V22.2382H22.9554V20.8193Z" fill="url(#paint1_linear_1197_5085)"/>
<path fill-rule="evenodd" clip-rule="evenodd" d="M19.3046 5.38501H28.9909V7.48181H21.1965V9.01099V14.3296V16.4264H21.1101H19.0997H19.0133V14.3296V9.01099V7.48456C12.9878 7.59843 7.82495 11.238 5.50164 16.4264H6.73948H25.5544H28.9909V16.4298V18.5232V18.5266H25.5544H6.73948H4.74318C4.38179 19.8218 4.18859 21.1872 4.18859 22.5978V27.6017H5.57069C6.01137 24.9425 8.32185 22.9149 11.1059 22.9149C13.89 22.9149 16.2004 24.9425 16.6411 27.6017H28.8691V29.6985H16.5942C16.055 32.2344 13.8026 34.1368 11.1059 34.1368C8.4092 34.1368 6.15683 32.2344 5.61765 29.6985H4.18859H2.70073C2.36443 29.6985 2.0918 29.4258 2.0918 29.0895V27.6017V22.5978C2.0918 13.0914 9.79822 5.38501 19.3046 5.38501ZM11.1059 32.0664C13.0613 32.0664 14.6465 30.4813 14.6465 28.5259C14.6465 26.5704 13.0613 24.9853 11.1059 24.9853C9.1505 24.9853 7.56532 26.5704 7.56532 28.5259C7.56532 30.4813 9.1505 32.0664 11.1059 32.0664Z" fill="url(#paint2_radial_1197_5085)"/>
<defs>
<linearGradient id="paint0_linear_1197_5085" x1="99.539" y1="-9.73424" x2="105.773" y2="12.1127" gradientUnits="userSpaceOnUse">
<stop stop-color="#60B3FF"/>
<stop offset="0.439383" stop-color="#3CDFFF"/>
<stop offset="1" stop-color="#60C6FF"/>
</linearGradient>
<linearGradient id="paint1_linear_1197_5085" x1="19.014" y1="18.634" x2="21.0688" y2="17.1402" gradientUnits="userSpaceOnUse">
<stop offset="0.101664" stop-color="#4EB4FF"/>
<stop offset="0.583333" stop-color="#3CDFFF"/>
<stop offset="1" stop-color="#60C6FF"/>
</linearGradient>
<radialGradient id="paint2_radial_1197_5085" cx="0" cy="0" r="1" gradientUnits="userSpaceOnUse" gradientTransform="translate(2.59096 16.1799) rotate(3.02376) scale(53.2412 1972.4)">
<stop stop-color="#4EB4FF"/>
<stop offset="0.583333" stop-color="#3CDFFF"/>
<stop offset="1" stop-color="#60C6FF"/>
</radialGradient>
</defs>
</svg>
