<svg width="20" height="18" viewBox="0 0 20 18" fill="none" xmlns="http://www.w3.org/2000/svg">
<path fill-rule="evenodd" clip-rule="evenodd" d="M10.2558 10.8405C9.67315 10.8405 9.09224 10.648 8.60626 10.2631L4.70015 7.11379C4.41884 6.88734 4.37529 6.4754 4.60086 6.19496C4.82818 5.91539 5.23925 5.87097 5.51969 6.09654L9.42232 9.24233C9.91265 9.63077 10.6033 9.63077 11.0971 9.23885L14.9606 6.09828C15.241 5.86923 15.6521 5.91278 15.8803 6.19321C16.1076 6.47278 16.0649 6.88386 15.7853 7.11204L11.9149 10.2578C11.4255 10.6463 10.8402 10.8405 10.2558 10.8405Z" fill="#130F26"/>
<mask id="mask0_1197_5271" style="mask-type:alpha" maskUnits="userSpaceOnUse" x="0" y="0" width="20" height="18">
<path fill-rule="evenodd" clip-rule="evenodd" d="M0.869751 0.855469H19.5946V17.8386H0.869751V0.855469Z" fill="white"/>
</mask>
<g mask="url(#mask0_1197_5271)">
<path fill-rule="evenodd" clip-rule="evenodd" d="M5.95535 16.5319H14.5079C14.5096 16.5302 14.5166 16.5319 14.5218 16.5319C15.5155 16.5319 16.3969 16.1766 17.0727 15.5016C17.8575 14.7204 18.2886 13.5978 18.2886 12.341V6.35949C18.2886 3.92699 16.6982 2.16162 14.5079 2.16162H5.95709C3.76671 2.16162 2.17639 3.92699 2.17639 6.35949V12.341C2.17639 13.5978 2.60837 14.7204 3.39221 15.5016C4.06805 16.1766 4.9503 16.5319 5.94315 16.5319H5.95535ZM5.94029 17.8386C4.59645 17.8386 3.39631 17.3508 2.46965 16.4277C1.4376 15.3982 0.869751 13.9473 0.869751 12.3413V6.35973C0.869751 3.22178 3.05665 0.855469 5.95684 0.855469H14.5076C17.4078 0.855469 19.5947 3.22178 19.5947 6.35973V12.3413C19.5947 13.9473 19.0269 15.3982 17.9948 16.4277C17.069 17.35 15.868 17.8386 14.5215 17.8386H14.5076H5.95684H5.94029Z" fill="#130F26"/>
</g>
</svg>
