<svg width="17" height="17" viewBox="0 0 17 17" fill="none" xmlns="http://www.w3.org/2000/svg">
<path fill-rule="evenodd" clip-rule="evenodd" d="M5.75319 0.892687C4.44685 1.09866 3.38136 2.03369 3.01589 3.29481C2.90043 3.69324 2.85847 4.1603 2.90341 4.54681C3.06863 5.96802 4.013 7.07462 5.38882 7.45918C5.65991 7.53498 5.73863 7.54271 6.23802 7.5429C6.71442 7.54306 6.82437 7.53334 7.05577 7.47072C8.02747 7.20763 8.81159 6.57032 9.24002 5.69543C10.062 4.01675 9.37936 2.02555 7.6998 1.20315C7.258 0.986822 6.86121 0.890611 6.3481 0.87542C6.12322 0.868783 5.8555 0.876552 5.75319 0.892687Z" fill="#1F1D66"/>
<path d="M10.8001 13.4719C11.5679 11.8068 11.6407 11.6766 11.8381 11.6171C12.0045 11.567 12.255 11.6353 12.3602 11.7594C12.3849 11.7885 12.8314 12.5926 13.3524 13.5464L14.2997 15.2804L15.1665 15.2961C15.9795 15.3108 16.0386 15.3158 16.12 15.3767C16.4265 15.6057 16.4213 16.019 16.1095 16.2129C15.9925 16.2856 15.9752 16.287 15.0313 16.2967C14.5037 16.3022 14.0113 16.2977 13.937 16.2867C13.6916 16.2505 13.6445 16.1822 12.809 14.6502C12.3701 13.8454 12.0207 13.2381 12.0091 13.26C11.9979 13.2814 11.6371 14.0621 11.2073 14.9949C10.7776 15.9277 10.3908 16.7328 10.3477 16.7841C10.1924 16.9686 9.94556 17.0115 9.73166 16.8912C9.61812 16.8274 9.54446 16.7133 8.97543 15.7202L8.34501 14.6199L7.47585 14.6041C6.51931 14.5868 6.53053 14.5892 6.36827 14.3719C6.27354 14.245 6.27785 13.9638 6.37667 13.8252C6.5249 13.6174 6.54192 13.6144 7.64644 13.6039C8.26444 13.598 8.68935 13.6068 8.76408 13.6269C8.83041 13.6448 8.92866 13.7057 8.98242 13.7622C9.03617 13.8188 9.2713 14.2029 9.50495 14.6159L9.92974 15.3667L9.99148 15.2292C10.0254 15.1535 10.3893 14.3627 10.8001 13.4719Z" fill="#1F1D66"/>
<path fill-rule="evenodd" clip-rule="evenodd" d="M9.83852 8.94952C9.73387 8.93261 9.62651 8.92383 9.5171 8.92383H3.20361C1.54676 8.92383 0.203613 10.267 0.203613 11.9238V14.4471C0.203613 14.7232 0.427471 14.9471 0.703613 14.9471H5.84249C5.73586 14.503 5.67907 14.0366 5.67907 13.5557C5.67907 11.3566 7.68818 9.6872 9.83852 8.94952Z" fill="#1F1D66"/>
</svg>
