<svg width="38" height="37" viewBox="0 0 38 37" fill="none" xmlns="http://www.w3.org/2000/svg">
<rect x="0.461304" y="0.463867" width="36.982" height="36" rx="10" fill="#0BA808" fill-opacity="0.08"/>
<rect x="0.961304" y="0.963867" width="35.982" height="35" rx="9.5" stroke="#0BA808" stroke-opacity="0.08"/>
<path fill-rule="evenodd" clip-rule="evenodd" d="M22.1565 10.3534C22.4249 10.4205 22.6257 10.5351 22.828 10.7367C23.0364 10.9443 23.1623 11.1729 23.2204 11.4488C23.2451 11.5665 23.2559 12.59 23.2559 14.8281V18.0384L23.5606 18.0953C24.4385 18.2593 25.1793 18.6558 25.8213 19.3055C26.3394 19.8297 26.6312 20.2995 26.8533 20.9669C27.2776 22.2417 27.0895 23.6018 26.331 24.7429C26.2436 24.8744 26.0143 25.1416 25.8213 25.3369C25.204 25.9615 24.5574 26.3193 23.6542 26.536L23.3674 26.6048L17.7751 26.6155C13.6776 26.6234 12.1317 26.6165 11.9916 26.5899C11.7328 26.5407 11.4032 26.3621 11.2307 26.1776C11.0621 25.9974 10.9142 25.7165 10.8644 25.4822C10.8386 25.3607 10.8285 23.7099 10.8285 19.5936C10.8285 14.4199 10.8334 13.864 10.8794 13.7718C10.9496 13.6312 14.1302 10.446 14.2767 10.3697C14.3917 10.3098 14.4981 10.3081 18.196 10.3108C21.1249 10.3129 22.0338 10.3226 22.1565 10.3534ZM14.971 12.6674C14.971 14.0109 14.9683 14.076 14.9068 14.1964C14.8656 14.2774 14.7979 14.3451 14.7169 14.3864C14.5965 14.4478 14.5314 14.4505 13.1878 14.4505H11.7845V19.8688C11.7845 25.2363 11.7851 25.2883 11.8486 25.4129C11.8899 25.4939 11.9576 25.5616 12.0386 25.6029C12.1626 25.6661 12.2184 25.667 16.1095 25.667H20.0547L19.7318 25.3404C19.108 24.7093 18.7116 23.9578 18.552 23.1038L18.4952 22.7992H15.9671C13.4962 22.7992 13.4361 22.7977 13.3132 22.735C13.1718 22.6629 13.0591 22.4793 13.0591 22.3212C13.0591 22.1631 13.1718 21.9795 13.3132 21.9073C13.4361 21.8447 13.4962 21.8432 15.9699 21.8432H18.5008L18.5222 21.6918C18.5865 21.2367 18.8002 20.6207 19.0358 20.2116C19.1136 20.0766 19.1772 19.9583 19.1772 19.9487C19.1772 19.9391 17.8861 19.9313 16.308 19.9313C13.4954 19.9313 13.4365 19.93 13.3132 19.8672C13.1718 19.795 13.0591 19.6114 13.0591 19.4533C13.0591 19.2952 13.1718 19.1116 13.3132 19.0395C13.4368 18.9764 13.4944 18.9754 16.7555 18.9754H20.0721L20.2381 18.8529C20.7751 18.4564 21.5069 18.1547 22.1486 18.0652L22.2999 18.044L22.2986 14.8372C22.2971 11.2329 22.3152 11.4954 22.058 11.3397L21.9335 11.2643L18.4522 11.2642L14.971 11.264V12.6674ZM13.2343 12.7298L12.4701 13.4946H13.2426H14.015V12.7298C14.015 12.3092 14.0113 11.9651 14.0068 11.9651C14.0023 11.9651 13.6547 12.3092 13.2343 12.7298ZM20.778 16.1732C20.9126 16.2442 21.0253 16.4322 21.0253 16.5855C21.0253 16.7436 20.9126 16.9272 20.7713 16.9993C20.6474 17.0625 20.5906 17.0635 17.0422 17.0635C13.4938 17.0635 13.437 17.0625 13.3132 16.9993C13.1718 16.9272 13.0591 16.7436 13.0591 16.5855C13.0591 16.4274 13.1718 16.2438 13.3132 16.1716C13.4371 16.1085 13.4924 16.1075 17.0489 16.1089C20.5802 16.1103 20.6615 16.1117 20.778 16.1732ZM22.0122 19.0659C21.3819 19.2302 20.8507 19.5286 20.418 19.9612C19.9877 20.3915 19.6968 20.9077 19.5196 21.5554C19.4656 21.7526 19.4539 21.8892 19.4539 22.3212C19.4539 22.8948 19.4856 23.0686 19.6833 23.5808C19.9822 24.3556 20.7435 25.1169 21.5183 25.4158C22.0305 25.6135 22.2043 25.6452 22.7779 25.6452C23.3516 25.6452 23.5253 25.6135 24.0376 25.4158C24.8124 25.1169 25.5736 24.3556 25.8726 23.5808C26.0668 23.0777 26.1012 22.8924 26.1038 22.3371C26.1064 21.767 26.0533 21.4855 25.854 21.013C25.4164 19.9752 24.394 19.1815 23.2718 19.0082C22.9733 18.9621 22.2905 18.9934 22.0122 19.0659ZM23.0086 19.997C23.0814 20.0355 23.1526 20.1088 23.1918 20.1855C23.2522 20.3039 23.2559 20.3721 23.2559 21.3652C23.2559 22.3588 23.2522 22.4265 23.1917 22.5451C23.1505 22.626 23.0828 22.6937 23.0018 22.735C22.8865 22.7938 22.8148 22.7992 22.1406 22.7992C21.4664 22.7992 21.3947 22.7938 21.2794 22.735C21.138 22.6629 21.0253 22.4793 21.0253 22.3212C21.0253 22.1631 21.138 21.9795 21.2794 21.9073C21.3878 21.8521 21.4671 21.8432 21.8526 21.8432H22.2999V21.0772C22.2999 20.3723 22.3051 20.3011 22.3641 20.1854C22.4817 19.9549 22.7695 19.8708 23.0086 19.997Z" fill="#0BA808"/>
</svg>
