<svg width="38" height="37" viewBox="0 0 38 37" fill="none" xmlns="http://www.w3.org/2000/svg">
<rect x="0.443359" y="0.0131836" width="36.982" height="36" rx="10" fill="#0BA808" fill-opacity="0.08"/>
<rect x="0.943359" y="0.513184" width="35.982" height="35" rx="9.5" stroke="#0BA808" stroke-opacity="0.08"/>
<path d="M19.0669 9.85678L19.0669 9.85678C17.5823 10.1087 16.2766 11.0775 15.6107 12.4217C15.2693 13.1108 15.1268 13.7294 15.1263 14.5219C15.1255 15.7799 15.5582 16.8739 16.4125 17.7723C18.0143 19.4568 20.5444 19.7318 22.5062 18.4363C22.6587 18.3356 22.9579 18.0793 23.173 17.8663C23.8877 17.1587 24.3221 16.3326 24.513 15.3197C24.5445 15.1525 24.5595 14.834 24.5594 14.5213C24.5594 14.2088 24.5442 13.8922 24.5126 13.7293C24.1689 11.9596 22.9898 10.5894 21.3288 10.0329L21.3137 10.0779L21.3288 10.0329C20.6666 9.8111 19.7549 9.74009 19.0669 9.85678ZM20.3491 15.1134L20.3491 15.1134L20.1984 16.9518C20.1984 16.9518 20.1984 16.9518 20.1984 16.9518C20.9745 16.6962 21.4179 15.9595 21.2279 15.2178L21.176 15.2311L21.2279 15.2178C21.0705 14.6033 20.6242 14.2192 19.977 14.1372L19.9704 14.1893L19.977 14.1372C19.789 14.1133 19.6888 14.0982 19.6159 14.0754C19.5467 14.0538 19.5011 14.025 19.4237 13.967C18.9943 13.6451 19.147 12.9404 19.6961 12.7944L19.6812 12.7386L19.6961 12.7944C19.8867 12.7436 20.0909 12.7985 20.2492 12.9196C20.4075 13.0407 20.5141 13.2237 20.5154 13.4214L20.5154 13.4214C20.5161 13.5211 20.5701 13.6223 20.6392 13.6967C20.7077 13.7705 20.8034 13.8309 20.9003 13.8309C20.9928 13.8309 21.0885 13.7701 21.157 13.6998C21.2258 13.6293 21.2843 13.5319 21.2843 13.4387C21.2843 13.3245 21.2527 13.1756 21.2051 13.0321C21.1575 12.8882 21.0919 12.7438 21.0202 12.6389L21.0202 12.6389C20.8486 12.3878 20.6632 12.2412 20.3683 12.1216L20.3466 12.1751L20.3683 12.1216L20.1879 12.0485L20.1796 11.9004L20.1796 11.9004C20.173 11.7844 20.1561 11.6917 20.1213 11.619C20.0853 11.5437 20.0314 11.4929 19.9583 11.4596L19.9583 11.4596C19.8992 11.4327 19.8485 11.4151 19.7964 11.4155C19.7431 11.4158 19.6961 11.4348 19.644 11.4633C19.5699 11.5038 19.5154 11.551 19.4822 11.6241C19.4504 11.6939 19.4412 11.781 19.4412 11.894V12.0721L19.3082 12.1229C19.3082 12.1229 19.3082 12.1229 19.3082 12.1229C18.7912 12.3203 18.4045 12.8894 18.4045 13.4504C18.4045 13.6668 18.4751 13.903 18.5877 14.112C18.7003 14.3208 18.8577 14.5076 19.0365 14.622C19.1647 14.7041 19.2614 14.7573 19.3714 14.7945C19.4808 14.8316 19.6006 14.8518 19.7736 14.8718C19.9429 14.8915 20.0545 14.9148 20.1398 14.9512C20.2229 14.9867 20.2839 15.0359 20.3491 15.1134ZM19.6673 17.5502L19.6894 17.4969L19.3741 16.8477L19.3553 16.9022C19.3553 16.9022 19.3553 16.9022 19.3553 16.9022C19.4212 16.9249 19.4261 16.9316 19.4299 16.9393C19.433 16.9457 19.4367 16.9582 19.4388 16.9859C19.4409 17.0133 19.4412 17.0495 19.4412 17.1006C19.4412 17.2279 19.4501 17.3231 19.4849 17.3954C19.5221 17.4727 19.5843 17.5158 19.6673 17.5502ZM20.5087 10.607C21.3599 10.7587 22.0962 11.1534 22.7045 11.7845C23.1864 12.2845 23.5115 12.8641 23.6945 13.5498C23.78 13.8702 23.7919 13.985 23.7919 14.5219C23.7919 14.7939 23.7889 14.9557 23.775 15.0914C23.7613 15.226 23.7367 15.3361 23.6918 15.5044C23.1836 17.4119 21.44 18.6382 19.4726 18.4719C17.3849 18.2953 15.7726 16.4386 15.8819 14.3357C15.9768 12.5132 17.2643 11.0155 19.0694 10.6298C19.2225 10.597 19.5021 10.5768 19.7866 10.5723C20.0711 10.5678 20.3523 10.5792 20.5087 10.607Z" fill="#0BA808" stroke="#0BA808" stroke-width="0.115362"/>
<path d="M13.2986 26.0495L13.2728 26.049L11.9289 26.0216C11.2111 26.0069 10.8164 25.9954 10.5932 25.9646C10.4819 25.9493 10.4051 25.9283 10.3509 25.8945C10.2926 25.8582 10.266 25.8108 10.2467 25.7598C10.2433 25.7509 10.2422 25.7415 10.2418 25.7379L10.2418 25.7377C10.2411 25.7321 10.2406 25.7256 10.2402 25.7185C10.2394 25.7043 10.2387 25.6854 10.2382 25.6623C10.2373 25.6161 10.2369 25.5514 10.237 25.4711C10.2373 25.3104 10.2396 25.0859 10.2435 24.8186C10.2513 24.2841 10.2653 23.578 10.2817 22.8689C10.2982 22.1598 10.3169 21.4474 10.3342 20.9002C10.3428 20.6267 10.3511 20.3942 10.3585 20.2241C10.3622 20.139 10.3657 20.0693 10.3689 20.0177C10.372 19.9685 10.375 19.9304 10.3787 19.9132L13.2986 26.0495ZM13.2986 26.0495L13.3162 26.0306M13.2986 26.0495L13.3162 26.0306M13.3162 26.0306L13.4064 25.9335L13.4064 25.9335M13.3162 26.0306L13.4064 25.9335M13.4064 25.9335C13.4773 25.8571 13.5193 25.7419 13.5366 25.6038L13.5366 25.6038M13.4064 25.9335L13.5366 25.6038M13.5366 25.6038L13.5578 25.4334L13.9726 25.2182C14.0023 25.2028 14.0301 25.1882 14.0564 25.1744C14.1782 25.1105 14.2674 25.0637 14.3592 25.0337C14.4672 24.9984 14.5797 24.9865 14.7516 25.0062C15.0718 25.0431 15.5824 25.1873 16.6187 25.4802C16.7165 25.5078 16.819 25.5368 16.9265 25.5671C17.4921 25.7267 18.0425 25.8771 18.4738 25.9908C18.9029 26.104 19.2188 26.1822 19.3114 26.1958C19.6677 26.2479 20.3191 26.2281 20.6766 26.1544L20.6649 26.0979M13.5366 25.6038L20.6649 26.0979M20.6649 26.0979L20.6766 26.1544C20.9982 26.0881 21.2236 26.0247 21.5035 25.8902C21.7813 25.7566 22.1121 25.5532 22.6455 25.2093C24.6103 23.9423 25.8011 23.1731 26.5124 22.7097C26.8679 22.4781 27.1039 22.3227 27.2569 22.2197C27.4078 22.1182 27.4821 22.065 27.5097 22.0393L27.4704 21.9971L27.5097 22.0393C27.5905 21.9641 27.6343 21.8764 27.6316 21.7721C27.6289 21.6715 27.583 21.5638 27.5047 21.4455C27.3464 21.2065 27.1084 21.0122 26.8103 20.875C26.653 20.8026 26.4387 20.7589 26.2279 20.7454C26.0172 20.7319 25.8023 20.748 25.644 20.8006M20.6649 26.0979L21.4478 21.0499M21.4478 21.0499L21.4479 21.0499C22.0374 21.1684 22.5788 21.544 22.8773 22.0428C22.8796 22.0426 22.8824 22.0423 22.8859 22.0417C22.9157 22.0367 22.9682 22.0198 23.0613 21.9815C23.2454 21.9058 23.5693 21.7549 24.1457 21.482C24.5028 21.3129 24.8494 21.152 25.12 21.0288C25.3887 20.9066 25.5869 20.8195 25.644 20.8006M21.4478 21.0499C21.4191 21.0441 21.3532 21.0382 21.264 21.032C21.1729 21.0257 21.0529 21.0189 20.9128 21.012C20.6324 20.9983 20.2701 20.9843 19.8935 20.9732C19.1031 20.9501 18.6817 20.9334 18.3789 20.8836C18.0802 20.8346 17.8974 20.7535 17.5835 20.5959L17.5606 20.6416M21.4478 21.0499L17.5606 20.6416M25.644 20.8006L25.6622 20.8554L25.644 20.8006C25.644 20.8006 25.644 20.8006 25.644 20.8006ZM17.5606 20.6416L17.5835 20.5959C16.7831 20.1943 16.2059 20.0657 15.3512 20.0997M17.5606 20.6416L15.3512 20.0997M22.9325 23.5546L22.9058 23.5539L21.1416 23.5102C20.0848 23.484 19.5103 23.468 19.1858 23.4469C18.8658 23.4261 18.7738 23.4005 18.7004 23.341C18.7004 23.341 18.7004 23.341 18.7004 23.341L22.9325 23.5546ZM22.9325 23.5546L22.9503 23.5347L23.0613 23.4104L23.0197 23.3732L23.0613 23.4104C23.1126 23.3531 23.1488 23.3081 23.1658 23.2436C23.1818 23.1831 23.1797 23.1093 23.1737 22.9985L23.1626 22.791L24.4606 22.1757C24.8269 22.0021 25.1785 21.8401 25.45 21.719C25.5857 21.6584 25.7012 21.6082 25.7883 21.5719C25.878 21.5344 25.9319 21.5143 25.9489 21.5105M22.9325 23.5546L25.9489 21.5105M25.9489 21.5105C26.0348 21.4912 26.1705 21.4854 26.2454 21.4971C26.3273 21.5098 26.4528 21.5554 26.5575 21.6056C26.6077 21.6297 26.6506 21.6536 26.6797 21.6737C26.6763 21.6761 26.6726 21.6786 26.6688 21.6813C26.6302 21.708 26.5737 21.7462 26.5016 21.7944C26.3574 21.8907 26.1519 22.0264 25.9048 22.1885C25.4106 22.5128 24.7505 22.9427 24.0839 23.3749C23.4172 23.8071 22.7441 24.2416 22.2237 24.5752C21.9635 24.742 21.7415 24.8835 21.5777 24.9868L25.9489 21.5105ZM10.4224 19.8105C10.4423 19.7769 10.4674 19.7428 10.4938 19.7164C10.5155 19.6947 10.5392 19.6717 10.5854 19.6565C10.6268 19.6429 10.6841 19.6361 10.7735 19.6326C10.9535 19.6257 11.2884 19.6322 11.9457 19.6453C12.3142 19.6526 12.6614 19.6638 12.9255 19.6758C13.0576 19.6819 13.1692 19.6882 13.2524 19.6944C13.294 19.6975 13.329 19.7006 13.3561 19.7037L10.4224 19.8105ZM10.4224 19.8105C10.4029 19.8434 10.3857 19.8805 10.3787 19.9132L10.4224 19.8105ZM15.3512 20.0997C14.7862 20.1221 14.4406 20.1973 13.8962 20.4159M15.3512 20.0997L13.8962 20.4159M13.8962 20.4159L13.655 20.5127L13.6699 20.335C13.6846 20.1593 13.6783 20.0226 13.6401 19.9205C13.5999 19.8132 13.5258 19.7478 13.4197 19.7146L13.8962 20.4159ZM13.8962 20.4159L13.8962 20.4159L13.9177 20.4694C14.4563 20.2532 14.7953 20.1795 15.3535 20.1573C16.1979 20.1237 16.7655 20.25 17.5576 20.6475C18.1883 20.964 18.3141 20.9847 19.8918 21.0309C20.6443 21.053 21.3394 21.087 21.4365 21.1065L13.8962 20.4159ZM22.8839 22.054C22.8838 22.0539 22.8837 22.0537 22.8837 22.0536C22.8837 22.0537 22.8838 22.0539 22.8839 22.054L22.8839 22.054ZM12.7775 25.1723L12.7757 25.2831L11.8857 25.2582C11.625 25.251 11.3872 25.2434 11.2141 25.2371C11.1276 25.2339 11.0574 25.2311 11.0086 25.2288C11.0005 25.2284 10.993 25.228 10.9861 25.2277L10.9861 25.2262C10.9868 25.1903 10.9879 25.1378 10.9894 25.0708C10.9925 24.9369 10.9973 24.7459 11.0033 24.5167C11.0151 24.0582 11.0316 23.4468 11.0485 22.8337C11.0654 22.2207 11.0827 21.6059 11.0963 21.1406C11.1032 20.9079 11.109 20.7127 11.1135 20.5737C11.1157 20.5042 11.1175 20.4489 11.1189 20.41L11.1194 20.397C11.1275 20.3969 11.1365 20.3968 11.1465 20.3968C11.1979 20.3965 11.2715 20.397 11.3603 20.398C11.5377 20.4002 11.7744 20.4048 12.0113 20.4104C12.2483 20.4161 12.4854 20.4227 12.6637 20.4289C12.7529 20.432 12.8271 20.4351 12.8791 20.4378C12.8899 20.4383 12.8997 20.4389 12.9083 20.4394C12.9077 20.4705 12.9068 20.515 12.9054 20.5714C12.9026 20.6894 12.8983 20.8595 12.8927 21.0691C12.8815 21.4882 12.8653 22.0651 12.847 22.6986C12.8103 23.9652 12.779 25.0786 12.7775 25.1722C12.7775 25.1722 12.7775 25.1722 12.7775 25.1723ZM11.1214 20.3498C11.1214 20.3498 11.1214 20.3499 11.1214 20.3499L11.1214 20.3499L11.1214 20.3498ZM21.2846 25.1672C21.2118 25.2043 21.0001 25.282 20.814 25.3388C20.6608 25.3856 20.5662 25.4102 20.4394 25.4237C20.3107 25.4375 20.148 25.4399 19.8586 25.4402L19.2332 25.4407L17.1868 24.8556C15.9023 24.4882 15.2316 24.2998 14.7945 24.2482C14.5737 24.2221 14.4093 24.2304 14.2535 24.2691C14.0993 24.3074 13.9564 24.375 13.7804 24.462L13.7804 24.462C13.7038 24.4999 13.633 24.5323 13.5809 24.5539C13.5756 24.5561 13.5705 24.5582 13.5657 24.5602C13.5657 24.5406 13.5658 24.5173 13.566 24.4906C13.5668 24.4004 13.5689 24.2724 13.5721 24.1191C13.5785 23.8125 13.5889 23.4056 13.6005 22.9986C13.6121 22.5917 13.6249 22.1849 13.6361 21.8788C13.6416 21.7257 13.6468 21.5979 13.6512 21.508C13.6533 21.4629 13.6553 21.4277 13.657 21.4036C13.6574 21.3988 13.6577 21.3945 13.658 21.3908C13.6635 21.387 13.6705 21.3824 13.6792 21.3769C13.6986 21.3647 13.7237 21.3502 13.7534 21.3339C13.8125 21.3013 13.8879 21.2628 13.9683 21.2238C14.1297 21.1455 14.3074 21.0672 14.4118 21.0316C15.064 20.8098 15.7358 20.784 16.4203 20.9551C16.6279 21.007 16.9815 21.1425 17.2926 21.2904C17.6601 21.4652 17.8715 21.5603 18.1307 21.6154C18.3883 21.6703 18.6915 21.6853 19.2421 21.7062C20.2808 21.7455 20.8161 21.7666 21.1219 21.7916C21.2747 21.8041 21.3676 21.8174 21.4361 21.8337C21.5035 21.8498 21.5488 21.8691 21.6073 21.8961C21.8902 22.0271 22.1292 22.2567 22.2632 22.5249C22.2736 22.5456 22.2832 22.5647 22.2921 22.5823C22.3248 22.6469 22.3479 22.6927 22.3598 22.7279C22.3658 22.7457 22.3668 22.7551 22.3668 22.7592C22.3666 22.7593 22.3665 22.7594 22.3663 22.7595C22.3597 22.7633 22.3447 22.7685 22.3141 22.7722C22.2845 22.7758 22.2453 22.7774 22.194 22.7775C22.1127 22.7775 22.0063 22.7734 21.8679 22.7682C21.8314 22.7668 21.7927 22.7654 21.7517 22.7639C21.3765 22.7502 20.5684 22.7279 19.9559 22.7143L19.9546 22.772L21.2846 25.1672Z" fill="#0BA808" stroke="#0BA808" stroke-width="0.115362"/>
</svg>
