<svg width="38" height="37" viewBox="0 0 38 37" fill="none" xmlns="http://www.w3.org/2000/svg">
<rect x="0.443237" y="0.561523" width="36.982" height="36" rx="10" fill="#CE0000" fill-opacity="0.05"/>
<rect x="0.943237" y="1.06152" width="35.982" height="35" rx="9.5" stroke="#CE0000" stroke-opacity="0.08"/>
<path d="M19.4411 12.6204V12.4423C19.4411 12.3294 19.4503 12.2422 19.482 12.1724C19.5153 12.0993 19.5698 12.0521 19.6438 12.0116C19.6959 11.9831 19.743 11.9641 19.7963 11.9638C19.8484 11.9635 19.899 11.9811 19.9582 12.008L19.9582 12.008C20.0312 12.0413 20.0851 12.0921 20.1212 12.1673C20.156 12.24 20.1729 12.3328 20.1794 12.4487L20.1794 12.4487L20.1878 12.5968L20.3682 12.6699L20.3465 12.7234L20.3682 12.6699C20.6631 12.7895 20.8485 12.9362 21.0201 13.1872L21.0201 13.1872C21.0918 13.2921 21.1574 13.4366 21.205 13.5805C21.2525 13.724 21.2842 13.8729 21.2842 13.987C21.2842 14.0802 21.2257 14.1776 21.1569 14.2482C21.0884 14.3184 20.9927 14.3792 20.9002 14.3792C20.8033 14.3792 20.7076 14.3188 20.639 14.2451C20.5699 14.1707 20.5159 14.0694 20.5153 13.9697C20.514 13.772 20.4074 13.5891 20.2491 13.4679C20.0908 13.3468 19.8866 13.292 19.696 13.3427L19.6811 13.287L19.696 13.3427C19.1469 13.4888 18.9942 14.1934 19.4236 14.5154C19.501 14.5734 19.5465 14.6021 19.6158 14.6238C19.6887 14.6465 19.7889 14.6617 19.9769 14.6855C20.6241 14.7676 21.0704 15.1516 21.2278 15.7661L21.1719 15.7804L21.2278 15.7661C21.4178 16.5078 20.9744 17.2445 20.1983 17.5002C20.1983 17.5002 20.1983 17.5002 20.1983 17.5002L19.4411 12.6204ZM19.4411 12.6204L19.3081 12.6712C18.7911 12.8687 18.4044 13.4377 18.4044 13.9987C18.4044 14.2152 18.475 14.4514 18.5876 14.6603C18.7002 14.8692 18.8575 15.0559 19.0363 15.1703C19.1646 15.2524 19.2613 15.3056 19.3713 15.3429C19.4807 15.3799 19.6005 15.4001 19.7735 15.4202C19.9428 15.4398 20.0544 15.4632 20.1397 15.4996C20.2228 15.535 20.2838 15.5842 20.349 15.6618L20.349 15.6618C20.7213 16.1042 20.4185 16.7595 19.8443 16.7595C19.6643 16.7595 19.5129 16.7016 19.3991 16.599C19.285 16.4962 19.2052 16.3452 19.1748 16.1533C19.1448 15.9631 19.0573 15.8196 18.9334 15.7582C18.8048 15.6945 18.6571 15.7284 18.5335 15.852C18.4628 15.9227 18.4189 15.9914 18.4094 16.0916C18.4005 16.1853 18.4224 16.3024 18.4651 16.4683C18.5753 16.8971 18.9489 17.3105 19.3552 17.4505M19.3552 17.4505C19.3552 17.4505 19.3552 17.4505 19.3552 17.4505L19.374 17.396L19.3552 17.4505ZM19.0668 10.4051L19.0668 10.4051C17.5822 10.657 16.2765 11.6258 15.6106 12.9701C15.2692 13.6592 15.1267 14.2778 15.1262 15.0702C15.1254 16.3283 15.558 17.4223 16.4123 18.3206C18.0141 20.0051 20.5443 20.2801 22.5061 18.9846C22.6585 18.884 22.9577 18.6277 23.1729 18.4146C23.8876 17.707 24.322 16.8809 24.5128 15.868C24.5443 15.7009 24.5594 15.3823 24.5593 15.0697C24.5592 14.7571 24.5441 14.4406 24.5124 14.2776C24.1688 12.5079 22.9897 11.1377 21.3287 10.5813L21.3104 10.636L21.3287 10.5813C20.6665 10.3594 19.7548 10.2884 19.0668 10.4051ZM19.7801 15.3629C20.1212 15.4024 20.2539 15.4591 20.3932 15.6246L19.9343 12.0605C19.8191 12.008 19.77 12.0083 19.6715 12.0622C19.5366 12.136 19.4988 12.2193 19.4988 12.4423V12.6601L19.3287 12.7251C18.8345 12.9138 18.4621 13.4611 18.4621 13.9987C18.4621 14.4083 18.7304 14.906 19.0674 15.1218C19.3211 15.2841 19.4357 15.3229 19.7801 15.3629Z" fill="#CE0000" stroke="#CE0000" stroke-width="0.115362"/>
<path d="M13.2985 26.5979L13.2726 26.5973L11.9288 26.5699C11.2109 26.5553 10.8162 26.5437 10.593 26.513C10.4818 26.4976 10.405 26.4766 10.3508 26.4428C10.2925 26.4065 10.2659 26.3591 10.2465 26.3082C10.2431 26.2993 10.2421 26.2898 10.2417 26.2863L10.2416 26.286C10.241 26.2805 10.2405 26.2739 10.2401 26.2669C10.2392 26.2527 10.2386 26.2337 10.2381 26.2107C10.2371 26.1644 10.2368 26.0997 10.2369 26.0195C10.2372 25.8588 10.2395 25.6342 10.2434 25.367C10.2512 24.8324 10.2652 24.1264 10.2816 23.4173C10.298 22.7081 10.3168 21.9958 10.3341 21.4486C10.3427 21.175 10.351 20.9426 10.3584 20.7724C10.3621 20.6874 10.3655 20.6176 10.3688 20.566C10.3718 20.5168 10.3749 20.4788 10.3786 20.4615L13.2985 26.5979ZM13.2985 26.5979L13.3161 26.5789M13.2985 26.5979L13.3161 26.5789M13.3161 26.5789L13.4063 26.4818L13.4063 26.4818M13.3161 26.5789L13.4063 26.4818M13.4063 26.4818C13.4772 26.4054 13.5192 26.2903 13.5365 26.1521L13.5365 26.1521M13.4063 26.4818L13.5365 26.1521M13.5365 26.1521L13.5577 25.9817L13.9725 25.7666C14.0022 25.7512 14.03 25.7366 14.0563 25.7228C14.1781 25.6589 14.2673 25.6121 14.3591 25.582C14.4671 25.5467 14.5796 25.5348 14.7515 25.5546C15.0717 25.5914 15.5823 25.7357 16.6186 26.0285C16.7164 26.0562 16.8189 26.0851 16.9264 26.1154C17.4919 26.275 18.0424 26.4254 18.4737 26.5392C18.9028 26.6524 19.2186 26.7306 19.3113 26.7441C19.6676 26.7962 20.319 26.7764 20.6764 26.7028L20.6648 26.6463M13.5365 26.1521L20.6648 26.6463M20.6648 26.6463L20.6764 26.7027C20.9981 26.6364 21.2235 26.573 21.5033 26.4385C21.7812 26.3049 22.1119 26.1016 22.6453 25.7576C24.6102 24.4906 25.801 23.7214 26.5122 23.2581C26.8678 23.0264 27.1038 22.871 27.2568 22.7681C27.4076 22.6666 27.482 22.6133 27.5096 22.5877L27.4702 22.5455L27.5096 22.5877C27.5904 22.5124 27.6342 22.4248 27.6314 22.3204C27.6288 22.2198 27.5829 22.1121 27.5046 21.9938L27.4565 22.0257L27.5046 21.9938C27.3462 21.7548 27.1083 21.5605 26.8102 21.4233C26.6529 21.3509 26.4386 21.3073 26.2277 21.2938C26.0171 21.2803 25.8022 21.2963 25.6439 21.3489M20.6648 26.6463L21.4477 21.5982M21.4477 21.5982L21.4477 21.5982C22.0373 21.7167 22.5787 22.0924 22.8771 22.5912C22.8794 22.591 22.8823 22.5906 22.8858 22.59C22.9155 22.585 22.9681 22.5681 23.0612 22.5298C23.2453 22.4542 23.5692 22.3032 24.1456 22.0303C24.5027 21.8613 24.8492 21.7003 25.1199 21.5771C25.3886 21.4549 25.5868 21.3679 25.6439 21.3489M21.4477 21.5982C21.419 21.5925 21.3531 21.5865 21.2639 21.5803C21.1728 21.574 21.0528 21.5672 20.9126 21.5604C20.6322 21.5467 20.27 21.5326 19.8934 21.5216L19.8917 21.5792M21.4477 21.5982L19.8917 21.5792M25.6439 21.3489L25.662 21.4037L25.6439 21.349C25.6439 21.349 25.6439 21.3489 25.6439 21.3489ZM19.8917 21.5792L19.8934 21.5216C19.103 21.4984 18.6816 21.4817 18.3788 21.432C18.0801 21.3829 17.8972 21.3018 17.5834 21.1443L17.5575 21.1958M19.8917 21.5792L17.5575 21.1958M17.5575 21.1958L17.5834 21.1443C16.783 20.7426 16.2057 20.614 15.3511 20.648C14.7861 20.6705 14.4405 20.7456 13.8961 20.9642L17.5575 21.1958ZM13.4195 20.263C13.4046 20.2583 13.3812 20.2549 13.356 20.252C13.3289 20.2489 13.2939 20.2458 13.2523 20.2427C13.169 20.2365 13.0574 20.2302 12.9254 20.2242C12.6613 20.2121 12.3141 20.201 11.9456 20.1936C11.2883 20.1806 10.9534 20.174 10.7733 20.181C10.684 20.1844 10.6266 20.1912 10.5853 20.2049C10.539 20.2201 10.5154 20.243 10.4937 20.2647C10.4673 20.2911 10.4422 20.3252 10.4223 20.3588C10.4028 20.3918 10.3856 20.4288 10.3786 20.4615L13.4195 20.263ZM13.4195 20.263C13.4195 20.263 13.4196 20.263 13.4196 20.263L13.4023 20.318L13.4195 20.263ZM22.9324 24.1029L22.9057 24.1023L21.1414 24.0585C20.0847 24.0323 19.5102 24.0163 19.1857 23.9952C18.8657 23.9745 18.7737 23.9489 18.7003 23.8894C18.7003 23.8894 18.7003 23.8894 18.7003 23.8894L22.9324 24.1029ZM22.9324 24.1029L22.9502 24.083L23.0612 23.9588L23.0612 23.9588C23.1124 23.9014 23.1487 23.8565 23.1657 23.7919C23.1817 23.7314 23.1796 23.6576 23.1736 23.5469L23.1625 23.3394L24.4605 22.7241C24.8267 22.5504 25.1784 22.3884 25.4498 22.2673C25.5856 22.2068 25.7011 22.1565 25.7881 22.1202C25.8778 22.0828 25.9318 22.0626 25.9487 22.0588L22.9324 24.1029ZM11.1213 20.8983C11.1213 20.8983 11.1213 20.8982 11.1213 20.8982C11.1213 20.8982 11.1213 20.8982 11.1213 20.8981L11.1213 20.8983ZM11.1213 20.8983C11.1189 20.9161 11.1093 20.9274 11.1035 20.9328C11.0978 20.9381 11.0923 20.941 11.0896 20.9423C11.0843 20.9449 11.0799 20.9459 11.0789 20.9462L11.0788 20.9462C11.0761 20.9468 11.0746 20.9469 11.0758 20.9468C11.0775 20.9466 11.0813 20.9463 11.088 20.9461C11.0959 20.9458 11.1064 20.9455 11.1193 20.9453M11.1213 20.8983L11.1193 20.9453M11.1193 20.9453L11.1188 20.9583C11.1174 20.9972 11.1155 21.0526 11.1133 21.1221C11.1089 21.261 11.103 21.4563 11.0962 21.6889C11.0826 22.1542 11.0653 22.769 11.0484 23.3821C11.0315 23.9952 11.015 24.6065 11.0031 25.065C10.9972 25.2943 10.9924 25.4853 10.9893 25.6191C10.9878 25.6861 10.9866 25.7387 10.986 25.7746L10.986 25.776C10.9928 25.7764 11.0003 25.7767 11.0085 25.7771C11.0572 25.7794 11.1275 25.7823 11.214 25.7854C11.3871 25.7917 11.6249 25.7993 11.8856 25.8066L12.7755 25.8315L12.7774 25.7206L12.7774 25.7206L12.835 25.7215L11.1193 20.9453ZM11.1193 20.9453C11.1274 20.9452 11.1364 20.9451 11.1464 20.9451C11.1978 20.9448 11.2714 20.9453 11.3602 20.9464C11.5376 20.9486 11.7742 20.9532 12.0112 20.9588C12.2482 20.9644 12.4852 20.971 12.6635 20.9773C12.7527 20.9804 12.827 20.9834 12.879 20.9861C12.8898 20.9867 12.8995 20.9872 12.9082 20.9878L11.1193 20.9453ZM22.8838 22.6024C22.8837 22.6022 22.8836 22.6021 22.8835 22.6019C22.8836 22.6021 22.8837 22.6022 22.8838 22.6024L22.8838 22.6024ZM21.2844 25.7155C21.2117 25.7527 20.9999 25.8304 20.8139 25.8872C20.6607 25.9339 20.5661 25.9585 20.4392 25.972C20.3106 25.9858 20.1479 25.9883 19.8584 25.9885L19.233 25.9891L17.1867 25.4039C15.9022 25.0366 15.2315 24.8482 14.7944 24.7965C14.5736 24.7705 14.4091 24.7788 14.2534 24.8174C14.0991 24.8558 13.9563 24.9233 13.7803 25.0103L13.7803 25.0104C13.7037 25.0483 13.6329 25.0806 13.5808 25.1023C13.5755 25.1045 13.5704 25.1066 13.5656 25.1085C13.5655 25.0889 13.5657 25.0657 13.5659 25.039C13.5667 24.9487 13.5688 24.8207 13.572 24.6674C13.5783 24.3609 13.5887 23.9539 13.6004 23.547C13.612 23.14 13.6248 22.7333 13.6359 22.4271C13.6415 22.274 13.6467 22.1463 13.651 22.0563C13.6532 22.0113 13.6552 21.9761 13.6569 21.952C13.6572 21.9471 13.6576 21.9429 13.6579 21.9391C13.6633 21.9353 13.6703 21.9307 13.679 21.9252C13.6985 21.913 13.7236 21.8985 13.7532 21.8822C13.8124 21.8497 13.8878 21.8111 13.9681 21.7722C14.1295 21.6939 14.3073 21.6155 14.4117 21.58C15.0639 21.3581 15.7357 21.3324 16.4202 21.5034C16.6278 21.5553 16.9814 21.6909 17.2925 21.8388C17.66 22.0135 17.8714 22.1086 18.1306 22.1638C18.3881 22.2186 18.6913 22.2337 19.242 22.2545C20.2807 22.2939 20.816 22.3149 21.1218 22.3399C21.2746 22.3524 21.3675 22.3657 21.436 22.3821C21.5033 22.3981 21.5487 22.4174 21.6071 22.4445C21.8901 22.5755 22.1291 22.805 22.2631 23.0733C22.2734 23.0939 22.2831 23.113 22.292 23.1307C22.3247 23.1952 22.3478 23.2411 22.3597 23.2762C22.3657 23.294 22.3667 23.3035 22.3667 23.3076L21.2844 25.7155ZM25.9487 22.0588C26.0347 22.0396 26.1704 22.0338 26.2453 22.0454C26.3272 22.0581 26.4527 22.1038 26.5573 22.154C26.6076 22.1781 26.6505 22.202 26.6796 22.222C26.6762 22.2244 26.6725 22.227 26.6687 22.2296C26.6301 22.2563 26.5735 22.2945 26.5014 22.3427C26.3573 22.439 26.1518 22.5747 25.9047 22.7369C25.4105 23.0611 24.7504 23.491 24.0838 23.9232C23.4171 24.3555 22.744 24.79 22.2236 25.1235C21.9634 25.2903 21.7414 25.4318 21.5776 25.5352L25.9487 22.0588Z" fill="#CE0000" stroke="#CE0000" stroke-width="0.115362"/>
</svg>
