<svg width="17" height="17" viewBox="0 0 17 17" fill="none" xmlns="http://www.w3.org/2000/svg">
<path fill-rule="evenodd" clip-rule="evenodd" d="M11.9378 0.555495C12.2031 0.621869 12.4016 0.735213 12.6016 0.934462C12.8076 1.1397 12.9322 1.36569 12.9895 1.63847C13.014 1.75483 13.0246 2.76667 13.0246 4.97921V8.15299L13.3258 8.20922C14.1938 8.37133 14.9262 8.76337 15.5609 9.40559C16.073 9.92383 16.3615 10.3883 16.5811 11.0481C17.0005 12.3084 16.8145 13.653 16.0647 14.7811C15.9783 14.911 15.7516 15.1753 15.5609 15.3683C14.9506 15.9858 14.3113 16.3395 13.4184 16.5537L13.1349 16.6217L7.60632 16.6323C3.55553 16.6401 2.02721 16.6334 1.88873 16.607C1.63291 16.5583 1.30702 16.3818 1.13647 16.1994C0.969823 16.0213 0.82356 15.7435 0.774353 15.5119C0.748837 15.3918 0.738914 13.7599 0.738914 9.6904C0.738914 4.57567 0.743702 4.02618 0.78919 3.93498C0.858559 3.79596 4.00292 0.64707 4.14773 0.571624C4.26145 0.5124 4.3667 0.510793 8.02246 0.513408C10.918 0.515487 11.8165 0.525127 11.9378 0.555495ZM4.83416 2.84313C4.83416 4.17137 4.83145 4.23576 4.77074 4.35478C4.72992 4.43482 4.66301 4.50173 4.58296 4.54256C4.46395 4.60326 4.39956 4.60597 3.07131 4.60597H1.68397V9.96255C1.68397 15.2689 1.68457 15.3203 1.74738 15.4434C1.78821 15.5235 1.85512 15.5904 1.93517 15.6312C2.05777 15.6937 2.11296 15.6946 5.95972 15.6946H9.85993L9.54072 15.3717C8.92398 14.7478 8.5321 14.0049 8.3744 13.1606L8.31817 12.8595H5.81887C3.37616 12.8595 3.31674 12.858 3.19524 12.796C3.05547 12.7247 2.94404 12.5432 2.94404 12.3869C2.94404 12.2306 3.05547 12.0491 3.19524 11.9778C3.31674 11.9159 3.37615 11.9144 5.82164 11.9144H8.32371L8.34485 11.7648C8.40842 11.3149 8.61974 10.7058 8.85266 10.3014C8.92952 10.1679 8.9924 10.051 8.9924 10.0415C8.9924 10.032 7.71601 10.0243 6.15597 10.0243C3.3754 10.0243 3.31712 10.023 3.19524 9.96088C3.05547 9.88956 2.94404 9.70808 2.94404 9.55176C2.94404 9.39545 3.05547 9.21397 3.19524 9.14265C3.31747 9.08031 3.37442 9.07924 6.59835 9.07924H9.87713L10.0412 8.95814C10.5721 8.5662 11.2956 8.26794 11.93 8.17942L12.0796 8.15853L12.0783 4.98828C12.0768 1.42504 12.0946 1.68449 11.8404 1.5306L11.7173 1.4561L8.27573 1.45594L4.83416 1.45579V2.84313ZM3.1173 2.90487L2.36176 3.66092H3.12543H3.8891V2.90487C3.8891 2.48905 3.88545 2.14883 3.88097 2.14883C3.8765 2.14883 3.53285 2.48905 3.1173 2.90487ZM10.575 6.30903C10.708 6.37924 10.8195 6.5651 10.8195 6.7166C10.8195 6.87291 10.7081 7.05439 10.5683 7.12571C10.4459 7.18815 10.3898 7.18912 6.88178 7.18912C3.37379 7.18912 3.31766 7.18815 3.19524 7.12571C3.05547 7.05439 2.94404 6.87291 2.94404 6.7166C2.94404 6.56028 3.05547 6.3788 3.19524 6.30748C3.31772 6.24501 3.37237 6.2441 6.88839 6.24545C10.3794 6.24681 10.4598 6.2482 10.575 6.30903ZM11.7951 9.1688C11.172 9.33122 10.6468 9.62614 10.2191 10.0539C9.79372 10.4792 9.5061 10.9896 9.33089 11.6299C9.27756 11.8248 9.266 11.9598 9.266 12.3869C9.266 12.954 9.29728 13.1258 9.49272 13.6322C9.7883 14.3982 10.5408 15.1507 11.3068 15.4463C11.8132 15.6418 11.985 15.673 12.5521 15.673C13.1192 15.673 13.291 15.6418 13.7974 15.4463C14.5634 15.1507 15.3159 14.3982 15.6115 13.6322C15.8035 13.1348 15.8375 12.9516 15.8401 12.4027C15.8427 11.8391 15.7902 11.5607 15.5932 11.0937C15.1605 10.0677 14.1498 9.28299 13.0404 9.11168C12.7453 9.06613 12.0703 9.0971 11.7951 9.1688ZM12.7802 10.0892C12.8521 10.1273 12.9226 10.1997 12.9613 10.2756C13.021 10.3926 13.0246 10.4601 13.0246 11.4419C13.0246 12.4241 13.021 12.4911 12.9612 12.6083C12.9204 12.6883 12.8535 12.7552 12.7734 12.796C12.6595 12.8542 12.5886 12.8595 11.9221 12.8595C11.2556 12.8595 11.1847 12.8542 11.0707 12.796C10.9309 12.7247 10.8195 12.5432 10.8195 12.3869C10.8195 12.2306 10.9309 12.0491 11.0707 11.9778C11.1778 11.9232 11.2562 11.9144 11.6373 11.9144H12.0796V11.1571C12.0796 10.4603 12.0847 10.3899 12.143 10.2755C12.2592 10.0476 12.5438 9.96447 12.7802 10.0892Z" fill="#CE0000"/>
</svg>
