<svg width="38" height="37" viewBox="0 0 38 37" fill="none" xmlns="http://www.w3.org/2000/svg">
<rect x="0.461304" y="0.561523" width="36.982" height="36" rx="10" fill="#CE0000" fill-opacity="0.05"/>
<rect x="0.961304" y="1.06152" width="35.982" height="35" rx="9.5" stroke="#CE0000" stroke-opacity="0.08"/>
<path fill-rule="evenodd" clip-rule="evenodd" d="M22.1565 10.4505C22.4249 10.5177 22.6257 10.6323 22.828 10.8339C23.0364 11.0415 23.1623 11.2701 23.2204 11.546C23.2451 11.6637 23.2559 12.6872 23.2559 14.9252V18.1356L23.5606 18.1925C24.4385 18.3564 25.1793 18.753 25.8213 19.4026C26.3394 19.9269 26.6312 20.3967 26.8533 21.0641C27.2776 22.3389 27.0895 23.699 26.331 24.8401C26.2436 24.9715 26.0143 25.2388 25.8213 25.434C25.204 26.0587 24.5574 26.4165 23.6542 26.6331L23.3674 26.7019L17.7751 26.7127C13.6776 26.7206 12.1317 26.7137 11.9916 26.6871C11.7328 26.6378 11.4032 26.4592 11.2307 26.2748C11.0621 26.0946 10.9142 25.8137 10.8644 25.5794C10.8386 25.4579 10.8285 23.8071 10.8285 19.6907C10.8285 14.517 10.8334 13.9612 10.8794 13.869C10.9496 13.7283 14.1302 10.5432 14.2767 10.4668C14.3917 10.4069 14.4981 10.4053 18.196 10.4079C21.1249 10.4101 22.0338 10.4198 22.1565 10.4505ZM14.971 12.7645C14.971 14.1081 14.9683 14.1732 14.9068 14.2936C14.8655 14.3746 14.7979 14.4422 14.7169 14.4835C14.5965 14.5449 14.5314 14.5477 13.1878 14.5477H11.7845V19.966C11.7845 25.3335 11.7851 25.3855 11.8486 25.5101C11.8899 25.591 11.9576 25.6587 12.0386 25.7C12.1626 25.7633 12.2184 25.7642 16.1095 25.7642H20.0547L19.7318 25.4376C19.108 24.8065 18.7116 24.055 18.552 23.201L18.4952 22.8963H15.9671C13.4962 22.8963 13.4361 22.8949 13.3132 22.8322C13.1718 22.76 13.0591 22.5765 13.0591 22.4183C13.0591 22.2602 13.1718 22.0767 13.3132 22.0045C13.4361 21.9418 13.4962 21.9404 15.9699 21.9404H18.5008L18.5222 21.789C18.5865 21.3339 18.8002 20.7179 19.0358 20.3088C19.1136 20.1738 19.1772 20.0555 19.1772 20.0459C19.1772 20.0363 17.8861 20.0285 16.308 20.0285C13.4954 20.0285 13.4365 20.0272 13.3132 19.9643C13.1718 19.8922 13.0591 19.7086 13.0591 19.5505C13.0591 19.3924 13.1718 19.2088 13.3132 19.1367C13.4368 19.0736 13.4944 19.0725 16.7555 19.0725H20.0721L20.2381 18.95C20.7751 18.5536 21.5069 18.2519 22.1486 18.1623L22.2999 18.1412L22.2986 14.9344C22.2971 11.3301 22.3152 11.5925 22.058 11.4369L21.9335 11.3615L18.4522 11.3613L14.971 11.3612V12.7645ZM13.2343 12.827L12.4701 13.5917H13.2426H14.015V12.827C14.015 12.4064 14.0113 12.0622 14.0068 12.0622C14.0023 12.0622 13.6547 12.4064 13.2343 12.827ZM20.778 16.2704C20.9126 16.3414 21.0253 16.5294 21.0253 16.6826C21.0253 16.8408 20.9126 17.0243 20.7713 17.0965C20.6474 17.1596 20.5906 17.1606 17.0422 17.1606C13.4938 17.1606 13.437 17.1596 13.3132 17.0965C13.1718 17.0243 13.0591 16.8408 13.0591 16.6826C13.0591 16.5245 13.1718 16.341 13.3132 16.2688C13.4371 16.2056 13.4924 16.2047 17.0489 16.2061C20.5802 16.2074 20.6615 16.2088 20.778 16.2704ZM22.0122 19.1631C21.3819 19.3274 20.8507 19.6257 20.418 20.0584C19.9877 20.4887 19.6968 21.0049 19.5196 21.6526C19.4656 21.8498 19.4539 21.9863 19.4539 22.4183C19.4539 22.992 19.4856 23.1658 19.6833 23.678C19.9822 24.4528 20.7435 25.214 21.5183 25.513C22.0305 25.7107 22.2043 25.7423 22.7779 25.7423C23.3516 25.7423 23.5253 25.7107 24.0376 25.513C24.8124 25.214 25.5736 24.4528 25.8726 23.678C26.0668 23.1749 26.1012 22.9895 26.1038 22.4343C26.1064 21.8642 26.0533 21.5826 25.854 21.1102C25.4164 20.0723 24.394 19.2786 23.2718 19.1053C22.9733 19.0593 22.2905 19.0906 22.0122 19.1631ZM23.0086 20.0942C23.0814 20.1326 23.1526 20.2059 23.1918 20.2827C23.2522 20.401 23.2559 20.4693 23.2559 21.4624C23.2559 22.4559 23.2522 22.5237 23.1917 22.6422C23.1505 22.7232 23.0828 22.7909 23.0018 22.8322C22.8865 22.891 22.8148 22.8963 22.1406 22.8963C21.4664 22.8963 21.3947 22.891 21.2794 22.8322C21.138 22.76 21.0253 22.5765 21.0253 22.4183C21.0253 22.2602 21.138 22.0767 21.2794 22.0045C21.3878 21.9493 21.4671 21.9404 21.8526 21.9404H22.2999V21.1743C22.2999 20.4695 22.3051 20.3983 22.3641 20.2826C22.4817 20.0521 22.7695 19.968 23.0086 20.0942Z" fill="#CE0000"/>
</svg>
