<svg width="14" height="16" viewBox="0 0 14 16" fill="none" xmlns="http://www.w3.org/2000/svg">
<path fill-rule="evenodd" clip-rule="evenodd" d="M4.8421 0.722854C5.36173 0.515102 5.90719 0.398273 6.56973 0.352796C6.61112 0.349963 6.79736 0.346448 6.9836 0.344979C7.67322 0.339571 8.23549 0.425041 8.84731 0.628279C9.31056 0.782162 9.5845 0.932834 9.81447 1.16022C10.1493 1.49131 10.326 1.91323 10.4078 2.57684C10.4321 2.77378 10.4374 3.76896 10.4166 4.22788C10.4053 4.47654 10.393 4.52753 10.3253 4.60661C10.3024 4.63343 10.3008 4.65601 10.3121 4.80354C10.3366 5.12384 10.2853 5.59107 10.1823 5.98516C9.94176 6.90596 9.4483 7.86861 8.90694 8.47324L8.84942 8.5375L8.93079 8.70047C9.08676 9.01283 9.27511 9.2654 9.49303 9.4544C9.73219 9.66181 9.97521 9.77933 10.3066 9.84781C11.9458 10.1865 13.0779 10.9854 13.4239 12.0475C13.4997 12.2802 13.5454 12.553 13.5454 12.7734C13.5454 13.1025 13.4546 14.2676 13.4163 14.4307C13.3422 14.746 13.0921 15.0158 12.7646 15.1338L12.6349 15.1806L7.02123 15.185C1.84018 15.189 1.39949 15.1874 1.30226 15.1643C0.940651 15.0782 0.640751 14.8068 0.541948 14.4761C0.490853 14.3052 0.406829 13.363 0.406799 12.9606C0.406739 12.1601 0.659969 11.5437 1.20631 11.0142C1.7676 10.4703 2.64357 10.0536 3.65411 9.84981C3.9806 9.78398 4.22889 9.66511 4.46789 9.46027C4.66397 9.29217 4.89139 8.99703 5.00529 8.76282L5.04686 8.67732L5.01065 8.63284C4.62591 8.16012 4.43946 7.87375 4.21884 7.4167C3.82973 6.6106 3.59675 5.57926 3.63513 4.83279C3.6452 4.63713 3.64485 4.63415 3.6065 4.57726C3.58516 4.5456 3.56027 4.49494 3.5512 4.46469C3.54056 4.42927 3.53178 4.11808 3.52656 3.59163C3.51767 2.69594 3.5257 2.5557 3.6067 2.19154C3.77518 1.4341 4.13601 1.00514 4.8421 0.722854ZM9.29408 1.33398C8.96509 1.12214 8.30208 0.920336 7.6759 0.841455C7.50627 0.82008 6.68676 0.810521 6.48696 0.827579C6.01696 0.867709 5.68642 0.93094 5.30554 1.05362C4.94629 1.16931 4.74774 1.26241 4.56636 1.40016C4.19482 1.68234 4.01081 2.1769 3.98206 2.97052C3.97252 3.23387 3.99141 4.24332 4.00614 4.25812C4.01162 4.26362 4.18432 4.2407 4.38991 4.20717C5.30506 4.05797 6.01866 3.99307 6.7441 3.99307C7.64114 3.99307 8.72612 4.08179 9.68702 4.2337L9.94483 4.27446L9.95416 4.18457C9.96962 4.03573 9.96465 2.7673 9.94808 2.62927C9.89909 2.2214 9.77948 1.85693 9.6252 1.64547C9.55355 1.54726 9.39788 1.40082 9.29408 1.33398ZM6.5796 1.88358C6.58803 1.65627 6.65132 1.54314 6.78981 1.50778C6.81775 1.50065 6.91624 1.49663 7.00866 1.49886C7.16119 1.50254 7.18222 1.50659 7.23635 1.54265C7.32819 1.60383 7.36354 1.69242 7.37194 1.88237L7.37885 2.03886H7.51761C7.72368 2.03886 7.82143 2.0822 7.87298 2.19642C7.90844 2.27502 7.91366 2.5721 7.88093 2.64909C7.82932 2.77049 7.71211 2.8266 7.51013 2.8266H7.37823L7.37206 2.98945C7.36504 3.17491 7.33592 3.25297 7.25109 3.31388C7.2047 3.34717 7.18855 3.34924 6.97491 3.34924C6.7517 3.34924 6.74712 3.34858 6.69484 3.30843C6.61005 3.24335 6.58582 3.17644 6.57986 2.99105L6.57468 2.82979L6.40552 2.82439C6.24986 2.81941 6.23126 2.81558 6.17235 2.77634C6.07457 2.71121 6.05125 2.6447 6.05084 2.42993C6.05048 2.23708 6.06166 2.18977 6.12296 2.12472C6.18733 2.05642 6.24793 2.03886 6.41937 2.03886H6.57384L6.5796 1.88358ZM7.1341 2.02495C7.1341 1.89232 7.12999 1.77302 7.12497 1.75985C7.1115 1.72452 6.84066 1.72452 6.82719 1.75985C6.82216 1.77302 6.81805 1.89216 6.81805 2.02459V2.26538L6.55844 2.26952L6.29883 2.27367L6.29454 2.42894L6.29025 2.58422L6.33217 2.58546C6.35522 2.58613 6.47228 2.58784 6.59231 2.58925L6.81053 2.59179L6.81805 2.8569L6.82558 3.12201L6.97232 3.12634C7.05303 3.12873 7.12033 3.12873 7.12191 3.12634C7.12348 3.12396 7.12857 3.00271 7.1332 2.8569L7.14163 2.59179L7.39748 2.58422L7.65333 2.57665L7.65762 2.43085C7.65977 2.35753 7.66479 2.31678 7.64689 2.29417C7.62172 2.26238 7.55121 2.26647 7.36361 2.2663L7.1341 2.26609V2.02495ZM9.54209 4.68382C8.76758 4.56502 7.97377 4.49222 7.1341 4.46296C6.8982 4.45475 6.69164 4.44934 6.67508 4.45095C6.65853 4.45257 6.57726 4.45562 6.49448 4.45775C5.92236 4.47243 5.18405 4.54898 4.45309 4.66941L4.11235 4.72557L4.10425 4.80999C4.0998 4.85644 4.10074 4.99648 4.10637 5.1212L4.10759 5.14819C4.1077 5.39071 4.14277 5.76996 4.25692 6.15978C4.26476 6.18889 4.27391 6.22309 4.28316 6.25784C4.48903 7.03078 4.93385 7.86916 5.39541 8.35415C5.79979 8.77906 6.30013 9.01168 6.85568 9.03305C7.09804 9.04238 7.29902 9.01396 7.52202 8.93885C7.81431 8.8404 8.01639 8.70667 8.31787 8.41213C8.85374 7.88858 9.27955 7.19661 9.58109 6.35926C9.58866 6.33823 9.59586 6.31768 9.6025 6.29822C9.70858 6.02161 9.79331 5.66386 9.83384 5.32097C9.83387 5.32081 9.83391 5.32066 9.83394 5.3205C9.83479 5.31644 9.83562 5.30902 9.8364 5.29877C9.83966 5.2699 9.8426 5.24116 9.84521 5.21259C9.84361 5.21194 9.842 5.21131 9.8404 5.21067C9.84206 5.15385 9.84309 5.08144 9.84309 5.00717C9.84309 4.76331 9.84056 4.73667 9.81675 4.72966C9.80228 4.7254 9.67867 4.70477 9.54209 4.68382ZM9.07154 9.69777C8.88468 9.5126 8.71828 9.28976 8.58603 9.04756C8.55575 8.99213 8.52652 8.94716 8.52108 8.94763C8.49408 8.94996 8.27457 9.06788 8.19512 9.12275C7.93091 9.3052 7.5752 9.43853 7.22893 9.48491C6.66399 9.56061 6.03757 9.4108 5.54048 9.08112C5.47933 9.04056 5.42401 9.00737 5.41755 9.00737C5.4111 9.00737 5.39075 9.03294 5.37234 9.06418C5.10199 9.5231 4.82659 9.81845 4.45705 10.0458L4.36108 10.1048L4.442 10.1799C4.55011 10.2802 4.82543 10.4848 4.97444 10.5754C5.1399 10.6761 5.41245 10.8102 5.58396 10.8754C6.90413 11.377 8.39109 11.1118 9.42922 10.1895C9.48716 10.138 9.53634 10.0878 9.53851 10.078C9.54068 10.0682 9.51591 10.045 9.48347 10.0265C9.3804 9.96756 9.19233 9.81748 9.07154 9.69777Z" fill="#1F1D66"/>
<path d="M6.56973 0.352796L6.56086 0.223158L6.56083 0.22316L6.56973 0.352796ZM4.8421 0.722854L4.89034 0.843511L4.89034 0.84351L4.8421 0.722854ZM6.9836 0.344979L6.98258 0.215042L6.98258 0.215042L6.9836 0.344979ZM8.84731 0.628279L8.80635 0.751595V0.751595L8.84731 0.628279ZM9.81447 1.16022L9.90583 1.06782L9.90583 1.06782L9.81447 1.16022ZM10.4078 2.57684L10.2788 2.59274V2.59274L10.4078 2.57684ZM10.4166 4.22788L10.5464 4.23377L10.5464 4.23376L10.4166 4.22788ZM10.3253 4.60661L10.2266 4.5221L10.2266 4.5221L10.3253 4.60661ZM10.3121 4.80354L10.4417 4.79363V4.79363L10.3121 4.80354ZM10.1823 5.98516L10.0566 5.95231L10.0566 5.95231L10.1823 5.98516ZM8.90694 8.47324L8.81013 8.38656L8.81012 8.38657L8.90694 8.47324ZM8.84942 8.5375L8.7526 8.45083L8.69374 8.51659L8.73316 8.59555L8.84942 8.5375ZM8.93079 8.70047L9.04705 8.64242V8.64242L8.93079 8.70047ZM9.49303 9.4544L9.40789 9.55257L9.4079 9.55257L9.49303 9.4544ZM10.3066 9.84781L10.3329 9.72055L10.3329 9.72055L10.3066 9.84781ZM13.4239 12.0475L13.5475 12.0072L13.5475 12.0072L13.4239 12.0475ZM13.4163 14.4307L13.5428 14.4604L13.5428 14.4604L13.4163 14.4307ZM12.7646 15.1338L12.8086 15.2561L12.8086 15.2561L12.7646 15.1338ZM12.6349 15.1806L12.635 15.3105L12.6576 15.3105L12.6789 15.3028L12.6349 15.1806ZM7.02123 15.185L7.02133 15.3149L7.02123 15.185ZM1.30226 15.1643L1.27216 15.2907L1.27216 15.2907L1.30226 15.1643ZM0.541948 14.4761L0.666448 14.4389L0.666447 14.4389L0.541948 14.4761ZM0.406799 12.9606L0.536741 12.9606L0.406799 12.9606ZM1.20631 11.0142L1.11588 10.9209H1.11588L1.20631 11.0142ZM3.65411 9.84981L3.62843 9.72243L3.62842 9.72243L3.65411 9.84981ZM4.46789 9.46027L4.55245 9.55893L4.55246 9.55892L4.46789 9.46027ZM5.00529 8.76282L5.12215 8.81965L5.12215 8.81964L5.00529 8.76282ZM5.04686 8.67732L5.16372 8.73414L5.19997 8.65958L5.14763 8.59529L5.04686 8.67732ZM5.01065 8.63284L4.90987 8.71487L4.90988 8.71488L5.01065 8.63284ZM4.21884 7.4167L4.33586 7.36022L4.33586 7.36022L4.21884 7.4167ZM3.63513 4.83279L3.50536 4.82612L3.50536 4.82612L3.63513 4.83279ZM3.6065 4.57726L3.49875 4.64989L3.49876 4.6499L3.6065 4.57726ZM3.5512 4.46469L3.67566 4.42735L3.67564 4.4273L3.5512 4.46469ZM3.52656 3.59163L3.65649 3.59034V3.59034L3.52656 3.59163ZM3.6067 2.19154L3.47986 2.16333L3.47986 2.16333L3.6067 2.19154ZM7.6759 0.841455L7.65965 0.970377L7.65966 0.970378L7.6759 0.841455ZM9.29408 1.33398L9.22374 1.44323L9.22374 1.44323L9.29408 1.33398ZM6.48696 0.827579L6.4759 0.698109L6.4759 0.698109L6.48696 0.827579ZM5.30554 1.05362L5.34537 1.1773L5.34537 1.1773L5.30554 1.05362ZM4.56636 1.40016L4.48777 1.29668L4.48777 1.29668L4.56636 1.40016ZM3.98206 2.97052L4.11192 2.97522V2.97522L3.98206 2.97052ZM4.00614 4.25812L3.91405 4.34979L3.91409 4.34983L4.00614 4.25812ZM4.38991 4.20717L4.369 4.07892L4.369 4.07893L4.38991 4.20717ZM9.68702 4.2337L9.70732 4.10535L9.70731 4.10535L9.68702 4.2337ZM9.94483 4.27446L9.92453 4.40281L10.0599 4.42422L10.0741 4.28788L9.94483 4.27446ZM9.95416 4.18457L9.82491 4.17115L9.82491 4.17116L9.95416 4.18457ZM9.94808 2.62927L10.0771 2.61378L10.0771 2.61378L9.94808 2.62927ZM9.6252 1.64547L9.73017 1.56889L9.73017 1.56888L9.6252 1.64547ZM6.78981 1.50778L6.75766 1.38188L6.75766 1.38188L6.78981 1.50778ZM6.5796 1.88358L6.70946 1.8884V1.8884L6.5796 1.88358ZM7.00866 1.49886L7.0118 1.36896L7.01179 1.36896L7.00866 1.49886ZM7.23635 1.54265L7.1643 1.65079L7.16432 1.6508L7.23635 1.54265ZM7.37194 1.88237L7.50175 1.87664V1.87663L7.37194 1.88237ZM7.37885 2.03886L7.24903 2.04459L7.25451 2.1688H7.37885V2.03886ZM7.87298 2.19642L7.99142 2.14299L7.99142 2.14297L7.87298 2.19642ZM7.88093 2.64909L7.76134 2.59824L7.76134 2.59825L7.88093 2.64909ZM7.37823 2.8266V2.69666H7.25312L7.24838 2.82168L7.37823 2.8266ZM7.37206 2.98945L7.24221 2.98454L7.24221 2.98454L7.37206 2.98945ZM7.25109 3.31388L7.32684 3.41946L7.32687 3.41944L7.25109 3.31388ZM6.69484 3.30843L6.77398 3.20537L6.77396 3.20535L6.69484 3.30843ZM6.57986 2.99105L6.44999 2.99522V2.99522L6.57986 2.99105ZM6.57468 2.82979L6.70456 2.82562L6.70065 2.70379L6.57882 2.69991L6.57468 2.82979ZM6.40552 2.82439L6.40136 2.95427L6.40138 2.95427L6.40552 2.82439ZM6.17235 2.77634L6.24439 2.66819L6.24438 2.66819L6.17235 2.77634ZM6.05084 2.42993L5.9209 2.43017V2.43017L6.05084 2.42993ZM6.12296 2.12472L6.02839 2.03561L6.02839 2.03561L6.12296 2.12472ZM6.57384 2.03886V2.1688H6.69905L6.70369 2.04368L6.57384 2.03886ZM7.12497 1.75985L7.00355 1.80614L7.00356 1.80615L7.12497 1.75985ZM6.82719 1.75985L6.9486 1.80615L6.94861 1.80614L6.82719 1.75985ZM6.81805 2.26538L6.82012 2.39531L6.948 2.39327V2.26538H6.81805ZM6.55844 2.26952L6.55637 2.13959L6.55637 2.13959L6.55844 2.26952ZM6.29883 2.27367L6.29675 2.14374L6.17238 2.14573L6.16894 2.27008L6.29883 2.27367ZM6.29454 2.42894L6.42443 2.43253L6.29454 2.42894ZM6.29025 2.58422L6.16036 2.58063L6.15678 2.71026L6.2864 2.7141L6.29025 2.58422ZM6.33217 2.58546L6.32832 2.71535L6.32841 2.71535L6.33217 2.58546ZM6.59231 2.58925L6.59078 2.71918L6.59079 2.71918L6.59231 2.58925ZM6.81053 2.59179L6.94042 2.58811L6.93688 2.46332L6.81205 2.46186L6.81053 2.59179ZM6.81805 2.8569L6.94794 2.85321L6.81805 2.8569ZM6.82558 3.12201L6.69569 3.1257L6.69917 3.24827L6.82174 3.25189L6.82558 3.12201ZM6.97232 3.12634L6.97617 2.99646L6.97615 2.99646L6.97232 3.12634ZM7.12191 3.12634L7.23035 3.19793L7.23046 3.19776L7.12191 3.12634ZM7.1332 2.8569L7.26308 2.86103V2.86103L7.1332 2.8569ZM7.14163 2.59179L7.13778 2.46191L7.01564 2.46553L7.01175 2.58767L7.14163 2.59179ZM7.39748 2.58422L7.40132 2.7141L7.39748 2.58422ZM7.65333 2.57665L7.65717 2.70653L7.77961 2.70291L7.78321 2.58047L7.65333 2.57665ZM7.65762 2.43085L7.7875 2.43467V2.43466L7.65762 2.43085ZM7.64689 2.29417L7.54501 2.37483L7.54501 2.37483L7.64689 2.29417ZM7.36361 2.2663L7.36349 2.39625H7.3635L7.36361 2.2663ZM7.1341 2.26609H7.00416V2.39591L7.13398 2.39603L7.1341 2.26609ZM7.1341 4.46296L7.13863 4.3331H7.13862L7.1341 4.46296ZM9.54209 4.68382L9.56179 4.55538H9.56179L9.54209 4.68382ZM6.67508 4.45095L6.66253 4.32162L6.66242 4.32163L6.67508 4.45095ZM6.49448 4.45775L6.49781 4.58765L6.49783 4.58765L6.49448 4.45775ZM4.45309 4.66941L4.43197 4.5412L4.43196 4.5412L4.45309 4.66941ZM4.11235 4.72557L4.09122 4.59736L3.99255 4.61362L3.983 4.71316L4.11235 4.72557ZM4.10425 4.80999L4.2336 4.8224V4.8224L4.10425 4.80999ZM4.10637 5.1212L4.23618 5.11535L4.23618 5.11534L4.10637 5.1212ZM4.10759 5.14819L4.23766 5.14813L4.2374 5.14234L4.10759 5.14819ZM4.25692 6.15978L4.38243 6.126L4.38163 6.12326L4.25692 6.15978ZM4.28316 6.25784L4.1576 6.29127L4.1576 6.29128L4.28316 6.25784ZM5.39541 8.35415L5.48954 8.26457L5.48954 8.26457L5.39541 8.35415ZM6.85568 9.03305L6.86068 8.90321L6.86068 8.9032L6.85568 9.03305ZM7.52202 8.93885L7.56349 9.062L7.56349 9.062L7.52202 8.93885ZM8.31787 8.41213L8.40868 8.50507L8.40868 8.50507L8.31787 8.41213ZM9.58109 6.35926L9.45883 6.31523V6.31524L9.58109 6.35926ZM9.6025 6.29822L9.48109 6.25166L9.47953 6.25625L9.6025 6.29822ZM9.83384 5.32097L9.70728 5.29151L9.70564 5.29855L9.70479 5.30572L9.83384 5.32097ZM9.83394 5.3205L9.70677 5.29382L9.70669 5.2942L9.83394 5.3205ZM9.8364 5.29877L9.7072 5.2842L9.70684 5.28886L9.8364 5.29877ZM9.84521 5.21259L9.97461 5.22439L9.98339 5.12815L9.89374 5.09205L9.84521 5.21259ZM9.8404 5.21067L9.71051 5.20687L9.70785 5.29774L9.79232 5.33139L9.8404 5.21067ZM9.81675 4.72966L9.85347 4.60501L9.85341 4.605L9.81675 4.72966ZM8.58603 9.04756L8.70008 8.98529L8.70007 8.98527L8.58603 9.04756ZM9.07154 9.69777L9.16301 9.60547L9.163 9.60547L9.07154 9.69777ZM8.52108 8.94763L8.50993 8.81816L8.50989 8.81817L8.52108 8.94763ZM8.19512 9.12275L8.26896 9.22967L8.26897 9.22967L8.19512 9.12275ZM7.22893 9.48491L7.21168 9.35612L7.21168 9.35612L7.22893 9.48491ZM5.54048 9.08112L5.6123 8.97283L5.6123 8.97283L5.54048 9.08112ZM5.37234 9.06418L5.26039 8.99821L5.26039 8.99823L5.37234 9.06418ZM4.45705 10.0458L4.52513 10.1564H4.52513L4.45705 10.0458ZM4.36108 10.1048L4.293 9.99411L4.14736 10.0837L4.27267 10.2L4.36108 10.1048ZM4.442 10.1799L4.3536 10.2751L4.35361 10.2752L4.442 10.1799ZM4.97444 10.5754L4.90689 10.6864L4.90691 10.6864L4.97444 10.5754ZM5.58396 10.8754L5.5378 10.9968H5.53781L5.58396 10.8754ZM9.42922 10.1895L9.34292 10.0923L9.34292 10.0923L9.42922 10.1895ZM9.53851 10.078L9.41163 10.05V10.05L9.53851 10.078ZM9.48347 10.0265L9.41897 10.1393L9.41898 10.1393L9.48347 10.0265ZM10.2384 10.3117L10.2641 10.1843L10.2641 10.1843L10.2384 10.3117ZM12.1812 11.1334L12.2593 11.0296L12.2593 11.0295L12.1812 11.1334ZM12.7356 11.7039L12.8441 11.6323L12.8441 11.6323L12.7356 11.7039ZM13.0582 12.4958L12.9302 12.5181L12.9302 12.5181L13.0582 12.4958ZM13.0416 13.5142L12.912 13.5047V13.5047L13.0416 13.5142ZM12.9432 14.3932L13.0628 14.4441L13.0628 14.4441L12.9432 14.3932ZM1.27678 14.6614L1.21908 14.7778L1.21908 14.7778L1.27678 14.6614ZM0.996877 14.3663L0.874836 14.4109L0.874846 14.4109L0.996877 14.3663ZM0.950222 14.105L0.820885 14.1175L0.820885 14.1175L0.950222 14.105ZM1.02993 12.0733L0.909489 12.0246L0.909489 12.0246L1.02993 12.0733ZM3.66824 10.3246L3.6408 10.1976L3.64079 10.1976L3.66824 10.3246ZM3.87521 10.2799L3.96657 10.1875L3.91654 10.1381L3.84776 10.1529L3.87521 10.2799ZM3.99589 10.3993L3.90452 10.4917L3.90453 10.4917L3.99589 10.3993ZM6.47943 11.5698L6.46444 11.6989H6.46444L6.47943 11.5698ZM7.41253 11.5692L7.42769 11.6982H7.42769L7.41253 11.5692ZM9.90329 10.3803L9.81032 10.2895L9.81032 10.2895L9.90329 10.3803ZM10.0508 10.2728L10.0213 10.3993L10.0214 10.3994L10.0508 10.2728ZM6.56083 0.22316C5.88724 0.269395 5.32815 0.388585 4.79386 0.602199L4.89034 0.84351C5.39531 0.641618 5.92714 0.527151 6.57863 0.482432L6.56083 0.22316ZM6.98258 0.215042C6.79811 0.216497 6.60713 0.219991 6.56086 0.223158L6.5786 0.482434C6.61511 0.479935 6.79661 0.4764 6.98463 0.474916L6.98258 0.215042ZM8.88828 0.504964C8.262 0.296925 7.68547 0.20953 6.98258 0.215042L6.98462 0.474916C7.66097 0.469612 8.20898 0.553157 8.80635 0.751595L8.88828 0.504964ZM9.90583 1.06782C9.65628 0.821069 9.36167 0.662216 8.88828 0.504964L8.80635 0.751595C9.25946 0.902109 9.51273 1.0446 9.7231 1.25262L9.90583 1.06782ZM10.5368 2.56095C10.4529 1.88023 10.2686 1.42655 9.90583 1.06782L9.7231 1.25262C10.03 1.55608 10.1992 1.94623 10.2788 2.59274L10.5368 2.56095ZM10.5464 4.23376C10.5569 4.00104 10.5608 3.63496 10.559 3.30343C10.5573 2.97573 10.55 2.66876 10.5368 2.56095L10.2788 2.59274C10.2898 2.68186 10.2974 2.97095 10.2991 3.30481C10.3009 3.63483 10.297 3.99581 10.2868 4.222L10.5464 4.23376ZM10.424 4.69111C10.4676 4.64018 10.4996 4.58969 10.5184 4.51127C10.5348 4.44337 10.5409 4.3558 10.5464 4.23377L10.2868 4.222C10.281 4.34862 10.2753 4.41087 10.2658 4.4504C10.2588 4.4794 10.2507 4.49395 10.2266 4.5221L10.424 4.69111ZM10.4417 4.79363C10.4389 4.75688 10.437 4.72945 10.436 4.70825C10.435 4.68657 10.4351 4.67485 10.4355 4.6685C10.4359 4.66262 10.4363 4.66686 10.4331 4.67516C10.4314 4.67943 10.4293 4.68334 10.4272 4.68665C10.4253 4.68971 10.4238 4.69136 10.424 4.69111L10.2266 4.5221C10.2149 4.5358 10.2011 4.55469 10.1909 4.58073C10.1813 4.60543 10.1777 4.62956 10.1762 4.65111C10.1736 4.68989 10.1772 4.74287 10.1826 4.81345L10.4417 4.79363ZM10.3081 6.01801C10.4138 5.61354 10.4675 5.13155 10.4417 4.79363L10.1826 4.81345C10.2057 5.11612 10.1569 5.56861 10.0566 5.95231L10.3081 6.01801ZM9.00375 8.55992C9.56108 7.93745 10.0632 6.95534 10.3081 6.01801L10.0566 5.95231C9.82036 6.85657 9.33552 7.79978 8.81013 8.38656L9.00375 8.55992ZM8.94624 8.62416L9.00376 8.5599L8.81012 8.38657L8.7526 8.45083L8.94624 8.62416ZM9.04705 8.64242L8.96567 8.47945L8.73316 8.59555L8.81454 8.75852L9.04705 8.64242ZM9.57817 9.35624C9.37556 9.18053 9.19695 8.94263 9.04705 8.64242L8.81454 8.75852C8.97657 9.08302 9.17465 9.35028 9.40789 9.55257L9.57817 9.35624ZM10.3329 9.72055C10.0217 9.65626 9.79937 9.54807 9.57816 9.35623L9.4079 9.55257C9.66501 9.77555 9.92869 9.90241 10.2803 9.97506L10.3329 9.72055ZM13.5475 12.0072C13.1806 10.881 11.993 10.0636 10.3329 9.72055L10.2803 9.97506C11.8986 10.3095 12.9752 11.0897 13.3004 12.0877L13.5475 12.0072ZM13.6753 12.7734C13.6753 12.5379 13.6271 12.2515 13.5475 12.0072L13.3004 12.0877C13.3724 12.3089 13.4154 12.568 13.4154 12.7734H13.6753ZM13.5428 14.4604C13.5548 14.4096 13.5683 14.2965 13.5819 14.1623C13.596 14.0237 13.611 13.8514 13.6248 13.6744C13.6522 13.3223 13.6753 12.9438 13.6753 12.7734H13.4154C13.4154 12.9322 13.3932 13.3008 13.3657 13.6542C13.352 13.83 13.3371 14.0001 13.3234 14.1361C13.3092 14.2765 13.297 14.3703 13.2898 14.401L13.5428 14.4604ZM12.8086 15.2561C13.1738 15.1245 13.4578 14.8222 13.5428 14.4604L13.2898 14.401C13.2266 14.6697 13.0104 14.9071 12.7205 15.0116L12.8086 15.2561ZM12.6789 15.3028L12.8086 15.2561L12.7205 15.0116L12.5908 15.0583L12.6789 15.3028ZM7.02133 15.3149L12.635 15.3105L12.6348 15.0506L7.02113 15.055L7.02133 15.3149ZM1.27216 15.2907C1.31238 15.3003 1.3729 15.3045 1.50509 15.3077C1.64256 15.3111 1.86994 15.3134 2.25484 15.3148C3.02516 15.3175 4.43096 15.3169 7.02133 15.3149L7.02113 15.055C4.43045 15.057 3.02538 15.0577 2.25578 15.0549C1.87074 15.0535 1.64589 15.0512 1.51148 15.0479C1.37178 15.0445 1.34075 15.0399 1.33235 15.0379L1.27216 15.2907ZM0.417447 14.5133C0.530742 14.8925 0.869671 15.1949 1.27216 15.2907L1.33235 15.0379C1.01163 14.9615 0.750759 14.7211 0.666448 14.4389L0.417447 14.5133ZM0.276858 12.9606C0.276874 13.1677 0.298313 13.5085 0.325797 13.8167C0.33959 13.9714 0.355047 14.1194 0.370373 14.2402C0.385165 14.3567 0.401071 14.4586 0.417448 14.5134L0.666447 14.4389C0.657277 14.4082 0.64352 14.3282 0.628186 14.2074C0.613386 14.0908 0.598256 13.9462 0.584652 13.7936C0.557343 13.4874 0.536755 13.1558 0.536741 12.9606L0.276858 12.9606ZM1.11588 10.9209C0.542847 11.4762 0.276795 12.127 0.276858 12.9606L0.536741 12.9606C0.536683 12.1933 0.777091 11.6111 1.29674 11.1075L1.11588 10.9209ZM3.62842 9.72243C2.60111 9.92959 1.69991 10.3549 1.11588 10.9209L1.29674 11.1075C1.83529 10.5856 2.68602 10.1776 3.67979 9.97718L3.62842 9.72243ZM4.38332 9.36161C4.16216 9.55117 3.93446 9.66073 3.62843 9.72243L3.67979 9.97718C4.02674 9.90724 4.29563 9.77906 4.55245 9.55893L4.38332 9.36161ZM4.88843 8.70599C4.78225 8.92433 4.56577 9.2052 4.38332 9.36161L4.55246 9.55892C4.76217 9.37914 5.00053 9.06972 5.12215 8.81965L4.88843 8.70599ZM4.93 8.62051L4.88843 8.70601L5.12215 8.81964L5.16372 8.73414L4.93 8.62051ZM4.90988 8.71488L4.94609 8.75936L5.14763 8.59529L5.11142 8.55081L4.90988 8.71488ZM4.10182 7.47319C4.32761 7.94096 4.51997 8.23581 4.90987 8.71487L5.11143 8.55082C4.73185 8.08443 4.55131 7.80654 4.33586 7.36022L4.10182 7.47319ZM3.50536 4.82612C3.46566 5.5983 3.70509 6.65131 4.10182 7.47319L4.33586 7.36022C3.95436 6.56989 3.72784 5.56022 3.7649 4.83947L3.50536 4.82612ZM3.49876 4.6499C3.50371 4.65724 3.50655 4.66151 3.50869 4.66498C3.51064 4.66812 3.51097 4.66893 3.51073 4.66843C3.50929 4.66533 3.50937 4.66326 3.50984 4.66746C3.51061 4.67429 3.51115 4.6874 3.5104 4.71477C3.50967 4.74155 3.50791 4.77666 3.50536 4.82612L3.7649 4.83947C3.7696 4.74805 3.77323 4.68428 3.76811 4.63851C3.76079 4.5732 3.73553 4.53619 3.71425 4.50463L3.49876 4.6499ZM3.42673 4.50203C3.44026 4.54712 3.47158 4.60957 3.49875 4.64989L3.71425 4.50463C3.69875 4.48163 3.68028 4.44276 3.67566 4.42735L3.42673 4.50203ZM3.39663 3.59291C3.39924 3.85645 3.40275 4.06677 3.40696 4.21596C3.40906 4.29044 3.41136 4.35052 3.41386 4.39471C3.41511 4.41671 3.41646 4.43582 3.41798 4.45129C3.41909 4.46258 3.42123 4.48369 3.42675 4.50208L3.67564 4.4273C3.67851 4.43684 3.67805 4.44047 3.67662 4.42591C3.6756 4.41552 3.67448 4.4004 3.67333 4.38002C3.67103 4.33944 3.66881 4.28219 3.66674 4.20863C3.66259 4.06176 3.6591 3.85326 3.65649 3.59034L3.39663 3.59291ZM3.47986 2.16333C3.39529 2.54356 3.38773 2.69725 3.39663 3.59292L3.65649 3.59034C3.6476 2.69463 3.65612 2.56783 3.73354 2.21976L3.47986 2.16333ZM4.79387 0.602198C4.42653 0.749053 4.14005 0.937758 3.92336 1.19537C3.70681 1.45281 3.56727 1.77038 3.47986 2.16333L3.73354 2.21976C3.81462 1.85526 3.93973 1.57963 4.12224 1.36266C4.3046 1.14586 4.55158 0.978942 4.89034 0.843511L4.79387 0.602198ZM7.65966 0.970378C8.27704 1.04815 8.9181 1.24643 9.22374 1.44323L9.36443 1.22473C9.01209 0.997845 8.32712 0.792522 7.69214 0.712533L7.65966 0.970378ZM6.49801 0.957049C6.59045 0.949157 6.83868 0.94709 7.09123 0.950037C7.34488 0.952997 7.5838 0.960818 7.65965 0.970377L7.69215 0.712534C7.59838 0.700718 7.34272 0.693072 7.09426 0.690173C6.8447 0.687261 6.58326 0.688943 6.4759 0.698109L6.49801 0.957049ZM5.34537 1.1773C5.71542 1.05811 6.03611 0.996488 6.49801 0.957049L6.4759 0.698109C5.99782 0.738929 5.65742 0.803767 5.2657 0.929932L5.34537 1.1773ZM4.64495 1.50365C4.80948 1.37869 4.99218 1.29105 5.34537 1.1773L5.2657 0.929931C4.90041 1.04757 4.686 1.14613 4.48777 1.29668L4.64495 1.50365ZM4.11192 2.97522C4.14021 2.1941 4.32069 1.74991 4.64495 1.50364L4.48777 1.29668C4.06895 1.61477 3.8814 2.15969 3.85221 2.96582L4.11192 2.97522ZM4.09823 4.16644C4.11245 4.18073 4.11976 4.19485 4.12251 4.20047C4.12591 4.20741 4.12793 4.21318 4.12896 4.21634C4.13102 4.22263 4.13196 4.22735 4.1322 4.22854C4.13276 4.23138 4.13277 4.23222 4.13244 4.22936C4.13186 4.2243 4.13107 4.21509 4.13016 4.20097C4.12837 4.17326 4.12651 4.13301 4.12468 4.08296C4.12102 3.98321 4.11759 3.84826 4.11492 3.70509C4.10953 3.41736 4.1073 3.10274 4.11192 2.97522L3.85221 2.96581C3.84728 3.10165 3.84972 3.42342 3.85508 3.70995C3.85777 3.85392 3.86123 3.99057 3.86497 4.09248C3.86683 4.14326 3.86879 4.18636 3.87081 4.21772C3.87181 4.23313 3.87292 4.24738 3.87424 4.25887C3.87485 4.26427 3.8758 4.27166 3.8773 4.2792C3.878 4.28274 3.87941 4.28936 3.88193 4.29707C3.88223 4.29798 3.88998 4.32562 3.91405 4.34979L4.09823 4.16644ZM4.369 4.07893C4.26709 4.09554 4.17384 4.10945 4.10588 4.11847C4.07169 4.12301 4.04506 4.12615 4.02732 4.12782C4.0181 4.12869 4.01339 4.12896 4.01196 4.129C4.0108 4.12903 4.01394 4.12886 4.0192 4.12927C4.02154 4.12946 4.02833 4.13003 4.03708 4.13211C4.03915 4.1326 4.0707 4.13881 4.0982 4.16641L3.91409 4.34983C3.94193 4.37777 3.97415 4.38427 3.97721 4.385C3.98694 4.3873 3.99504 4.38806 3.99899 4.38837C4.00748 4.38903 4.0151 4.3889 4.01959 4.38877C4.02945 4.38848 4.04073 4.38759 4.05168 4.38656C4.0743 4.38443 4.10472 4.38078 4.14008 4.37609C4.21124 4.36664 4.30714 4.35233 4.41083 4.33542L4.369 4.07893ZM6.7441 3.86313C6.01004 3.86313 5.28926 3.92889 4.369 4.07892L4.41082 4.33542C5.32085 4.18705 6.02728 4.12301 6.7441 4.12301V3.86313ZM9.70731 4.10535C8.74025 3.95247 7.64847 3.86313 6.7441 3.86313V4.12301C7.6338 4.12301 8.71198 4.21111 9.66673 4.36205L9.70731 4.10535ZM9.96512 4.14612L9.70732 4.10535L9.66673 4.36205L9.92453 4.40281L9.96512 4.14612ZM9.82491 4.17116L9.81558 4.26105L10.0741 4.28788L10.0834 4.19799L9.82491 4.17116ZM9.81907 2.64476C9.82222 2.67103 9.82566 2.76789 9.82827 2.91195C9.83081 3.0518 9.8325 3.2273 9.83319 3.40337C9.83459 3.76108 9.83171 4.10567 9.82491 4.17115L10.0834 4.19799C10.0921 4.11463 10.0944 3.75058 10.0931 3.40236C10.0924 3.22547 10.0907 3.04868 10.0881 2.90723C10.0856 2.76998 10.0822 2.65653 10.0771 2.61378L9.81907 2.64476ZM9.52022 1.72206C9.65597 1.90812 9.77136 2.24758 9.81907 2.64477L10.0771 2.61378C10.0268 2.19523 9.90298 1.80575 9.73017 1.56889L9.52022 1.72206ZM9.22374 1.44323C9.31429 1.50154 9.45815 1.63697 9.52023 1.72206L9.73017 1.56888C9.64894 1.45755 9.48148 1.30009 9.36443 1.22473L9.22374 1.44323ZM6.75766 1.38188C6.65623 1.40778 6.57523 1.46604 6.52253 1.56027C6.47363 1.64769 6.45427 1.75689 6.44975 1.87877L6.70946 1.8884C6.71337 1.78296 6.72986 1.72195 6.74934 1.68713C6.76501 1.65912 6.78489 1.64315 6.82195 1.63368L6.75766 1.38188ZM7.01179 1.36896C6.96288 1.36778 6.91234 1.36824 6.86976 1.36998C6.83272 1.37149 6.78715 1.37435 6.75766 1.38188L6.82195 1.63368C6.81823 1.63464 6.82081 1.63374 6.83471 1.63246C6.84645 1.63138 6.86194 1.63039 6.88035 1.62964C6.9171 1.62814 6.96202 1.62771 7.00553 1.62876L7.01179 1.36896ZM7.3084 1.43452C7.27387 1.41151 7.23861 1.39152 7.18395 1.38101C7.14005 1.37256 7.08478 1.37072 7.0118 1.36896L7.00553 1.62876C7.08507 1.63068 7.11658 1.6327 7.13486 1.63621C7.14238 1.63766 7.1447 1.63773 7.1643 1.65079L7.3084 1.43452ZM7.50175 1.87663C7.49734 1.77685 7.48559 1.68991 7.45612 1.61605C7.42451 1.53685 7.37512 1.47896 7.30839 1.43451L7.16432 1.6508C7.18942 1.66752 7.20362 1.68451 7.21475 1.71238C7.22801 1.7456 7.23814 1.79794 7.24212 1.88811L7.50175 1.87663ZM7.50866 2.03313L7.50175 1.87664L7.24212 1.8881L7.24903 2.04459L7.50866 2.03313ZM7.51761 1.90892H7.37885V2.1688H7.51761V1.90892ZM7.99142 2.14297C7.95372 2.05944 7.89437 1.99524 7.80591 1.95602C7.72439 1.91988 7.62674 1.90892 7.51761 1.90892V2.1688C7.61454 2.1688 7.66881 2.17951 7.70057 2.1936C7.7254 2.2046 7.74069 2.21918 7.75454 2.24987L7.99142 2.14297ZM8.00051 2.69993C8.01738 2.66025 8.02427 2.60922 8.02791 2.56848C8.03196 2.52299 8.03333 2.47144 8.03245 2.42108C8.03156 2.3707 8.02838 2.3191 8.02274 2.27352C8.01763 2.23226 8.00899 2.18192 7.99142 2.14299L7.75453 2.24986C7.75368 2.24797 7.75533 2.25136 7.75793 2.26318C7.7603 2.27395 7.76268 2.28813 7.76483 2.30544C7.76911 2.34007 7.77184 2.3823 7.7726 2.42564C7.77336 2.46899 7.77211 2.51106 7.76905 2.54539C7.76557 2.58445 7.76084 2.59943 7.76134 2.59824L8.00051 2.69993ZM7.51013 2.95654C7.62132 2.95654 7.72275 2.9414 7.80803 2.90058C7.8974 2.85779 7.96226 2.7899 8.00051 2.69992L7.76134 2.59825C7.74798 2.62968 7.72844 2.65055 7.69581 2.66617C7.65908 2.68375 7.60092 2.69666 7.51013 2.69666V2.95654ZM7.37823 2.95654H7.51013V2.69666H7.37823V2.95654ZM7.50191 2.99437L7.50808 2.83152L7.24838 2.82168L7.24221 2.98454L7.50191 2.99437ZM7.32687 3.41944C7.38816 3.37543 7.43388 3.32055 7.46251 3.24377C7.48877 3.17336 7.49827 3.09043 7.50191 2.99437L7.24221 2.98454C7.23883 3.07393 7.23027 3.12276 7.219 3.15297C7.21011 3.17681 7.19885 3.19142 7.1753 3.20833L7.32687 3.41944ZM6.97491 3.47918C7.07769 3.47918 7.14539 3.47893 7.19222 3.47293C7.21863 3.46955 7.2441 3.46381 7.2696 3.45289C7.2944 3.44226 7.31343 3.42909 7.32684 3.41946L7.17533 3.20831C7.16556 3.21533 7.16517 3.2149 7.16722 3.21402C7.16996 3.21284 7.16935 3.21386 7.15922 3.21516C7.13297 3.21852 7.08577 3.2193 6.97491 3.2193V3.47918ZM6.61571 3.4115C6.62753 3.42058 6.64683 3.43564 6.67055 3.44766C6.69712 3.46112 6.72374 3.46835 6.75204 3.47247C6.79951 3.47939 6.86907 3.47918 6.97491 3.47918V3.2193C6.85754 3.2193 6.8132 3.21876 6.78951 3.21531C6.78223 3.21425 6.78395 3.21378 6.78798 3.21582C6.78918 3.21643 6.78829 3.21636 6.77398 3.20537L6.61571 3.4115ZM6.44999 2.99522C6.45302 3.08966 6.46073 3.17042 6.48562 3.23911C6.51324 3.31537 6.55825 3.3674 6.61572 3.41151L6.77396 3.20535C6.74664 3.18439 6.73714 3.17042 6.72996 3.1506C6.72004 3.12322 6.71266 3.07783 6.70973 2.98687L6.44999 2.99522ZM6.44481 2.83395L6.44999 2.99522L6.70973 2.98688L6.70456 2.82562L6.44481 2.83395ZM6.40138 2.95427L6.57054 2.95966L6.57882 2.69991L6.40966 2.69452L6.40138 2.95427ZM6.10032 2.88449C6.13531 2.90779 6.17102 2.92906 6.22643 2.94048C6.27117 2.9497 6.32722 2.95189 6.40136 2.95427L6.40968 2.69452C6.32816 2.69191 6.29708 2.68969 6.27888 2.68594C6.27135 2.68439 6.2683 2.68412 6.24439 2.66819L6.10032 2.88449ZM5.9209 2.43017C5.9211 2.53747 5.92634 2.62777 5.95246 2.70226C5.98242 2.78765 6.03514 2.84107 6.10032 2.88449L6.24438 2.66819C6.21179 2.64648 6.20396 2.63408 6.1977 2.61624C6.18761 2.58749 6.18098 2.53715 6.18078 2.42968L5.9209 2.43017ZM6.02839 2.03561C5.98645 2.08011 5.95427 2.12779 5.93732 2.19952C5.92288 2.26061 5.92072 2.33547 5.9209 2.43017L6.18078 2.42969C6.1806 2.33154 6.18385 2.28632 6.19024 2.25928C6.19411 2.24288 6.19816 2.23439 6.21753 2.21384L6.02839 2.03561ZM6.41937 1.90892C6.33244 1.90892 6.25849 1.91293 6.19486 1.93137C6.12378 1.95196 6.07326 1.98799 6.02839 2.03561L6.21753 2.21384C6.23702 2.19315 6.24899 2.18625 6.26717 2.18099C6.29279 2.17356 6.33486 2.1688 6.41937 2.1688V1.90892ZM6.57384 1.90892H6.41937V2.1688H6.57384V1.90892ZM6.44975 1.87876L6.44399 2.03404L6.70369 2.04368L6.70946 1.8884L6.44975 1.87876ZM7.00356 1.80615C6.99771 1.79083 6.99699 1.77866 6.99785 1.78558C6.99806 1.78723 6.99844 1.79102 6.99891 1.79754C6.99984 1.81033 7.00075 1.8288 7.00156 1.85208C7.00315 1.89835 7.00416 1.9598 7.00416 2.02495H7.26404C7.26404 1.95747 7.263 1.89297 7.26128 1.84313C7.26043 1.81835 7.25938 1.79624 7.25812 1.77881C7.2575 1.77022 7.25674 1.76149 7.25576 1.75358C7.25543 1.75093 7.25348 1.73215 7.24638 1.71354L7.00356 1.80615ZM6.94861 1.80614C6.93675 1.83723 6.91614 1.8537 6.90772 1.85966C6.89832 1.86633 6.89095 1.86915 6.88943 1.86973C6.88629 1.87092 6.8882 1.86986 6.89811 1.86827C6.91662 1.8653 6.94482 1.86329 6.97608 1.86329C7.00734 1.86329 7.03554 1.8653 7.05405 1.86827C7.06396 1.86986 7.06587 1.87092 7.06273 1.86973C7.06121 1.86915 7.05384 1.86633 7.04443 1.85966C7.03602 1.8537 7.01541 1.83723 7.00355 1.80614L7.24638 1.71355C7.23284 1.67804 7.20854 1.65743 7.19467 1.64761C7.17981 1.63708 7.16523 1.63066 7.15499 1.62678C7.13441 1.61896 7.11284 1.6145 7.09526 1.61168C7.05877 1.60582 7.0159 1.60341 6.97608 1.60341C6.93626 1.60341 6.89338 1.60582 6.8569 1.61168C6.83932 1.6145 6.81775 1.61896 6.79717 1.62678C6.78693 1.63066 6.77235 1.63708 6.75749 1.64761C6.74362 1.65743 6.71931 1.67804 6.70577 1.71355L6.94861 1.80614ZM6.948 2.02459C6.948 1.95954 6.94901 1.89818 6.9506 1.85198C6.9514 1.82874 6.95232 1.8103 6.95324 1.79753C6.95372 1.79101 6.9541 1.78723 6.9543 1.78559C6.95516 1.77869 6.95444 1.79084 6.9486 1.80615L6.70578 1.71354C6.69868 1.73214 6.69673 1.7509 6.6964 1.75356C6.69542 1.76147 6.69466 1.77019 6.69404 1.77877C6.69278 1.79618 6.69173 1.81827 6.69087 1.84302C6.68916 1.89279 6.68811 1.9572 6.68811 2.02459H6.948ZM6.948 2.26538V2.02459H6.68811V2.26538H6.948ZM6.56051 2.39944L6.82012 2.39531L6.81599 2.13546L6.55637 2.13959L6.56051 2.39944ZM6.30091 2.40359L6.56052 2.39944L6.55637 2.13959L6.29675 2.14374L6.30091 2.40359ZM6.42443 2.43253L6.42872 2.27725L6.16894 2.27008L6.16465 2.42536L6.42443 2.43253ZM6.42015 2.58781L6.42443 2.43253L6.16465 2.42536L6.16036 2.58063L6.42015 2.58781ZM6.33602 2.45558L6.2941 2.45434L6.2864 2.7141L6.32832 2.71535L6.33602 2.45558ZM6.59383 2.45932C6.47322 2.4579 6.35757 2.4562 6.33592 2.45558L6.32841 2.71535C6.35287 2.71606 6.47134 2.71778 6.59078 2.71918L6.59383 2.45932ZM6.81205 2.46186L6.59382 2.45932L6.59079 2.71918L6.80901 2.72173L6.81205 2.46186ZM6.94794 2.85321L6.94042 2.58811L6.68064 2.59548L6.68817 2.86059L6.94794 2.85321ZM6.95547 3.11832L6.94794 2.85321L6.68817 2.86059L6.69569 3.1257L6.95547 3.11832ZM6.97615 2.99646L6.82941 2.99212L6.82174 3.25189L6.96848 3.25623L6.97615 2.99646ZM7.01347 3.05475C7.02722 3.03393 7.04353 3.02226 7.05172 3.01702C7.06084 3.01118 7.06884 3.00769 7.07351 3.00583C7.08275 3.00215 7.09027 3.00044 7.09314 2.99981C7.09954 2.99841 7.10427 2.99795 7.10485 2.99789C7.10698 2.99766 7.10727 2.99772 7.10424 2.99784C7.09891 2.99805 7.08976 2.99819 7.07679 2.99819C7.0513 2.99819 7.01563 2.99763 6.97617 2.99646L6.96846 3.25622C7.00972 3.25745 7.04806 3.25808 7.07679 3.25808C7.09093 3.25808 7.10394 3.25793 7.11421 3.25753C7.11896 3.25735 7.1254 3.25704 7.13183 3.25636C7.13457 3.25608 7.14098 3.25537 7.14858 3.25371C7.15204 3.25295 7.16004 3.2511 7.16963 3.24729C7.17191 3.24638 7.20639 3.23423 7.23035 3.19793L7.01347 3.05475ZM7.00332 2.85277C7.00102 2.92537 6.9986 2.99168 6.99658 3.03997C6.99556 3.06419 6.99466 3.08346 6.99394 3.0966C6.99357 3.1033 6.99329 3.10764 6.99311 3.10998C6.993 3.11135 6.99302 3.11082 6.9932 3.1093C6.99326 3.10877 6.99358 3.10603 6.99426 3.10234C6.99457 3.10062 6.99534 3.09663 6.99672 3.0916C6.99699 3.09063 7.00125 3.07332 7.01336 3.05492L7.23046 3.19776C7.24262 3.17928 7.24693 3.16184 7.24725 3.16069C7.24869 3.15547 7.24951 3.15123 7.24988 3.1492C7.25067 3.14491 7.25111 3.14134 7.25129 3.13975C7.25172 3.13612 7.25201 3.1326 7.25221 3.13014C7.25262 3.12483 7.25303 3.11816 7.25343 3.11088C7.25425 3.09606 7.2552 3.07547 7.25623 3.05085C7.2583 3.00146 7.26075 2.93424 7.26308 2.86103L7.00332 2.85277ZM7.01175 2.58767L7.00332 2.85277L7.26308 2.86103L7.2715 2.59592L7.01175 2.58767ZM7.39363 2.45434L7.13778 2.46191L7.14547 2.72168L7.40132 2.7141L7.39363 2.45434ZM7.64948 2.44676L7.39363 2.45434L7.40132 2.7141L7.65717 2.70653L7.64948 2.44676ZM7.52773 2.42703L7.52344 2.57282L7.78321 2.58047L7.7875 2.43467L7.52773 2.42703ZM7.54501 2.37483C7.53532 2.36259 7.53157 2.3512 7.53027 2.34592C7.5292 2.34159 7.52968 2.34096 7.5299 2.34767C7.53011 2.35415 7.52998 2.36316 7.5295 2.37732C7.52908 2.38966 7.52827 2.40878 7.52773 2.42704L7.7875 2.43466C7.78837 2.40503 7.79053 2.36676 7.78964 2.33932C7.78878 2.31234 7.78526 2.25961 7.74877 2.21352L7.54501 2.37483ZM7.3635 2.39625C7.46195 2.39633 7.51892 2.39544 7.55745 2.39803C7.57618 2.39929 7.58118 2.40094 7.57961 2.40045C7.57609 2.39935 7.55959 2.39324 7.54501 2.37483L7.74877 2.21352C7.69659 2.1476 7.61464 2.1414 7.57487 2.13873C7.52495 2.13538 7.45287 2.13644 7.36373 2.13636L7.3635 2.39625ZM7.13398 2.39603L7.36349 2.39625L7.36373 2.13636L7.13422 2.13615L7.13398 2.39603ZM7.00416 2.02495V2.26609H7.26404V2.02495H7.00416ZM7.12958 4.59283C7.96452 4.62191 8.75325 4.69428 9.52239 4.81226L9.56179 4.55538C8.78191 4.43576 7.98301 4.36252 7.13863 4.3331L7.12958 4.59283ZM6.68763 4.58028C6.68236 4.58079 6.68815 4.58043 6.71852 4.58092C6.74327 4.58132 6.77752 4.58209 6.81893 4.58317C6.90168 4.58534 7.01191 4.58873 7.12958 4.59283L7.13862 4.3331C7.02039 4.32899 6.90939 4.32557 6.82573 4.32338C6.78395 4.32228 6.74872 4.32149 6.72271 4.32107C6.70232 4.32074 6.67608 4.3203 6.66253 4.32162L6.68763 4.58028ZM6.49783 4.58765C6.57814 4.58558 6.66533 4.58247 6.68774 4.58027L6.66242 4.32163C6.6628 4.32159 6.66165 4.3217 6.65803 4.32192C6.65479 4.32212 6.65051 4.32235 6.6452 4.32261C6.63461 4.32312 6.62083 4.3237 6.60473 4.32431C6.57257 4.32552 6.53208 4.3268 6.49113 4.32785L6.49783 4.58765ZM4.47422 4.79763C5.20091 4.6779 5.93309 4.60214 6.49781 4.58765L6.49115 4.32785C5.91163 4.34272 5.1672 4.42006 4.43197 4.5412L4.47422 4.79763ZM4.13348 4.85378L4.47422 4.79762L4.43196 4.5412L4.09122 4.59736L4.13348 4.85378ZM4.2336 4.8224L4.2417 4.73798L3.983 4.71316L3.9749 4.79759L4.2336 4.8224ZM4.23618 5.11534C4.23052 4.98988 4.23014 4.8585 4.2336 4.8224L3.9749 4.79759C3.96946 4.85439 3.97097 5.00307 3.97656 5.12706L4.23618 5.11534ZM4.2374 5.14234L4.23618 5.11535L3.97656 5.12705L3.97778 5.15404L4.2374 5.14234ZM4.38163 6.12326C4.27145 5.74704 4.23764 5.38028 4.23753 5.14813L3.97765 5.14826C3.97777 5.40113 4.01408 5.79289 4.13222 6.1963L4.38163 6.12326ZM4.40873 6.22441C4.39945 6.18955 4.39027 6.15525 4.3824 6.12601L4.13145 6.19355C4.13925 6.22254 4.14837 6.25662 4.1576 6.29127L4.40873 6.22441ZM5.48954 8.26457C5.04567 7.79816 4.61008 6.98038 4.40873 6.2244L4.1576 6.29128C4.36799 7.08119 4.82203 7.94015 5.30129 8.44373L5.48954 8.26457ZM6.86068 8.9032C6.34095 8.88321 5.87201 8.66646 5.48954 8.26457L5.30129 8.44373C5.72757 8.89167 6.2593 9.14014 6.85068 9.1629L6.86068 8.9032ZM7.48054 8.81571C7.27296 8.88563 7.08776 8.91195 6.86068 8.90321L6.85068 9.1629C7.10833 9.17282 7.32508 9.1423 7.56349 9.062L7.48054 8.81571ZM8.22707 8.31918C7.93471 8.6048 7.74885 8.72534 7.48054 8.81571L7.56349 9.062C7.87978 8.95546 8.09807 8.80853 8.40868 8.50507L8.22707 8.31918ZM9.45883 6.31524C9.16271 7.13755 8.74649 7.8117 8.22706 8.31918L8.40868 8.50507C8.96099 7.96546 9.39639 7.25567 9.70334 6.40329L9.45883 6.31524ZM9.47953 6.25625C9.47313 6.27501 9.46617 6.29487 9.45883 6.31523L9.70334 6.40329C9.71116 6.38158 9.7186 6.36035 9.72548 6.34018L9.47953 6.25625ZM9.70479 5.30572C9.66533 5.6396 9.58283 5.98663 9.48118 6.25169L9.72383 6.34475C9.83434 6.05659 9.92129 5.68811 9.96288 5.33623L9.70479 5.30572ZM9.70669 5.2942C9.707 5.29268 9.70728 5.29151 9.70728 5.29151L9.96039 5.35044C9.96047 5.35011 9.96081 5.34864 9.96119 5.3468L9.70669 5.2942ZM9.70684 5.28886C9.70652 5.29304 9.70626 5.2958 9.70608 5.29739C9.70599 5.29815 9.70596 5.2983 9.70601 5.29795C9.70605 5.29773 9.70627 5.2962 9.70677 5.29382L9.96111 5.34718C9.96393 5.33374 9.96522 5.31838 9.96597 5.30868L9.70684 5.28886ZM9.7158 5.20078C9.71328 5.22841 9.71044 5.25623 9.70728 5.28421L9.96553 5.31334C9.96888 5.28357 9.97192 5.25391 9.97461 5.22439L9.7158 5.20078ZM9.79232 5.33139C9.79413 5.33211 9.79537 5.3326 9.79667 5.33312L9.89374 5.09205C9.89185 5.09129 9.88988 5.09051 9.88848 5.08995L9.79232 5.33139ZM9.71315 5.00717C9.71315 5.08037 9.71213 5.1515 9.71051 5.20687L9.97028 5.21447C9.97199 5.1562 9.97303 5.0825 9.97303 5.00717H9.71315ZM9.78004 4.85431C9.77248 4.85208 9.75834 4.84688 9.74361 4.83511C9.72856 4.82309 9.71944 4.80947 9.7143 4.79901C9.70669 4.78353 9.70785 4.77462 9.70949 4.79187C9.71237 4.82222 9.71315 4.88226 9.71315 5.00717H9.97303C9.97303 4.88822 9.97255 4.81301 9.96821 4.76732C9.96624 4.74655 9.96231 4.71443 9.94753 4.68436C9.9388 4.66661 9.92557 4.64785 9.90583 4.63208C9.88641 4.61656 9.86698 4.60899 9.85347 4.60501L9.78004 4.85431ZM9.52239 4.81226C9.59023 4.82266 9.6547 4.83297 9.70382 4.84117C9.72843 4.84527 9.74883 4.84879 9.76373 4.8515C9.78266 4.85494 9.78477 4.8557 9.7801 4.85432L9.85341 4.605C9.8415 4.6015 9.82272 4.59808 9.81014 4.5958C9.79353 4.59278 9.77178 4.58903 9.7466 4.58483C9.69615 4.57641 9.63053 4.56592 9.56179 4.55538L9.52239 4.81226ZM8.47198 9.10983C8.60997 9.36255 8.78385 9.59562 8.98008 9.79007L9.163 9.60547C8.98551 9.42959 8.82658 9.21698 8.70008 8.98529L8.47198 9.10983ZM8.53222 9.07709C8.50948 9.07905 8.49118 9.07458 8.48004 9.07081C8.46864 9.06696 8.46004 9.06225 8.45478 9.05904C8.44459 9.05284 8.43785 9.04669 8.43533 9.04432C8.43219 9.04137 8.43007 9.03903 8.42915 9.038C8.42813 9.03684 8.42754 9.0361 8.42746 9.036C8.42735 9.03586 8.42803 9.03672 8.42959 9.03894C8.43107 9.04106 8.43297 9.04388 8.43529 9.04744C8.44481 9.0621 8.45799 9.08422 8.472 9.10986L8.70007 8.98527C8.68379 8.95547 8.66721 8.92739 8.65319 8.90582C8.64645 8.89544 8.63877 8.88421 8.63107 8.8745C8.62759 8.87011 8.62129 8.86242 8.61305 8.8547C8.60915 8.85105 8.60119 8.84392 8.58996 8.83709C8.58283 8.83274 8.5526 8.81449 8.50993 8.81816L8.53222 9.07709ZM8.26897 9.22967C8.3024 9.20658 8.37179 9.1662 8.43926 9.12995C8.4723 9.11221 8.50281 9.09656 8.52595 9.0855C8.53767 9.0799 8.54618 9.07611 8.55153 9.07394C8.55426 9.07283 8.55483 9.07268 8.5538 9.07302C8.55324 9.0732 8.5514 9.07378 8.5486 9.07446C8.54627 9.07503 8.54035 9.07639 8.53226 9.07708L8.50989 8.81817C8.49287 8.81964 8.47888 8.82411 8.47388 8.82573C8.46662 8.82808 8.45963 8.83076 8.45362 8.8332C8.44149 8.83814 8.4278 8.84437 8.4139 8.85101C8.38581 8.86444 8.35142 8.88214 8.31627 8.90102C8.24738 8.93803 8.16729 8.98405 8.12128 9.01583L8.26897 9.22967ZM7.24619 9.6137C7.61095 9.56484 7.98642 9.42478 8.26896 9.22967L8.12129 9.01582C7.8754 9.18562 7.53945 9.31221 7.21168 9.35612L7.24619 9.6137ZM5.46866 9.18941C5.99064 9.53561 6.6485 9.69379 7.24619 9.6137L7.21168 9.35612C6.67947 9.42743 6.08449 9.286 5.6123 8.97283L5.46866 9.18941ZM5.41755 9.13731C5.40507 9.13731 5.39541 9.13547 5.39081 9.13447C5.38554 9.13333 5.38143 9.13207 5.37899 9.13128C5.37421 9.12972 5.37092 9.12828 5.36999 9.12788C5.36794 9.12698 5.36762 9.12672 5.36992 9.12795C5.3741 9.13017 5.38135 9.13428 5.39166 9.14047C5.4119 9.15261 5.43932 9.16995 5.46866 9.18941L5.6123 8.97283C5.58049 8.95173 5.54968 8.9322 5.52536 8.91761C5.51338 8.91043 5.50177 8.90371 5.49185 8.89844C5.4871 8.89592 5.48092 8.89275 5.47437 8.88988C5.47119 8.88848 5.46599 8.8863 5.45966 8.88423C5.45669 8.88326 5.43967 8.87743 5.41755 8.87743V9.13731ZM5.48429 9.13015C5.49109 9.11861 5.49742 9.10961 5.5011 9.10498C5.50325 9.10228 5.50243 9.10368 5.49884 9.10702C5.49722 9.10852 5.49195 9.11334 5.48363 9.11856C5.47934 9.12126 5.47223 9.12534 5.46272 9.12899C5.45363 9.13248 5.43786 9.13731 5.41755 9.13731V8.87743C5.37914 8.87743 5.35227 8.89418 5.34539 8.8985C5.33465 8.90525 5.32659 8.91231 5.32187 8.9167C5.31207 8.92581 5.3038 8.93555 5.29775 8.94315C5.28505 8.95911 5.272 8.97851 5.26039 8.99821L5.48429 9.13015ZM4.52513 10.1564C4.91639 9.91577 5.2056 9.60322 5.4843 9.13014L5.26039 8.99823C4.99837 9.44299 4.73679 9.72113 4.38897 9.93508L4.52513 10.1564ZM4.42916 10.2155L4.52513 10.1564L4.38897 9.93508L4.293 9.99411L4.42916 10.2155ZM4.53041 10.0847L4.44948 10.0096L4.27267 10.2L4.3536 10.2751L4.53041 10.0847ZM5.04198 10.4644C4.89912 10.3775 4.63106 10.1781 4.5304 10.0847L4.35361 10.2752C4.46915 10.3824 4.75174 10.592 4.90689 10.6864L5.04198 10.4644ZM5.63012 10.7539C5.46644 10.6917 5.20101 10.5612 5.04197 10.4644L4.90691 10.6864C5.07878 10.791 5.35847 10.9287 5.5378 10.9968L5.63012 10.7539ZM9.34292 10.0923C8.34173 10.9818 6.90601 11.2387 5.63011 10.7539L5.53781 10.9968C6.90224 11.5153 8.44044 11.2417 9.51552 10.2866L9.34292 10.0923ZM9.41163 10.05C9.41526 10.0336 9.4213 10.0222 9.4231 10.0188C9.42564 10.0141 9.42783 10.0109 9.42867 10.0097C9.43038 10.0072 9.43103 10.0066 9.42945 10.0084C9.42655 10.0119 9.42086 10.0181 9.41202 10.0271C9.39469 10.0448 9.37013 10.0681 9.34292 10.0923L9.51552 10.2866C9.54625 10.2593 9.57526 10.2318 9.59754 10.2091C9.60851 10.1979 9.61914 10.1866 9.62789 10.1763C9.63213 10.1712 9.63743 10.1647 9.64246 10.1574C9.64377 10.1555 9.65902 10.1349 9.66539 10.1061L9.41163 10.05ZM9.41898 10.1393C9.42322 10.1417 9.42702 10.1442 9.4301 10.1464C9.43161 10.1475 9.43283 10.1485 9.43374 10.1492C9.43419 10.1496 9.43453 10.1499 9.43478 10.1501C9.4349 10.1502 9.43499 10.1503 9.43506 10.1503C9.43509 10.1503 9.43511 10.1504 9.43513 10.1504C9.43514 10.1504 9.43515 10.1504 9.43515 10.1504C9.43515 10.1504 9.43514 10.1504 9.43512 10.1504C9.43511 10.1504 9.43508 10.1503 9.43505 10.1503C9.43498 10.1502 9.43487 10.1501 9.43472 10.15C9.43444 10.1497 9.43396 10.1492 9.43332 10.1485C9.43221 10.1472 9.42974 10.1443 9.42679 10.1398C9.42413 10.1358 9.4189 10.1272 9.41476 10.1147C9.41081 10.1027 9.40518 10.0792 9.41163 10.05L9.66539 10.1061C9.67818 10.0482 9.64919 10.005 9.64399 9.99711C9.63368 9.98142 9.62176 9.9691 9.61278 9.9607C9.59402 9.94313 9.57112 9.92693 9.54797 9.9137L9.41898 10.1393ZM8.98007 9.79007C9.10576 9.91463 9.30282 10.0729 9.41897 10.1393L9.54798 9.9137C9.45797 9.86223 9.2789 9.72033 9.16301 9.60547L8.98007 9.79007ZM10.2127 10.4391C10.942 10.5862 11.6222 10.8753 12.103 11.2372L12.2593 11.0295C11.7415 10.6399 11.0234 10.3376 10.2641 10.1843L10.2127 10.4391ZM12.103 11.2372C12.1835 11.2978 12.2918 11.3972 12.3936 11.5019C12.4962 11.6075 12.5839 11.71 12.6272 11.7755L12.8441 11.6323C12.787 11.546 12.6856 11.4294 12.58 11.3208C12.4736 11.2113 12.3548 11.1014 12.2593 11.0296L12.103 11.2372ZM12.6272 11.7755C12.7912 12.0238 12.8839 12.2525 12.9302 12.5181L13.1862 12.4735C13.1332 12.1697 13.0261 11.9078 12.8441 11.6323L12.6272 11.7755ZM12.9302 12.5181C12.955 12.6604 12.9517 12.9639 12.912 13.5047L13.1712 13.5237C13.2103 12.9907 13.2175 12.6534 13.1862 12.4735L12.9302 12.5181ZM12.912 13.5047C12.8911 13.7885 12.8741 13.9888 12.8587 14.1262C12.851 14.1949 12.8439 14.2463 12.8373 14.2836C12.834 14.3022 12.831 14.3163 12.8283 14.3267C12.827 14.3318 12.8259 14.3357 12.825 14.3384C12.8241 14.3412 12.8236 14.3424 12.8237 14.3423L13.0628 14.4441C13.0763 14.4123 13.0855 14.372 13.0932 14.3291C13.1012 14.2839 13.109 14.2263 13.117 14.1551C13.133 14.0124 13.1503 13.808 13.1712 13.5237L12.912 13.5047ZM12.8237 14.3423C12.7855 14.4319 12.6739 14.5338 12.5636 14.5703L12.6452 14.817C12.8196 14.7593 12.9927 14.6087 13.0628 14.4441L12.8237 14.3423ZM1.43456 14.5945L1.33447 14.5449L1.21908 14.7778L1.31918 14.8274L1.43456 14.5945ZM1.33447 14.5449C1.23572 14.496 1.14687 14.3981 1.11891 14.3216L0.874846 14.4109C0.929203 14.5595 1.07041 14.7041 1.21908 14.7778L1.33447 14.5449ZM1.11892 14.3217C1.10901 14.2945 1.08911 14.1911 1.07956 14.0925L0.820885 14.1175C0.830693 14.2188 0.852779 14.3506 0.874836 14.4109L1.11892 14.3217ZM1.07956 14.0925C0.963657 12.8948 0.983655 12.5337 1.15036 12.1221L0.909489 12.0246C0.716023 12.5022 0.705319 12.9233 0.820885 14.1175L1.07956 14.0925ZM1.15036 12.1221C1.4557 11.3683 2.38349 10.7352 3.69569 10.4517L3.64079 10.1976C2.29285 10.4889 1.26205 11.1541 0.909489 12.0246L1.15036 12.1221ZM3.69568 10.4517L3.90265 10.4069L3.84776 10.1529L3.6408 10.1976L3.69568 10.4517ZM3.78384 10.3723L3.90452 10.4917L4.08726 10.3069L3.96657 10.1875L3.78384 10.3723ZM3.90453 10.4917C4.58159 11.1612 5.48188 11.5848 6.46444 11.6989L6.49442 11.4407C5.56687 11.333 4.72116 10.9337 4.08726 10.3069L3.90453 10.4917ZM6.46444 11.6989C6.68736 11.7248 7.20473 11.7244 7.42769 11.6982L7.39737 11.4401C7.19444 11.464 6.6973 11.4643 6.49442 11.4407L6.46444 11.6989ZM7.42769 11.6982C8.42187 11.5814 9.33787 11.1454 9.99627 10.4711L9.81032 10.2895C9.19648 10.9182 8.33683 11.3298 7.39737 11.4401L7.42769 11.6982ZM9.99626 10.4711C10.0187 10.4481 10.0361 10.4308 10.05 10.4177C10.0643 10.4043 10.0727 10.3973 10.0774 10.394C10.0824 10.3903 10.0781 10.3945 10.0669 10.3979C10.0524 10.4023 10.0361 10.4028 10.0213 10.3993L10.0803 10.1462C10.0134 10.1306 9.96024 10.1578 9.92429 10.184C9.89212 10.2074 9.85488 10.2439 9.81032 10.2895L9.99626 10.4711ZM10.0214 10.3994C10.0428 10.4043 10.1293 10.4223 10.2127 10.4391L10.2641 10.1843C10.1792 10.1672 10.097 10.1501 10.0802 10.1462L10.0214 10.3994Z" fill="#1F1D66"/>
</svg>
