<svg width="22" height="22" viewBox="0 0 22 22" fill="none" xmlns="http://www.w3.org/2000/svg">
<path fill-rule="evenodd" clip-rule="evenodd" d="M10.8137 2.17552C10.227 2.24249 9.97123 2.28196 9.60668 2.36169C6.31392 3.08201 3.75276 5.5804 2.95005 8.85517C2.7592 9.6336 2.71421 10.0314 2.71498 10.9325C2.71574 11.8339 2.76201 12.2428 2.95005 13.0099C3.28643 14.3822 3.90996 15.5926 4.83517 16.6692C6.23151 18.2939 8.18452 19.3424 10.3748 19.6433C10.8254 19.7052 12.1213 19.7049 12.5693 19.6428C14.3291 19.399 15.8848 18.7059 17.1961 17.5812C18.7991 16.2064 19.823 14.3389 20.1638 12.1687C20.2543 11.5928 20.2545 10.2738 20.1643 9.69955C19.8649 7.79342 19.0199 6.09629 17.7108 4.77146C16.3621 3.40658 14.6752 2.55156 12.7264 2.24498C12.3863 2.19147 11.0871 2.14429 10.8137 2.17552ZM12.0255 3.43211C13.022 3.80795 13.9804 5.24822 14.5036 7.15613L14.5763 7.4213H11.4722H8.36824L8.4607 7.08298C8.92901 5.3691 9.82749 3.9709 10.7672 3.49348C11.1259 3.31126 11.6388 3.28624 12.0255 3.43211ZM8.63235 3.91922C8.61714 3.94438 8.53623 4.07192 8.45255 4.20268C7.95267 4.98385 7.51841 6.00975 7.26813 7.00069L7.16649 7.40302L5.95434 7.41264C5.28765 7.41794 4.74216 7.41373 4.74216 7.40327C4.74216 7.39281 4.8355 7.22837 4.94962 7.03781C5.73288 5.72955 6.90358 4.68083 8.30614 4.03088C8.69014 3.85294 8.6679 3.86055 8.63235 3.91922ZM14.8911 4.15198C16.1463 4.7791 17.2648 5.81916 17.9944 7.03781C18.1085 7.22837 18.2019 7.39281 18.2019 7.40327C18.2019 7.41373 17.6561 7.41794 16.9889 7.41264L15.776 7.40302L15.691 7.05555C15.4488 6.06582 14.9308 4.85112 14.4353 4.11124C14.2717 3.86688 14.2723 3.86922 14.3868 3.91252C14.4433 3.93388 14.6702 4.04163 14.8911 4.15198ZM6.91459 8.94833C6.84543 9.48675 6.79038 10.3657 6.79038 10.9325C6.79038 11.4993 6.84543 12.3783 6.91459 12.9167L6.96042 13.2734H5.59788H4.2353L4.18037 13.0813C3.93941 12.2393 3.88707 11.856 3.88707 10.9325C3.88707 10.0266 3.9713 9.4249 4.19803 8.71059L4.23578 8.59172H5.5981H6.96042L6.91459 8.94833ZM14.8608 8.95747C15.0193 10.2361 15.0193 11.629 14.8608 12.9076L14.8178 13.2551L11.4833 13.2644C8.3305 13.2732 8.14773 13.2702 8.13036 13.2095C8.05739 12.9546 7.96145 11.6612 7.96145 10.9325C7.96145 10.2038 8.05739 8.91051 8.13036 8.65554C8.14773 8.59482 8.3305 8.59183 11.4833 8.60068L14.8178 8.61L14.8608 8.95747ZM18.7637 8.78374C19.0046 9.62581 19.057 10.0091 19.057 10.9325C19.057 11.856 19.0046 12.2393 18.7637 13.0813L18.7087 13.2734H17.3462H15.9836L16.0295 12.9167C16.0986 12.3783 16.1537 11.4993 16.1537 10.9325C16.1537 10.3657 16.0986 9.48675 16.0295 8.94833L15.9836 8.59172H17.3462H18.7087L18.7637 8.78374ZM7.26813 14.8644C7.52145 15.8674 8.01463 17.016 8.50873 17.7538C8.67028 17.9951 8.67021 17.9938 8.51992 17.9319C7.09173 17.3432 5.7655 16.19 4.94962 14.8273C4.8355 14.6367 4.74216 14.4723 4.74216 14.4618C4.74216 14.4513 5.28765 14.4471 5.95434 14.4524L7.16649 14.4621L7.26813 14.8644ZM14.5386 14.5809C14.0835 16.2963 13.3165 17.6209 12.4381 18.2085C12.0776 18.4495 11.8563 18.5212 11.472 18.5212C11.0878 18.5212 10.8664 18.4495 10.506 18.2085C9.67146 17.6503 8.88395 16.3311 8.4607 14.7821L8.36824 14.4438H11.4716H14.575L14.5386 14.5809ZM18.2019 14.4623C18.2019 14.4725 18.1085 14.6367 17.9944 14.8273C17.4213 15.7845 16.598 16.6445 15.6557 17.2701C15.3271 17.4883 14.6479 17.8533 14.3841 17.9534C14.2803 17.9928 14.2795 17.9922 14.3332 17.9102C14.9521 16.9652 15.4776 15.7608 15.6984 14.7819C15.729 14.6462 15.7611 14.5147 15.7698 14.4895C15.782 14.4542 16.0601 14.4438 16.9938 14.4438C17.6582 14.4438 18.2019 14.4521 18.2019 14.4623Z" fill="#130F26"/>
</svg>
